<svg width="289" height="250" viewBox="0 0 289 250" fill="none" xmlns="http://www.w3.org/2000/svg">
<g opacity="0.8">
<path d="M221.733 28.7165L143.501 0L66.0162 28.3382C56.1221 33.1071 47.4475 35.973 47.4475 45.3847V92.317C47.2862 125.163 56.1121 157.432 72.9766 185.654C87.4266 209.625 109.792 234.306 144.306 250C175.979 239.488 199.621 211.459 214.071 187.477C230.937 159.259 239.763 126.994 239.6 94.1512V51.9419C239.543 38.5065 232.582 31.9493 221.733 28.7165Z" fill="#EDEDED"/>
</g>
<path d="M191.267 147.433H176.886V69.4801C176.886 60.6524 173.367 52.1863 167.103 45.9441C160.838 39.702 152.342 36.1953 143.482 36.1953C134.623 36.1953 126.126 39.702 119.862 45.9441C113.597 52.1863 110.078 60.6524 110.078 69.4801V147.433H95.6972V69.4801C95.5988 63.1651 96.7622 56.8937 99.1194 51.031C101.477 45.1683 104.981 39.8314 109.428 35.3309C113.875 30.8305 119.176 27.2565 125.022 24.817C130.869 22.3774 137.144 21.1211 143.482 21.1211C149.821 21.1211 156.096 22.3774 161.942 24.817C167.789 27.2565 173.09 30.8305 177.537 35.3309C181.984 39.8314 185.488 45.1683 187.845 51.031C190.202 56.8937 191.366 63.1651 191.267 69.4801V147.433Z" fill="url(#paint0_linear_347_6911)"/>
<g opacity="0.4">
<path d="M191.263 147.429H176.882V69.4762C176.882 60.6485 173.363 52.1823 167.099 45.9402C160.834 39.6981 152.338 36.1913 143.478 36.1913C134.619 36.1913 126.123 39.6981 119.858 45.9402C113.594 52.1823 110.074 60.6485 110.074 69.4762V147.429H95.6933V69.4762C95.5949 63.1612 96.7583 56.8898 99.1155 51.0271C101.473 45.1644 104.977 39.8275 109.424 35.327C113.871 30.8266 119.172 27.2526 125.018 24.8131C130.865 22.3735 137.14 21.1172 143.478 21.1172C149.817 21.1172 156.092 22.3735 161.938 24.8131C167.785 27.2526 173.086 30.8266 177.533 35.327C181.98 39.8275 185.484 45.1644 187.841 51.0271C190.198 56.8898 191.362 63.1612 191.263 69.4762V147.429Z" fill="#E8E8E8"/>
</g>
<path d="M201.194 112.746H85.7663C82.0747 112.746 79.082 115.728 79.082 119.406V188.418C79.082 192.096 82.0747 195.078 85.7663 195.078H201.194C204.885 195.078 207.878 192.096 207.878 188.418V119.406C207.878 115.728 204.885 112.746 201.194 112.746Z" fill="url(#paint1_linear_347_6911)"/>
<ellipse cx="143.487" cy="153.911" rx="18.0383" ry="17.9738" fill="black"/>
<rect x="131.984" y="146.574" width="22.9988" height="14.6757" fill="black"/>
<path d="M154.994 152.351V152.327C154.944 150.906 154.347 149.559 153.33 148.573C152.312 147.586 150.953 147.037 149.541 147.042C148.845 147.042 147.567 147.414 147.567 147.414L147.415 147.353C147.415 147.353 145.055 145.555 143.305 145.555C141.555 145.555 139.195 147.353 139.195 147.353L139.05 147.416C139.05 147.416 137.768 147.042 137.068 147.042C135.656 147.037 134.297 147.586 133.28 148.573C132.262 149.559 131.665 150.906 131.615 152.327V152.337L131.609 161.447H132.4C133.088 161.446 133.747 161.17 134.233 160.68C134.72 160.19 134.993 159.526 134.995 158.834V157.628C136.211 158.13 137.565 158.173 138.81 157.75C140.056 157.327 141.108 156.466 141.773 155.325V156.5C141.774 156.908 141.935 157.299 142.221 157.587C142.507 157.876 142.896 158.038 143.301 158.039H143.305C143.71 158.038 144.098 157.876 144.384 157.587C144.671 157.299 144.832 156.908 144.832 156.5V155.325C145.498 156.467 146.551 157.329 147.797 157.752C149.043 158.175 150.399 158.131 151.615 157.628V158.834C151.616 159.527 151.89 160.191 152.376 160.682C152.863 161.172 153.522 161.447 154.21 161.448H155L154.994 152.351Z" fill="white"/>
<path d="M143.333 149.469H143.327C142.829 149.469 142.426 149.875 142.426 150.377V156.475C142.426 156.977 142.829 157.383 143.327 157.383H143.333C143.831 157.383 144.235 156.977 144.235 156.475V150.377C144.235 149.875 143.831 149.469 143.333 149.469Z" fill="black"/>
<path d="M132.268 152.325C132.31 151.248 132.706 150.217 133.393 149.391C134.08 148.566 135.02 147.994 136.065 147.764C137.11 147.535 138.201 147.661 139.166 148.123C140.132 148.585 140.919 149.357 141.402 150.318C141.886 151.279 142.039 152.374 141.838 153.432C141.637 154.49 141.093 155.451 140.291 156.165C139.49 156.878 138.476 157.303 137.409 157.373C136.342 157.443 135.282 157.155 134.395 156.553V158.808C134.395 159.068 134.344 159.326 134.245 159.567C134.147 159.808 134.002 160.026 133.819 160.211C133.636 160.395 133.419 160.541 133.18 160.641C132.941 160.74 132.685 160.792 132.427 160.792H132.262L132.268 152.325ZM137.096 155.561C137.695 155.562 138.28 155.383 138.778 155.049C139.276 154.714 139.665 154.239 139.895 153.682C140.124 153.125 140.185 152.512 140.069 151.92C139.953 151.328 139.665 150.785 139.242 150.358C138.819 149.931 138.28 149.64 137.693 149.522C137.106 149.403 136.497 149.463 135.944 149.693C135.391 149.923 134.918 150.314 134.584 150.815C134.251 151.316 134.073 151.905 134.072 152.508V152.512C134.072 153.319 134.391 154.094 134.957 154.666C135.524 155.238 136.292 155.56 137.094 155.561H137.096Z" fill="#070707"/>
<path d="M154.394 152.325C154.352 151.248 153.956 150.217 153.269 149.391C152.582 148.566 151.642 147.994 150.597 147.764C149.552 147.535 148.462 147.661 147.496 148.123C146.53 148.585 145.743 149.357 145.26 150.318C144.777 151.279 144.623 152.374 144.824 153.432C145.025 154.49 145.569 155.451 146.371 156.165C147.172 156.878 148.186 157.303 149.253 157.373C150.32 157.443 151.38 157.155 152.267 156.553V158.808C152.267 159.068 152.318 159.326 152.417 159.567C152.516 159.808 152.66 160.026 152.843 160.211C153.026 160.395 153.243 160.541 153.482 160.641C153.721 160.74 153.977 160.792 154.235 160.792H154.4L154.394 152.325ZM149.568 155.561C148.969 155.562 148.384 155.383 147.885 155.049C147.387 154.714 146.999 154.239 146.769 153.682C146.539 153.125 146.479 152.512 146.595 151.92C146.711 151.328 146.999 150.785 147.422 150.358C147.845 149.931 148.384 149.64 148.971 149.522C149.558 149.403 150.166 149.463 150.72 149.693C151.273 149.923 151.746 150.314 152.079 150.815C152.413 151.316 152.591 151.905 152.591 152.508V152.512C152.591 153.32 152.273 154.095 151.706 154.667C151.139 155.238 150.37 155.56 149.568 155.561Z" fill="#070707"/>
<path d="M139.056 152.488C139.056 152.878 138.941 153.259 138.726 153.583C138.511 153.907 138.205 154.16 137.848 154.309C137.49 154.459 137.097 154.498 136.717 154.422C136.337 154.346 135.989 154.158 135.715 153.883C135.441 153.607 135.254 153.256 135.178 152.874C135.103 152.491 135.141 152.095 135.289 151.734C135.437 151.374 135.688 151.066 136.009 150.849C136.331 150.632 136.709 150.516 137.096 150.516C137.174 150.516 137.251 150.521 137.328 150.532C137.177 150.741 137.095 150.993 137.096 151.251C137.096 151.579 137.225 151.893 137.454 152.125C137.684 152.357 137.995 152.487 138.32 152.488C138.577 152.488 138.827 152.406 139.034 152.254C139.047 152.331 139.054 152.409 139.056 152.488Z" fill="black"/>
<path d="M143.329 146.215C142.041 146.215 140.305 147.538 140.305 147.538L141.587 148.853C141.587 148.853 142.585 148.08 143.329 148.08C144.072 148.08 145.071 148.853 145.071 148.853L146.354 147.538C146.354 147.538 144.617 146.215 143.329 146.215Z" fill="#FFAE00"/>
<path d="M151.516 152.488C151.515 152.878 151.401 153.259 151.185 153.584C150.97 153.908 150.664 154.16 150.307 154.31C149.949 154.459 149.555 154.498 149.176 154.422C148.796 154.345 148.447 154.158 148.174 153.882C147.9 153.606 147.714 153.255 147.638 152.872C147.563 152.49 147.601 152.093 147.75 151.733C147.898 151.372 148.149 151.065 148.471 150.848C148.792 150.631 149.171 150.516 149.558 150.516C149.636 150.516 149.713 150.521 149.79 150.532C149.639 150.741 149.557 150.993 149.558 151.252C149.558 151.579 149.686 151.893 149.915 152.125C150.144 152.356 150.455 152.487 150.78 152.488C151.037 152.489 151.287 152.407 151.494 152.254C151.507 152.332 151.514 152.41 151.516 152.488Z" fill="black"/>
<path d="M240.26 231.781C240.26 231.781 240.571 231.345 241.192 230.531L241.71 229.844C241.894 229.58 242.055 229.27 242.239 228.938C242.698 228.193 243.083 227.406 243.389 226.588C243.574 226.118 243.792 225.636 243.976 225.109C244.16 224.582 244.287 223.963 244.448 223.412C244.636 222.795 244.767 222.162 244.839 221.521C244.977 220.831 245.076 220.135 245.138 219.435C245.41 216.077 245.255 212.699 244.678 209.381C243.528 201.849 240.306 192.999 235.405 183.37C229.719 172.513 223.058 162.191 215.502 152.532C206.405 140.769 196.486 129.66 185.82 119.288C173.635 107.339 160.617 96.2645 146.864 86.1463C139.582 80.8271 131.908 75.657 123.855 70.785C115.623 65.7859 107.077 61.3211 98.2683 57.4183C89.1897 53.2855 79.6278 50.3009 69.8055 48.5339C64.7914 47.6458 59.6715 47.5183 54.6192 48.1556C52.0923 48.5336 49.6276 49.2469 47.2906 50.2764C44.9379 51.3194 42.833 52.8461 41.114 54.7566C39.3949 56.667 38.1007 58.918 37.316 61.3618C36.5528 63.792 36.1232 66.314 36.0389 68.859C35.9676 73.9334 36.6697 78.9892 38.1213 83.8535C40.9995 93.3785 45.0656 102.506 50.2243 111.022C55.1175 119.304 60.5438 127.261 66.4691 134.844C72.2215 142.295 78.273 149.3 84.405 155.891C96.0597 168.363 108.585 179.997 121.888 190.707C133.44 200.079 145.638 208.633 158.392 216.305C168.881 222.683 179.929 228.1 191.399 232.492C201.558 236.252 210.75 238.407 218.39 238.705C221.765 238.909 225.152 238.678 228.468 238.017C229.155 237.88 229.835 237.708 230.504 237.501C231.135 237.344 231.755 237.141 232.356 236.894L233.99 236.229C234.496 235.988 234.956 235.713 235.394 235.484C236.176 235.069 236.919 234.586 237.614 234.039C237.913 233.81 238.212 233.627 238.454 233.42L239.075 232.824L240.226 231.758L239.133 232.904L238.511 233.523C238.27 233.73 237.982 233.925 237.672 234.165C236.98 234.719 236.241 235.21 235.463 235.633C235.025 235.873 234.565 236.149 234.059 236.401L232.414 237.077C231.815 237.335 231.195 237.542 230.562 237.696C229.889 237.915 229.206 238.099 228.514 238.246C225.185 238.923 221.782 239.174 218.39 238.992C210.716 238.728 201.489 236.584 191.296 232.859C179.79 228.487 168.707 223.081 158.185 216.706C145.391 209.059 133.161 200.512 121.588 191.131C108.253 180.426 95.6964 168.792 84.0139 156.315C77.8588 149.712 71.8188 142.697 66.0319 135.234C60.0888 127.635 54.6435 119.663 49.7297 111.366C44.5464 102.805 40.4573 93.6318 37.5576 84.0599C36.0951 79.1272 35.393 74.0018 35.4752 68.859C35.5571 66.2548 35.9984 63.6742 36.7868 61.1899C37.5857 58.6659 38.9123 56.3393 40.6792 54.3634C42.4461 52.3874 44.6131 50.807 47.0375 49.7262C49.4232 48.6671 51.9431 47.9382 54.5271 47.5595C59.64 46.9051 64.8233 47.0326 69.8975 47.9378C79.7699 49.7106 89.3791 52.7148 98.4984 56.8795C107.305 60.8002 115.845 65.2922 124.062 70.3264C132.115 75.2099 139.847 80.3915 147.072 85.7221C160.837 95.8751 173.866 106.984 186.061 118.967C196.722 129.362 206.633 140.494 215.721 152.28C223.271 161.977 229.921 172.336 235.589 183.232C240.467 192.896 243.643 201.792 244.793 209.346C245.36 212.686 245.495 216.084 245.196 219.457C245.135 220.162 245.035 220.862 244.897 221.555C244.806 222.199 244.667 222.835 244.482 223.458C244.31 224.054 244.149 224.605 243.999 225.166C243.85 225.728 243.574 226.175 243.389 226.645C243.064 227.468 242.655 228.255 242.17 228.995C241.974 229.328 241.813 229.637 241.629 229.901L241.089 230.577C240.548 231.38 240.26 231.781 240.26 231.781Z" fill="url(#paint2_linear_347_6911)"/>
<path d="M277.079 143.207C277.079 143.207 277.021 142.679 276.941 141.659C276.941 141.399 276.918 141.113 276.872 140.799C276.872 140.478 276.734 140.146 276.664 139.767C276.514 138.9 276.283 138.048 275.974 137.223C275.802 136.753 275.641 136.248 275.433 135.732C275.226 135.216 274.916 134.712 274.64 134.15C274.35 133.554 274.011 132.983 273.627 132.442C273.248 131.892 272.925 131.296 272.477 130.7C270.439 128.01 268.065 125.591 265.413 123.5C259.511 118.663 251.204 114.169 241.126 110.237C229.628 105.908 217.76 102.624 205.669 100.424C191.027 97.6871 176.211 95.9824 161.329 95.3227C144.25 94.5042 127.135 94.8873 110.11 96.4691C101.125 97.3174 91.9438 98.5555 82.6595 100.287C73.1759 102.012 63.8144 104.348 54.6338 107.279C45.0876 110.215 35.9472 114.328 27.4251 119.523C23.1196 122.193 19.2414 125.493 15.9203 129.313C14.2831 131.267 12.9207 133.434 11.8706 135.755C10.8148 138.098 10.2689 140.638 10.2689 143.207C10.2689 145.775 10.8148 148.315 11.8706 150.658C12.925 152.976 14.287 155.143 15.9203 157.101C19.2423 160.903 23.1208 164.184 27.4251 166.833C35.9419 172.033 45.0788 176.15 54.6224 179.088C63.8022 182.022 73.1638 184.358 82.648 186.081C91.9323 187.823 101.113 189.05 110.098 189.898C127.123 191.486 144.239 191.869 161.318 191.045C176.199 190.385 191.016 188.681 205.657 185.943C217.75 183.747 229.617 180.462 241.115 176.13C251.204 172.198 259.522 167.704 265.401 162.867C268.056 160.779 270.431 158.36 272.465 155.668C272.88 155.108 273.264 154.526 273.616 153.925C273.985 153.395 274.308 152.836 274.582 152.251L275.376 150.669C275.583 150.154 275.744 149.649 275.917 149.179C276.225 148.354 276.456 147.502 276.607 146.634C276.676 146.267 276.768 145.923 276.814 145.614C276.86 145.304 276.814 145.006 276.883 144.754C276.964 143.722 277.021 143.207 277.021 143.207C277.021 143.207 277.021 143.734 276.941 144.754C276.941 145.018 276.941 145.304 276.941 145.625C276.941 145.946 276.814 146.279 276.745 146.657C276.602 147.528 276.379 148.384 276.078 149.214C275.905 149.695 275.756 150.199 275.537 150.727L274.766 152.32C274.49 152.907 274.167 153.471 273.8 154.005C273.42 154.567 273.098 155.209 272.649 155.782C270.615 158.499 268.237 160.941 265.574 163.05C259.672 167.934 251.354 172.473 241.264 176.44C229.75 180.796 217.863 184.103 205.749 186.321C191.091 189.092 176.255 190.827 161.352 191.515C144.248 192.366 127.106 192.01 110.052 190.448C101.056 189.6 91.8633 188.373 82.5444 186.642C73.0382 184.917 63.6537 182.581 54.4498 179.65C44.8578 176.699 35.6746 172.563 27.1144 167.338C22.7335 164.636 18.7854 161.293 15.4026 157.422C13.7269 155.418 12.3335 153.197 11.2609 150.818C10.1798 148.407 9.62109 145.796 9.62109 143.155C9.62109 140.514 10.1798 137.903 11.2609 135.492C12.3379 133.119 13.731 130.902 15.4026 128.9C18.784 125.025 22.737 121.686 27.1259 118.995C35.6802 113.77 44.8602 109.637 54.4498 106.695C63.652 103.754 73.0368 101.414 82.5444 99.6904C91.8518 97.9594 101.044 96.7328 110.041 95.8845C127.094 94.3263 144.237 93.9739 161.341 94.8298C176.249 95.5188 191.089 97.2619 205.749 100.046C217.857 102.274 229.736 105.593 241.241 109.962C251.342 113.94 259.649 118.468 265.562 123.351C268.215 125.469 270.585 127.915 272.615 130.631C273.03 131.198 273.414 131.788 273.765 132.396C274.128 132.934 274.451 133.497 274.732 134.081L275.503 135.686C275.721 136.202 275.871 136.718 276.043 137.188C276.346 138.021 276.569 138.881 276.71 139.756C276.78 140.123 276.86 140.467 276.906 140.788C276.952 141.109 276.906 141.395 276.906 141.647C277.079 142.679 277.079 143.207 277.079 143.207Z" fill="url(#paint3_linear_347_6911)"/>
<path d="M228.254 32.9369C228.254 32.9369 227.794 32.6618 226.942 32.1L226.217 31.63C225.941 31.4695 225.608 31.332 225.274 31.16C224.493 30.751 223.677 30.4133 222.835 30.1512C222.352 30.0022 221.857 29.8073 221.316 29.6583L219.556 29.2685C218.924 29.1303 218.281 29.0422 217.635 29.0048C216.956 29.0048 216.266 28.8329 215.529 28.8558C212.147 28.816 208.772 29.2012 205.486 30.0022C198.042 31.6759 189.379 35.4704 180.095 41.0073C169.613 47.4047 159.736 54.7371 150.585 62.9144C139.443 72.7656 129.013 83.3883 119.373 94.7032C108.25 107.643 98.0585 121.35 88.8734 135.72C84.0414 143.321 79.3935 151.299 75.0677 159.679C70.6303 168.21 66.749 177.018 63.4479 186.046C59.9445 195.358 57.6255 205.071 56.545 214.957C56 220.003 56.2288 225.101 57.2238 230.078C57.7677 232.566 58.6503 234.969 59.8469 237.22C61.055 239.48 62.7291 241.461 64.7594 243.032C66.7898 244.602 69.1304 245.727 71.6278 246.333C74.1125 246.928 76.6671 247.183 79.2209 247.09C84.3048 246.81 89.3167 245.762 94.0851 243.983C103.427 240.463 112.289 235.792 120.466 230.078C128.418 224.644 136.008 218.701 143.187 212.286C150.251 206.039 156.855 199.562 163.033 193.004C174.696 180.56 185.461 167.31 195.247 153.351C203.854 141.239 211.593 128.536 218.406 115.338C224.066 104.468 228.729 93.1111 232.338 81.4053C235.398 71.088 236.94 61.7681 236.698 54.1562C236.67 50.7864 236.206 47.4343 235.318 44.1828C235.132 43.5063 234.909 42.8404 234.65 42.1881C234.457 41.5737 234.214 40.9757 233.926 40.3998C233.649 39.8495 233.396 39.2534 233.155 38.8178C232.913 38.3821 232.568 37.8892 232.303 37.4765C231.837 36.7254 231.302 36.0192 230.704 35.3672C230.463 35.0806 230.244 34.8055 230.025 34.5762L229.381 33.9915C228.622 33.3037 228.231 32.9369 228.231 32.9369L229.381 33.9457L230.025 34.5189C230.256 34.7481 230.474 35.0233 230.727 35.3099C231.339 35.9515 231.883 36.6545 232.349 37.4077C232.626 37.8319 232.936 38.2675 233.224 38.749L234.006 40.331C234.309 40.9086 234.563 41.5107 234.765 42.1308C234.973 42.7727 235.283 43.4147 235.444 44.1369C236.352 47.3979 236.839 50.7609 236.894 54.1447C237.158 61.791 235.651 71.1109 232.614 81.497C229.033 93.2376 224.389 104.63 218.739 115.533C211.953 128.772 204.237 141.517 195.649 153.672C185.866 167.661 175.101 180.942 163.436 193.417C157.246 199.997 150.643 206.486 143.567 212.756C136.37 219.188 128.761 225.146 120.788 230.594C112.59 236.339 103.7 241.034 94.3267 244.568C89.4761 246.387 84.3734 247.45 79.1979 247.72C76.5859 247.81 73.9737 247.548 71.4322 246.941C68.8552 246.316 66.4398 245.155 64.3442 243.535C62.2486 241.915 60.52 239.872 59.2716 237.541C58.0477 235.24 57.1458 232.783 56.591 230.238C55.5875 225.205 55.3547 220.049 55.9007 214.946C57.0011 205.006 59.3472 195.243 62.8841 185.885C66.1991 176.855 70.0958 168.048 74.5499 159.519C78.8757 151.127 83.5352 143.137 88.3557 135.525C97.5647 121.144 107.783 107.43 118.935 94.4854C128.61 83.1679 139.075 72.5452 150.251 62.6966C159.456 54.4879 169.396 47.1358 179.945 40.7322C189.287 35.2067 197.973 31.4351 205.463 29.7844C208.762 28.9682 212.154 28.5828 215.552 28.638C216.26 28.6546 216.967 28.7082 217.669 28.7985C218.32 28.8394 218.966 28.9314 219.602 29.0736L221.351 29.4405C221.892 29.6009 222.386 29.7844 222.87 29.9449C223.714 30.2131 224.531 30.5625 225.309 30.9881C225.654 31.16 225.976 31.309 226.252 31.4695L226.965 31.951C227.828 32.6274 228.254 32.9369 228.254 32.9369Z" fill="url(#paint4_linear_347_6911)"/>
<path d="M4.95855 206.569C7.69709 206.569 9.91711 204.357 9.91711 201.628C9.91711 198.9 7.69709 196.688 4.95855 196.688C2.22002 196.688 0 198.9 0 201.628C0 204.357 2.22002 206.569 4.95855 206.569Z" fill="url(#paint5_linear_347_6911)"/>
<path d="M288.335 44.9718C288.333 45.9485 288.04 46.9027 287.494 47.7137C286.948 48.5247 286.172 49.1562 285.266 49.5284C284.36 49.9006 283.363 49.9968 282.402 49.8049C281.441 49.6129 280.559 49.1415 279.866 48.45C279.174 47.7586 278.703 46.8782 278.512 45.9201C278.322 44.962 278.421 43.9691 278.797 43.067C279.172 42.1648 279.808 41.3938 280.623 40.8514C281.438 40.309 282.396 40.0195 283.377 40.0195C284.029 40.0195 284.674 40.1477 285.277 40.3967C285.879 40.6457 286.426 41.0107 286.887 41.4707C287.347 41.9307 287.712 42.4768 287.961 43.0775C288.209 43.6783 288.337 44.322 288.335 44.9718Z" fill="url(#paint6_linear_347_6911)"/>
<path d="M39.7849 214.378C39.7849 214.628 39.7104 214.872 39.5708 215.08C39.4313 215.288 39.233 215.449 39.001 215.544C38.7691 215.639 38.5141 215.664 38.2683 215.614C38.0225 215.565 37.797 215.443 37.6205 215.266C37.444 215.088 37.3244 214.863 37.2768 214.617C37.2293 214.372 37.256 214.118 37.3536 213.888C37.4511 213.657 37.6151 213.461 37.8247 213.324C38.0344 213.187 38.2802 213.115 38.5309 213.117C38.8646 213.12 39.1835 213.254 39.4184 213.491C39.6532 213.727 39.785 214.046 39.7849 214.378Z" fill="url(#paint7_linear_347_6911)"/>
<path d="M66.6912 75.8821C66.6912 76.1315 66.617 76.3753 66.4779 76.5827C66.3389 76.7901 66.1412 76.9517 65.91 77.0471C65.6787 77.1426 65.4243 77.1675 65.1788 77.1189C64.9333 77.0702 64.7078 76.9501 64.5308 76.7738C64.3538 76.5974 64.2333 76.3727 64.1845 76.1281C64.1356 75.8835 64.1607 75.6299 64.2565 75.3995C64.3523 75.1691 64.5145 74.9722 64.7226 74.8336C64.9307 74.695 65.1754 74.6211 65.4257 74.6211C65.7613 74.6211 66.0832 74.754 66.3206 74.9904C66.5579 75.2269 66.6912 75.5477 66.6912 75.8821Z" fill="url(#paint8_linear_347_6911)"/>
<path d="M263.418 143.202C263.418 143.452 263.343 143.697 263.204 143.904C263.064 144.112 262.866 144.273 262.634 144.369C262.402 144.464 262.147 144.488 261.901 144.438C261.655 144.389 261.43 144.268 261.253 144.09C261.077 143.913 260.957 143.687 260.91 143.441C260.862 143.196 260.889 142.942 260.986 142.712C261.084 142.482 261.248 142.286 261.458 142.148C261.667 142.011 261.913 141.939 262.164 141.941C262.329 141.941 262.493 141.974 262.646 142.038C262.799 142.101 262.938 142.194 263.055 142.311C263.171 142.429 263.263 142.568 263.326 142.721C263.388 142.874 263.419 143.037 263.418 143.202Z" fill="url(#paint9_linear_347_6911)"/>
<path d="M280.937 84.6363C280.94 84.8867 280.867 85.132 280.729 85.3412C280.591 85.5503 280.393 85.7137 280.161 85.8105C279.93 85.9074 279.674 85.9333 279.428 85.885C279.181 85.8368 278.955 85.7164 278.777 85.5394C278.599 85.3623 278.478 85.1366 278.43 84.8909C278.382 84.6452 278.408 84.3908 278.505 84.1599C278.602 83.929 278.766 83.7322 278.976 83.5945C279.186 83.4568 279.432 83.3845 279.683 83.3868C280.016 83.3868 280.335 83.5184 280.57 83.7527C280.805 83.9871 280.937 84.3049 280.937 84.6363Z" fill="url(#paint10_linear_347_6911)"/>
<defs>
<linearGradient id="paint0_linear_347_6911" x1="95.6914" y1="-147.505" x2="186.728" y2="176.38" gradientUnits="userSpaceOnUse">
<stop stop-color="#FFDA46"/>
<stop offset="1" stop-color="#FFAE00"/>
</linearGradient>
<linearGradient id="paint1_linear_347_6911" x1="79.082" y1="2.83264" x2="109.491" y2="226.49" gradientUnits="userSpaceOnUse">
<stop stop-color="#FFDA46"/>
<stop offset="1" stop-color="#FFAE00"/>
</linearGradient>
<linearGradient id="paint2_linear_347_6911" x1="35.4687" y1="-209.039" x2="134.959" y2="302.554" gradientUnits="userSpaceOnUse">
<stop stop-color="#FFDA46"/>
<stop offset="1" stop-color="#FFAE00"/>
</linearGradient>
<linearGradient id="paint3_linear_347_6911" x1="9.62109" y1="-35.9078" x2="30.4503" y2="232.483" gradientUnits="userSpaceOnUse">
<stop stop-color="#FFDA46"/>
<stop offset="1" stop-color="#FFAE00"/>
</linearGradient>
<linearGradient id="paint4_linear_347_6911" x1="55.6133" y1="-263.872" x2="201.771" y2="304.768" gradientUnits="userSpaceOnUse">
<stop stop-color="#FFDA46"/>
<stop offset="1" stop-color="#FFAE00"/>
</linearGradient>
<linearGradient id="paint5_linear_347_6911" x1="-1.37798e-07" y1="183.495" x2="5.54523" y2="209.66" gradientUnits="userSpaceOnUse">
<stop stop-color="#FFDA46"/>
<stop offset="1" stop-color="#FFAE00"/>
</linearGradient>
<linearGradient id="paint6_linear_347_6911" x1="278.418" y1="26.8275" x2="283.963" y2="52.9924" gradientUnits="userSpaceOnUse">
<stop stop-color="#FFDA46"/>
<stop offset="1" stop-color="#FFAE00"/>
</linearGradient>
<linearGradient id="paint7_linear_347_6911" x1="37.2539" y1="209.75" x2="38.6692" y2="216.428" gradientUnits="userSpaceOnUse">
<stop stop-color="#FFDA46"/>
<stop offset="1" stop-color="#FFAE00"/>
</linearGradient>
<linearGradient id="paint8_linear_347_6911" x1="64.1602" y1="71.2542" x2="65.5754" y2="77.932" gradientUnits="userSpaceOnUse">
<stop stop-color="#FFDA46"/>
<stop offset="1" stop-color="#FFAE00"/>
</linearGradient>
<linearGradient id="paint9_linear_347_6911" x1="260.887" y1="138.575" x2="262.302" y2="145.252" gradientUnits="userSpaceOnUse">
<stop stop-color="#FFDA46"/>
<stop offset="1" stop-color="#FFAE00"/>
</linearGradient>
<linearGradient id="paint10_linear_347_6911" x1="278.406" y1="80.0198" x2="279.821" y2="86.6977" gradientUnits="userSpaceOnUse">
<stop stop-color="#FFDA46"/>
<stop offset="1" stop-color="#FFAE00"/>
</linearGradient>
</defs>
</svg>
