<svg width="23" height="23" viewBox="0 0 23 23" fill="none" xmlns="http://www.w3.org/2000/svg">
<g id="comment-dots 1" clip-path="url(#clip0_347_6751)">
<path id="Vector" d="M12.9366 11.4987C12.9366 12.2922 12.2926 12.9362 11.4991 12.9362C10.7056 12.9362 10.0616 12.2922 10.0616 11.4987C10.0616 10.7052 10.7056 10.0612 11.4991 10.0612C12.2926 10.0612 12.9366 10.7052 12.9366 11.4987ZM16.2907 10.0612C15.4972 10.0612 14.8532 10.7052 14.8532 11.4987C14.8532 12.2922 15.4972 12.9362 16.2907 12.9362C17.0842 12.9362 17.7282 12.2922 17.7282 11.4987C17.7282 10.7052 17.0842 10.0612 16.2907 10.0612ZM6.70741 10.0612C5.91391 10.0612 5.26991 10.7052 5.26991 11.4987C5.26991 12.2922 5.91391 12.9362 6.70741 12.9362C7.50091 12.9362 8.14491 12.2922 8.14491 11.4987C8.14491 10.7052 7.50091 10.0612 6.70741 10.0612ZM22.9991 11.8245V18.207C22.9991 20.8492 20.8495 22.9987 18.2074 22.9987H12.537C5.82766 22.9987 0.449492 18.4064 0.0278252 12.3171C-0.203133 8.98595 1.01203 5.7257 3.36187 3.37299C5.7117 1.02028 8.97195 -0.19872 12.3002 0.0264881C18.2994 0.43378 22.9991 5.61549 22.9991 11.8245ZM21.0824 11.8245C21.0824 6.61982 17.1686 2.27761 12.1709 1.93836C11.9514 1.92303 11.732 1.91632 11.5135 1.91632C8.96812 1.91632 6.52149 2.92065 4.71791 4.72711C2.75908 6.68786 1.74612 9.40666 1.9397 12.1849C2.29716 17.3407 6.75437 21.083 12.5379 21.083H18.2084C19.7935 21.083 21.0834 19.7931 21.0834 18.208V11.8255L21.0824 11.8245Z" fill="url(#paint0_linear_347_6751)"/>
</g>
<defs>
<linearGradient id="paint0_linear_347_6751" x1="-3.19572e-07" y1="-30.7033" x2="12.9481" y2="30.1744" gradientUnits="userSpaceOnUse">
<stop stop-color="#FFDA46"/>
<stop offset="1" stop-color="#FFAE00"/>
</linearGradient>
<clipPath id="clip0_347_6751">
<rect width="23" height="23" fill="white"/>
</clipPath>
</defs>
</svg>
