<svg width="23" height="23" viewBox="0 0 23 23" fill="none" xmlns="http://www.w3.org/2000/svg">
<g id="envelope (9) 1" clip-path="url(#clip0_347_6766)">
<path id="Vector" d="M18.2083 0.957031H4.79167C3.5213 0.958553 2.30341 1.46388 1.40513 2.36216C0.506845 3.26044 0.0015217 4.47834 0 5.7487L0 17.2487C0.0015217 18.5191 0.506845 19.737 1.40513 20.6352C2.30341 21.5335 3.5213 22.0388 4.79167 22.0404H18.2083C19.4787 22.0388 20.6966 21.5335 21.5949 20.6352C22.4932 19.737 22.9985 18.5191 23 17.2487V5.7487C22.9985 4.47834 22.4932 3.26044 21.5949 2.36216C20.6966 1.46388 19.4787 0.958553 18.2083 0.957031ZM4.79167 2.8737H18.2083C18.7822 2.87483 19.3425 3.04765 19.8173 3.36993C20.2921 3.6922 20.6596 4.14919 20.8725 4.68207L13.5336 12.0219C12.9935 12.5599 12.2623 12.8619 11.5 12.8619C10.7377 12.8619 10.0065 12.5599 9.46642 12.0219L2.1275 4.68207C2.34039 4.14919 2.70788 3.6922 3.18267 3.36993C3.65746 3.04765 4.21783 2.87483 4.79167 2.8737ZM18.2083 20.1237H4.79167C4.02917 20.1237 3.2979 19.8208 2.75873 19.2816C2.21957 18.7425 1.91667 18.0112 1.91667 17.2487V7.1862L8.11133 13.377C9.01085 14.2743 10.2295 14.7782 11.5 14.7782C12.7705 14.7782 13.9891 14.2743 14.8887 13.377L21.0833 7.1862V17.2487C21.0833 18.0112 20.7804 18.7425 20.2413 19.2816C19.7021 19.8208 18.9708 20.1237 18.2083 20.1237Z" fill="#A7A7A7"/>
</g>
<defs>
<clipPath id="clip0_347_6766">
<rect width="23" height="23" fill="white"/>
</clipPath>
</defs>
</svg>
