<svg xmlns="http://www.w3.org/2000/svg" width="25" height="25" viewBox="0 0 25 25" fill="current">
  <g clip-path="url(#clip0_3105_11126)">
    <path d="M21.875 6.2487H5.20833C4.31354 6.2487 3.46667 5.8612 2.88021 5.20807C3.45312 4.56849 4.28542 4.16536 5.20833 4.16536H23.9583C24.5344 4.16536 25 3.6987 25 3.1237C25 2.5487 24.5344 2.08203 23.9583 2.08203H5.20833C2.33229 2.08203 0 4.41432 0 7.29036V17.707C0 20.5831 2.33229 22.9154 5.20833 22.9154H21.875C23.601 22.9154 25 21.5164 25 19.7904V9.3737C25 7.64766 23.601 6.2487 21.875 6.2487ZM22.9167 19.7904C22.9167 20.3643 22.45 20.832 21.875 20.832H5.20833C3.48542 20.832 2.08333 19.4299 2.08333 17.707V7.28828C2.97292 7.95391 4.06667 8.33203 5.20833 8.33203H21.875C22.45 8.33203 22.9167 8.79974 22.9167 9.3737V19.7904ZM20.8333 14.582C20.8333 15.157 20.3667 15.6237 19.7917 15.6237C19.2167 15.6237 18.75 15.157 18.75 14.582C18.75 14.007 19.2167 13.5404 19.7917 13.5404C20.3667 13.5404 20.8333 14.007 20.8333 14.582Z" fill="current" fill-opacity="0.7"/>
  </g>
  <defs>
    <clipPath id="clip0_3105_11126">
      <rect width="25" height="25" fill="current"/>
    </clipPath>
  </defs>
</svg>