<svg width="16" height="16" viewBox="0 0 16 16" fill="none" xmlns="http://www.w3.org/2000/svg">
<g id="category (4) 1" clip-path="url(#clip0_832_16796)">
<g id="Group 950682669">
<g id="Group">
<path id="Vector" d="M4.31684 4.42783L4.31712 4.42736L6.27872 1.02459C6.5822 0.640179 6.96751 0.387629 7.43735 0.264806C8.11694 0.186741 8.68961 0.387648 9.16439 0.86987C9.92578 2.1136 10.6571 3.37683 11.3583 4.65954C11.5117 5.07758 11.5428 5.46158 11.4585 5.8146C11.374 6.16805 11.1717 6.49894 10.8441 6.80698C10.5286 7.03754 10.1751 7.16342 9.78113 7.18518C8.34269 7.22291 6.90533 7.20973 5.46905 7.14559C5.01212 7.02251 4.66975 6.81414 4.43366 6.52524C4.19673 6.2353 4.05998 5.85588 4.02986 5.37972C4.04909 5.03977 4.14461 4.72286 4.31684 4.42783ZM7.75345 1.79178L7.68931 1.78292L7.65498 1.83781C6.93658 2.98649 6.25373 4.15806 5.60644 5.35247L5.58161 5.39828L5.60493 5.44487C5.64135 5.51766 5.69713 5.57344 5.76992 5.60987L5.79009 5.61996L5.81263 5.62042C7.12414 5.6472 8.4356 5.6472 9.74711 5.62042L9.77698 5.61981L9.80163 5.60291C9.88618 5.54492 9.92887 5.45878 9.92522 5.35645L9.92438 5.33287L9.91308 5.31214C9.30782 4.20204 8.68625 3.09922 8.04838 2.00371C7.98779 1.88351 7.88676 1.81019 7.75345 1.79178Z" fill="#6A6A6A" stroke="white" stroke-width="0.2"/>
</g>
<g id="Group_2">
<path id="Vector_2" d="M11.6177 9.77397L11.6093 9.77471L11.6011 9.77686C10.961 9.945 10.4863 10.2416 10.1915 10.6748C9.89698 11.1078 9.79168 11.6633 9.86268 12.3306L9.86259 12.3306L9.86319 12.3347C9.93752 12.8369 10.1193 13.2461 10.4138 13.5549C10.7084 13.8636 11.1087 14.0646 11.6072 14.1628L11.6071 14.1632L11.6166 14.1642C12.4097 14.2431 13.0425 14.1071 13.4981 13.737C13.9538 13.3667 14.2135 12.7772 14.2928 11.9892L14.2938 11.979L14.2928 11.9689C14.212 11.1826 13.9514 10.5927 13.4962 10.2193C13.0411 9.84599 12.4094 9.70371 11.6177 9.77397ZM8.57075 10.5134C9.20392 9.19777 10.236 8.4318 11.6759 8.20866C12.6173 8.17794 13.4103 8.36933 14.0606 8.77694C14.7106 9.18443 15.2257 9.81292 15.6031 10.6698C15.8799 11.6279 15.8832 12.4814 15.6213 13.2348C15.3594 13.9879 14.8291 14.651 14.021 15.2223C13.2304 15.6293 12.4671 15.7974 11.7291 15.7326C10.9909 15.6679 10.2704 15.3695 9.56666 14.8313C8.94251 14.215 8.55108 13.5491 8.38601 12.8338C8.22089 12.1183 8.28053 11.3458 8.57075 10.5134Z" fill="#6A6A6A" stroke="white" stroke-width="0.2"/>
</g>
<g id="Group_3">
<path id="Vector_3" d="M1.70269 10.1739H1.80269H1.80935H1.816H1.82266H1.82932H1.83598H1.84264H1.84929H1.85595H1.86261H1.86927H1.87593H1.88259H1.88924H1.8959H1.90256H1.90922H1.91588H1.92253H1.92919H1.93585H1.94251H1.94917H1.95583H1.96248H1.96914H1.9758H1.98246H1.98912H1.99577H2.00243H2.00909H2.01575H2.02241H2.02907H2.03572H2.04238H2.04904H2.0557H2.06236H2.06901H2.07567H2.08233H2.08899H2.09565H2.10231H2.10896H2.11562H2.12228H2.12894H2.1356H2.14225H2.14891H2.15557H2.16223H2.16889H2.17555H2.1822H2.18886H2.19552H2.20218H2.20884H2.2155H2.22215H2.22881H2.23547H2.24213H2.24879H2.25544H2.2621H2.26876H2.27542H2.28208H2.28874H2.29539H2.30205H2.30871H2.31537H2.32203H2.32868H2.33534H2.342H2.34866H2.35532H2.36198H2.36863H2.37529H2.38195H2.38861H2.39527H2.40193H2.40858H2.41524H2.4219H2.42856H2.43522H2.44187H2.44853H2.45519H2.46185H2.46851H2.47517H2.48182H2.48848H2.49514H2.5018H2.50846H2.51512H2.52177H2.52843H2.53509H2.54175H2.54841H2.55506H2.56172H2.56838H2.57504H2.5817H2.58836H2.59501H2.60167H2.60833H2.61499H2.62165H2.62831H2.63496H2.64162H2.64828H2.65494H2.6616H2.66825H2.67491H2.68157H2.68823H2.69489H2.70155H2.7082H2.71486H2.72152H2.72818H2.73484H2.7415H2.74815H2.75481H2.76147H2.76813H2.77479H2.78145H2.7881H2.79476H2.80142H2.80808H2.81474H2.82139H2.82805H2.83471H2.84137H2.84803H2.85469H2.86134H2.868H2.87466H2.88132H2.88798H2.89464H2.90129H2.90795H2.91461H2.92127H2.92793H2.93459H2.94124H2.9479H2.95456H2.96122H2.96788H2.97453H2.98119H2.98785H2.99451H3.00117H3.00783H3.01448H3.02114H3.0278H3.03446H3.04112H3.04778H3.05443H3.06109H3.06775H3.07441H3.08107H3.08773H3.09438H3.10104H3.1077H3.11436H3.12102H3.12767H3.13433H3.14099H3.14765H3.15431H3.16097H3.16762H3.17428H3.18094H3.1876H3.19426H3.20092H3.20757H3.21423H3.22089H3.22755H3.23421H3.24087H3.24752H3.25418H3.26084H3.2675H3.27416H3.28082H3.28747H3.29413H3.30079H3.30745H3.31411H3.32076H3.32742H3.33408H3.34074H3.3474H3.35406H3.36071H3.36737H3.37403H3.38069H3.38735H3.39401H3.40066H3.40732H3.41398H3.42064H3.4273H3.43396H3.44061H3.44727H3.45393H3.46059H3.46725H3.47391H3.48056H3.48722H3.49388H3.50054H3.5072H3.51385H3.52051H3.52717H3.53383H3.54049H3.54715H3.5538H3.56046H3.56712H3.57378H3.58044H3.5871H3.59375H3.60041H3.60707H3.61373H3.62039H3.62705H3.6337H3.64036H3.64702H3.65368H3.66034H3.667H3.67365H3.68031H3.68697H3.69363H3.70029H3.70694H3.7136H3.72026H3.72692H3.73358H3.74024H3.74689H3.75355H3.76021H3.76687H3.77353H3.78019H3.78684H3.7935H3.80016H3.80682H3.81348H3.82014H3.82679H3.83345H3.84011H3.84677H3.85343H3.86009H3.86674H3.8734H3.88006H3.88672H3.89338H3.90003H3.90669H3.91335H3.92001H3.92667H3.93333H3.93998H3.94664H3.9533H3.95996H3.96662H3.97328H3.97993H3.98659H3.99325H3.99991H4.00657H4.01323H4.01988H4.02654H4.0332H4.03986H4.04652H4.05317H4.05983H4.06649H4.07315H4.07981H4.08647H4.09312H4.09978H4.10644H4.1131H4.11976H4.12642H4.13307H4.13973H4.14639H4.15305H4.15971H4.16637H4.17302H4.17968H4.18634H4.193H4.19966H4.20631H4.21297H4.21963H4.22629H4.23295H4.23961H4.24626H4.25292H4.25958H4.26624H4.2729H4.27956H4.28621H4.29287H4.29953H4.30619H4.31285H4.31951H4.32616H4.33282H4.33948H4.34614H4.3528H4.35945H4.36611H4.37277H4.37943H4.38609H4.39275H4.3994H4.40606H4.41272H4.41938H4.42604H4.4327H4.43935H4.44601H4.45267H4.45933H4.46599H4.47264H4.4793H4.48596H4.49262H4.49928H4.50594H4.51259H4.51925H4.52591H4.53257H4.53923H4.54589H4.55254H4.5592H4.56586H4.57252H4.57918H4.58583H4.59249H4.59915H4.60581H4.61247H4.61913H4.62578H4.63244H4.6391H4.64576H4.65242H4.65908H4.66573H4.67239H4.67905H4.68571H4.69237H4.69902H4.70568H4.71234H4.719H4.72566H4.73232H4.73897H4.74563H4.75229H4.75895H4.76561H4.77226H4.77892H4.78558H4.79224H4.7989H4.80556H4.81221H4.81887H4.82553H4.83219H4.83885H4.84551H4.85216H4.85882H4.86548H4.87214H4.8788H4.88545H4.89211H4.89877H4.90543H4.91209H4.91875H4.9254H4.93206H4.93872H4.94538H4.95204H4.95869H4.96535H4.97201H4.97867H4.98533H4.99199H4.99864H5.0053H5.01196H5.01862H5.02528H5.03193H5.03859H5.04525H5.05191H5.05857H5.06523H5.07188H5.07854H5.0852H5.09186H5.09852H5.10517H5.11183H5.11849H5.12515H5.13181H5.13847H5.14512H5.15178H5.15844H5.1651H5.17176H5.17841H5.18507H5.19173H5.19839H5.20505H5.21171H5.31171V10.2739V10.2806V10.2873V10.2939V10.3006V10.3072V10.3139V10.3206V10.3272V10.3339V10.3405V10.3472V10.3538V10.3605V10.3672V10.3738V10.3805V10.3871V10.3938V10.4005V10.4071V10.4138V10.4204V10.4271V10.4337V10.4404V10.4471V10.4537V10.4604V10.467V10.4737V10.4804V10.487V10.4937V10.5003V10.507V10.5136V10.5203V10.527V10.5336V10.5403V10.5469V10.5536V10.5603V10.5669V10.5736V10.5802V10.5869V10.5935V10.6002V10.6069V10.6135V10.6202V10.6268V10.6335V10.6401V10.6468V10.6535V10.6601V10.6668V10.6734V10.6801V10.6868V10.6934V10.7001V10.7067V10.7134V10.72V10.7267V10.7334V10.74V10.7467V10.7533V10.76V10.7667V10.7733V10.78V10.7866V10.7933V10.7999V10.8066V10.8133V10.8199V10.8266V10.8332V10.8399V10.8466V10.8532V10.8599V10.8665V10.8732V10.8798V10.8865V10.8932V10.8998V10.9065V10.9131V10.9198V10.9265V10.9331V10.9398V10.9464V10.9531V10.9597V10.9664V10.9731V10.9797V10.9864V10.993V10.9997V11.0064V11.013V11.0197V11.0263V11.033V11.0396V11.0463V11.053V11.0596V11.0663V11.0729V11.0796V11.0862V11.0929V11.0996V11.1062V11.1129V11.1195V11.1262V11.1329V11.1395V11.1462V11.1528V11.1595V11.1661V11.1728V11.1795V11.1861V11.1928V11.1994V11.2061V11.2128V11.2194V11.2261V11.2327V11.2394V11.246V11.2527V11.2594V11.266V11.2727V11.2793V11.286V11.2927V11.2993V11.306V11.3126V11.3193V11.3259V11.3326V11.3393V11.3459V11.3526V11.3592V11.3659V11.3726V11.3792V11.3859V11.3925V11.3992V11.4058V11.4125V11.4192V11.4258V11.4325V11.4391V11.4458V11.4525V11.4591V11.4658V11.4724V11.4791V11.4857V11.4924V11.4991V11.5057V11.5124V11.519V11.5257V11.5324V11.539V11.5457V11.5523V11.559V11.5656V11.5723V11.579V11.5856V11.5923V11.5989V11.6056V11.6123V11.6189V11.6256V11.6322V11.6389V11.6455V11.6522V11.6589V11.6655V11.6722V11.6788V11.6855V11.6922V11.6988V11.7055V11.7121V11.7188V11.7254V11.7321V11.7388V11.7454V11.7521V11.7587V11.7654V11.7721V11.7787V11.7854V11.792V11.7987V11.8053V11.812V11.8187V11.8253V11.832V11.8386V11.8453V11.852V11.8586V11.8653V11.8719V11.8786V11.8852V11.8919V11.8986V11.9052V11.9119V11.9185V11.9252V11.9318V11.9385V11.9452V11.9518V11.9585V11.9651V11.9718V11.9785V11.9851V11.9918V11.9984V12.0051V12.0117V12.0184V12.0251V12.0317V12.0384V12.045V12.0517V12.0584V12.065V12.0717V12.0783V12.085V12.0916V12.0983V12.105V12.1116V12.1183V12.1249V12.1316V12.1383V12.1449V12.1516V12.1582V12.1649V12.1715V12.1782V12.1849V12.1915V12.1982V12.2048V12.2115V12.2182V12.2248V12.2315V12.2381V12.2448V12.2514V12.2581V12.2648V12.2714V12.2781V12.2847V12.2914V12.2981V12.3047V12.3114V12.318V12.3247V12.3313V12.338V12.3447V12.3513V12.358V12.3646V12.3713V12.378V12.3846V12.3913V12.3979V12.4046V12.4112V12.4179V12.4246V12.4312V12.4379V12.4445V12.4512V12.4579V12.4645V12.4712V12.4778V12.4845V12.4911V12.4978V12.5045V12.5111V12.5178V12.5244V12.5311V12.5378V12.5444V12.5511V12.5577V12.5644V12.571V12.5777V12.5844V12.591V12.5977V12.6043V12.611V12.6177V12.6243V12.631V12.6376V12.6443V12.6509V12.6576V12.6643V12.6709V12.6776V12.6842V12.6909V12.6976V12.7042V12.7109V12.7175V12.7242V12.7308V12.7375V12.7442V12.7508V12.7575V12.7641V12.7708V12.7774V12.7841V12.7908V12.7974V12.8041V12.8107V12.8174V12.8241V12.8307V12.8374V12.844V12.8507V12.8573V12.864V12.8707V12.8773V12.884V12.8906V12.8973V12.904V12.9106V12.9173V12.9239V12.9306V12.9372V12.9439V12.9506V12.9572V12.9639V12.9705V12.9772V12.9839V12.9905V12.9972V13.0038V13.0105V13.0171V13.0238V13.0305V13.0371V13.0438V13.0504V13.0571V13.0638V13.0704V13.0771V13.0837V13.0904V13.097V13.1037V13.1104V13.117V13.1237V13.1303V13.137V13.1437V13.1503V13.157V13.1636V13.1703V13.1769V13.1836V13.1903V13.1969V13.2036V13.2102V13.2169V13.2236V13.2302V13.2369V13.2435V13.2502V13.2568V13.2635V13.2702V13.2768V13.2835V13.2901V13.2968V13.3034V13.3101V13.3168V13.3234V13.3301V13.3367V13.3434V13.3501V13.3567V13.3634V13.37V13.3767V13.3833V13.39V13.3967V13.4033V13.41V13.4166V13.4233V13.43V13.4366V13.4433V13.4499V13.4566V13.4632V13.4699V13.4766V13.4832V13.4899V13.4965V13.5032V13.5099V13.5165V13.5232V13.5298V13.5365V13.5431V13.5498V13.5565V13.5631V13.5698V13.5764V13.5831V13.5898V13.5964V13.6031V13.6097V13.6164V13.623V13.6297V13.6364V13.643V13.6497V13.6563V13.663V13.6696V13.6763V13.683V13.783H5.21171H5.20505H5.19839H5.19173H5.18507H5.17841H5.17176H5.1651H5.15844H5.15178H5.14512H5.13847H5.13181H5.12515H5.11849H5.11183H5.10517H5.09852H5.09186H5.0852H5.07854H5.07188H5.06523H5.05857H5.05191H5.04525H5.03859H5.03193H5.02528H5.01862H5.01196H5.0053H4.99864H4.99199H4.98533H4.97867H4.97201H4.96535H4.95869H4.95204H4.94538H4.93872H4.93206H4.9254H4.91875H4.91209H4.90543H4.89877H4.89211H4.88545H4.8788H4.87214H4.86548H4.85882H4.85216H4.84551H4.83885H4.83219H4.82553H4.81887H4.81221H4.80556H4.7989H4.79224H4.78558H4.77892H4.77226H4.76561H4.75895H4.75229H4.74563H4.73897H4.73232H4.72566H4.719H4.71234H4.70568H4.69902H4.69237H4.68571H4.67905H4.67239H4.66573H4.65908H4.65242H4.64576H4.6391H4.63244H4.62578H4.61913H4.61247H4.60581H4.59915H4.59249H4.58583H4.57918H4.57252H4.56586H4.5592H4.55254H4.54589H4.53923H4.53257H4.52591H4.51925H4.51259H4.50594H4.49928H4.49262H4.48596H4.4793H4.47264H4.46599H4.45933H4.45267H4.44601H4.43935H4.4327H4.42604H4.41938H4.41272H4.40606H4.3994H4.39275H4.38609H4.37943H4.37277H4.36611H4.35945H4.3528H4.34614H4.33948H4.33282H4.32616H4.31951H4.31285H4.30619H4.29953H4.29287H4.28621H4.27956H4.2729H4.26624H4.25958H4.25292H4.24626H4.23961H4.23295H4.22629H4.21963H4.21297H4.20631H4.19966H4.193H4.18634H4.17968H4.17302H4.16637H4.15971H4.15305H4.14639H4.13973H4.13307H4.12642H4.11976H4.1131H4.10644H4.09978H4.09312H4.08647H4.07981H4.07315H4.06649H4.05983H4.05317H4.04652H4.03986H4.0332H4.02654H4.01988H4.01323H4.00657H3.99991H3.99325H3.98659H3.97993H3.97328H3.96662H3.95996H3.9533H3.94664H3.93998H3.93333H3.92667H3.92001H3.91335H3.90669H3.90003H3.89338H3.88672H3.88006H3.8734H3.86674H3.86009H3.85343H3.84677H3.84011H3.83345H3.82679H3.82014H3.81348H3.80682H3.80016H3.7935H3.78684H3.78019H3.77353H3.76687H3.76021H3.75355H3.74689H3.74024H3.73358H3.72692H3.72026H3.7136H3.70694H3.70029H3.69363H3.68697H3.68031H3.67365H3.667H3.66034H3.65368H3.64702H3.64036H3.6337H3.62705H3.62039H3.61373H3.60707H3.60041H3.59375H3.5871H3.58044H3.57378H3.56712H3.56046H3.5538H3.54715H3.54049H3.53383H3.52717H3.52051H3.51385H3.5072H3.50054H3.49388H3.48722H3.48056H3.47391H3.46725H3.46059H3.45393H3.44727H3.44061H3.43396H3.4273H3.42064H3.41398H3.40732H3.40066H3.39401H3.38735H3.38069H3.37403H3.36737H3.36071H3.35406H3.3474H3.34074H3.33408H3.32742H3.32076H3.31411H3.30745H3.30079H3.29413H3.28747H3.28082H3.27416H3.2675H3.26084H3.25418H3.24752H3.24087H3.23421H3.22755H3.22089H3.21423H3.20757H3.20092H3.19426H3.1876H3.18094H3.17428H3.16762H3.16097H3.15431H3.14765H3.14099H3.13433H3.12767H3.12102H3.11436H3.1077H3.10104H3.09438H3.08773H3.08107H3.07441H3.06775H3.06109H3.05443H3.04778H3.04112H3.03446H3.0278H3.02114H3.01448H3.00783H3.00117H2.99451H2.98785H2.98119H2.97453H2.96788H2.96122H2.95456H2.9479H2.94124H2.93459H2.92793H2.92127H2.91461H2.90795H2.90129H2.89464H2.88798H2.88132H2.87466H2.868H2.86134H2.85469H2.84803H2.84137H2.83471H2.82805H2.82139H2.81474H2.80808H2.80142H2.79476H2.7881H2.78145H2.77479H2.76813H2.76147H2.75481H2.74815H2.7415H2.73484H2.72818H2.72152H2.71486H2.7082H2.70155H2.69489H2.68823H2.68157H2.67491H2.66825H2.6616H2.65494H2.64828H2.64162H2.63496H2.62831H2.62165H2.61499H2.60833H2.60167H2.59501H2.58836H2.5817H2.57504H2.56838H2.56172H2.55506H2.54841H2.54175H2.53509H2.52843H2.52177H2.51512H2.50846H2.5018H2.49514H2.48848H2.48182H2.47517H2.46851H2.46185H2.45519H2.44853H2.44187H2.43522H2.42856H2.4219H2.41524H2.40858H2.40193H2.39527H2.38861H2.38195H2.37529H2.36863H2.36198H2.35532H2.34866H2.342H2.33534H2.32868H2.32203H2.31537H2.30871H2.30205H2.29539H2.28874H2.28208H2.27542H2.26876H2.2621H2.25544H2.24879H2.24213H2.23547H2.22881H2.22215H2.2155H2.20884H2.20218H2.19552H2.18886H2.1822H2.17555H2.16889H2.16223H2.15557H2.14891H2.14225H2.1356H2.12894H2.12228H2.11562H2.10896H2.10231H2.09565H2.08899H2.08233H2.07567H2.06901H2.06236H2.0557H2.04904H2.04238H2.03572H2.02907H2.02241H2.01575H2.00909H2.00243H1.99577H1.98912H1.98246H1.9758H1.96914H1.96248H1.95583H1.94917H1.94251H1.93585H1.92919H1.92253H1.91588H1.90922H1.90256H1.8959H1.88924H1.88259H1.87593H1.86927H1.86261H1.85595H1.84929H1.84264H1.83598H1.82932H1.82266H1.816H1.80935H1.80269H1.70269V13.683V10.1739ZM1.70269 10.1739V10.2739M1.70269 10.1739V10.2739M1.70269 10.2739V10.2806M1.70269 10.2739V10.2806M1.70269 10.2806V10.2873M1.70269 10.2806V10.2873M1.70269 10.2873V10.2939M1.70269 10.2873V10.2939M1.70269 10.2939V10.3006M1.70269 10.2939V10.3006M1.70269 10.3006V10.3072M1.70269 10.3006V10.3072M1.70269 10.3072V10.3139M1.70269 10.3072V10.3139M1.70269 10.3139V10.3206M1.70269 10.3139V10.3206M1.70269 10.3206V10.3272M1.70269 10.3206V10.3272M1.70269 10.3272V10.3339M1.70269 10.3272V10.3339M1.70269 10.3339V10.3405M1.70269 10.3339V10.3405M1.70269 10.3405V10.3472M1.70269 10.3405V10.3472M1.70269 10.3472V10.3538M1.70269 10.3472V10.3538M1.70269 10.3538V10.3605M1.70269 10.3538V10.3605M1.70269 10.3605V10.3672M1.70269 10.3605V10.3672M1.70269 10.3672V10.3738M1.70269 10.3672V10.3738M1.70269 10.3738V10.3805M1.70269 10.3738V10.3805M1.70269 10.3805V10.3871M1.70269 10.3805V10.3871M1.70269 10.3871V10.3938M1.70269 10.3871V10.3938M1.70269 10.3938V10.4005M1.70269 10.3938V10.4005M1.70269 10.4005V10.4071M1.70269 10.4005V10.4071M1.70269 10.4071V10.4138M1.70269 10.4071V10.4138M1.70269 10.4138V10.4204M1.70269 10.4138V10.4204M1.70269 10.4204V10.4271M1.70269 10.4204V10.4271M1.70269 10.4271V10.4337M1.70269 10.4271V10.4337M1.70269 10.4337V10.4404M1.70269 10.4337V10.4404M1.70269 10.4404V10.4471M1.70269 10.4404V10.4471M1.70269 10.4471V10.4537M1.70269 10.4471V10.4537M1.70269 10.4537V10.4604M1.70269 10.4537V10.4604M1.70269 10.4604V10.467M1.70269 10.4604V10.467M1.70269 10.467V10.4737M1.70269 10.467V10.4737M1.70269 10.4737V10.4804M1.70269 10.4737V10.4804M1.70269 10.4804V10.487M1.70269 10.4804V10.487M1.70269 10.487V10.4937M1.70269 10.487V10.4937M1.70269 10.4937V10.5003M1.70269 10.4937V10.5003M1.70269 10.5003V10.507M1.70269 10.5003V10.507M1.70269 10.507V10.5136M1.70269 10.507V10.5136M1.70269 10.5136V10.5203M1.70269 10.5136V10.5203M1.70269 10.5203V10.527M1.70269 10.5203V10.527M1.70269 10.527V10.5336M1.70269 10.527V10.5336M1.70269 10.5336V10.5403M1.70269 10.5336V10.5403M1.70269 10.5403V10.5469M1.70269 10.5403V10.5469M1.70269 10.5469V10.5536M1.70269 10.5469V10.5536M1.70269 10.5536V10.5603M1.70269 10.5536V10.5603M1.70269 10.5603V10.5669M1.70269 10.5603V10.5669M1.70269 10.5669V10.5736M1.70269 10.5669V10.5736M1.70269 10.5736V10.5802M1.70269 10.5736V10.5802M1.70269 10.5802V10.5869M1.70269 10.5802V10.5869M1.70269 10.5869V10.5935M1.70269 10.5869V10.5935M1.70269 10.5935V10.6002M1.70269 10.5935V10.6002M1.70269 10.6002V10.6069M1.70269 10.6002V10.6069M1.70269 10.6069V10.6135M1.70269 10.6069V10.6135M1.70269 10.6135V10.6202M1.70269 10.6135V10.6202M1.70269 10.6202V10.6268M1.70269 10.6202V10.6268M1.70269 10.6268V10.6335M1.70269 10.6268V10.6335M1.70269 10.6335V10.6401M1.70269 10.6335V10.6401M1.70269 10.6401V10.6468M1.70269 10.6401V10.6468M1.70269 10.6468V10.6535M1.70269 10.6468V10.6535M1.70269 10.6535V10.6601M1.70269 10.6535V10.6601M1.70269 10.6601V10.6668M1.70269 10.6601V10.6668M1.70269 10.6668V10.6734M1.70269 10.6668V10.6734M1.70269 10.6734V10.6801M1.70269 10.6734V10.6801M1.70269 10.6801V10.6868M1.70269 10.6801V10.6868M1.70269 10.6868V10.6934M1.70269 10.6868V10.6934M1.70269 10.6934V10.7001M1.70269 10.6934V10.7001M1.70269 10.7001V10.7067M1.70269 10.7001V10.7067M1.70269 10.7067V10.7134M1.70269 10.7067V10.7134M1.70269 10.7134V10.72M1.70269 10.7134V10.72M1.70269 10.72V10.7267M1.70269 10.72V10.7267M1.70269 10.7267V10.7334M1.70269 10.7267V10.7334M1.70269 10.7334V10.74M1.70269 10.7334V10.74M1.70269 10.74V10.7467M1.70269 10.74V10.7467M1.70269 10.7467V10.7533M1.70269 10.7467V10.7533M1.70269 10.7533V10.76M1.70269 10.7533V10.76M1.70269 10.76V10.7667M1.70269 10.76V10.7667M1.70269 10.7667V10.7733M1.70269 10.7667V10.7733M1.70269 10.7733V10.78M1.70269 10.7733V10.78M1.70269 10.78V10.7866M1.70269 10.78V10.7866M1.70269 10.7866V10.7933M1.70269 10.7866V10.7933M1.70269 10.7933V10.7999M1.70269 10.7933V10.7999M1.70269 10.7999V10.8066M1.70269 10.7999V10.8066M1.70269 10.8066V10.8133M1.70269 10.8066V10.8133M1.70269 10.8133V10.8199M1.70269 10.8133V10.8199M1.70269 10.8199V10.8266M1.70269 10.8199V10.8266M1.70269 10.8266V10.8332M1.70269 10.8266V10.8332M1.70269 10.8332V10.8399M1.70269 10.8332V10.8399M1.70269 10.8399V10.8466M1.70269 10.8399V10.8466M1.70269 10.8466V10.8532M1.70269 10.8466V10.8532M1.70269 10.8532V10.8599M1.70269 10.8532V10.8599M1.70269 10.8599V10.8665M1.70269 10.8599V10.8665M1.70269 10.8665V10.8732M1.70269 10.8665V10.8732M1.70269 10.8732V10.8798M1.70269 10.8732V10.8798M1.70269 10.8798V10.8865M1.70269 10.8798V10.8865M1.70269 10.8865V10.8932M1.70269 10.8865V10.8932M1.70269 10.8932V10.8998M1.70269 10.8932V10.8998M1.70269 10.8998V10.9065M1.70269 10.8998V10.9065M1.70269 10.9065V10.9131M1.70269 10.9065V10.9131M1.70269 10.9131V10.9198M1.70269 10.9131V10.9198M1.70269 10.9198V10.9265M1.70269 10.9198V10.9265M1.70269 10.9265V10.9331M1.70269 10.9265V10.9331M1.70269 10.9331V10.9398M1.70269 10.9331V10.9398M1.70269 10.9398V10.9464M1.70269 10.9398V10.9464M1.70269 10.9464V10.9531M1.70269 10.9464V10.9531M1.70269 10.9531V10.9597M1.70269 10.9531V10.9597M1.70269 10.9597V10.9664M1.70269 10.9597V10.9664M1.70269 10.9664V10.9731M1.70269 10.9664V10.9731M1.70269 10.9731V10.9797M1.70269 10.9731V10.9797M1.70269 10.9797V10.9864M1.70269 10.9797V10.9864M1.70269 10.9864V10.993M1.70269 10.9864V10.993M1.70269 10.993V10.9997M1.70269 10.993V10.9997M1.70269 10.9997V11.0064M1.70269 10.9997V11.0064M1.70269 11.0064V11.013M1.70269 11.0064V11.013M1.70269 11.013V11.0197M1.70269 11.013V11.0197M1.70269 11.0197V11.0263M1.70269 11.0197V11.0263M1.70269 11.0263V11.033M1.70269 11.0263V11.033M1.70269 11.033V11.0396M1.70269 11.033V11.0396M1.70269 11.0396V11.0463M1.70269 11.0396V11.0463M1.70269 11.0463V11.053M1.70269 11.0463V11.053M1.70269 11.053V11.0596M1.70269 11.053V11.0596M1.70269 11.0596V11.0663M1.70269 11.0596V11.0663M1.70269 11.0663V11.0729M1.70269 11.0663V11.0729M1.70269 11.0729V11.0796M1.70269 11.0729V11.0796M1.70269 11.0796V11.0862M1.70269 11.0796V11.0862M1.70269 11.0862V11.0929M1.70269 11.0862V11.0929M1.70269 11.0929V11.0996M1.70269 11.0929V11.0996M1.70269 11.0996V11.1062M1.70269 11.0996V11.1062M1.70269 11.1062V11.1129M1.70269 11.1062V11.1129M1.70269 11.1129V11.1195M1.70269 11.1129V11.1195M1.70269 11.1195V11.1262M1.70269 11.1195V11.1262M1.70269 11.1262V11.1329M1.70269 11.1262V11.1329M1.70269 11.1329V11.1395M1.70269 11.1329V11.1395M1.70269 11.1395V11.1462M1.70269 11.1395V11.1462M1.70269 11.1462V11.1528M1.70269 11.1462V11.1528M1.70269 11.1528V11.1595M1.70269 11.1528V11.1595M1.70269 11.1595V11.1661M1.70269 11.1595V11.1661M1.70269 11.1661V11.1728M1.70269 11.1661V11.1728M1.70269 11.1728V11.1795M1.70269 11.1728V11.1795M1.70269 11.1795V11.1861M1.70269 11.1795V11.1861M1.70269 11.1861V11.1928M1.70269 11.1861V11.1928M1.70269 11.1928V11.1994M1.70269 11.1928V11.1994M1.70269 11.1994V11.2061M1.70269 11.1994V11.2061M1.70269 11.2061V11.2128M1.70269 11.2061V11.2128M1.70269 11.2128V11.2194M1.70269 11.2128V11.2194M1.70269 11.2194V11.2261M1.70269 11.2194V11.2261M1.70269 11.2261V11.2327M1.70269 11.2261V11.2327M1.70269 11.2327V11.2394M1.70269 11.2327V11.2394M1.70269 11.2394V11.246M1.70269 11.2394V11.246M1.70269 11.246V11.2527M1.70269 11.246V11.2527M1.70269 11.2527V11.2594M1.70269 11.2527V11.2594M1.70269 11.2594V11.266M1.70269 11.2594V11.266M1.70269 11.266V11.2727M1.70269 11.266V11.2727M1.70269 11.2727V11.2793M1.70269 11.2727V11.2793M1.70269 11.2793V11.286M1.70269 11.2793V11.286M1.70269 11.286V11.2927M1.70269 11.286V11.2927M1.70269 11.2927V11.2993M1.70269 11.2927V11.2993M1.70269 11.2993V11.306M1.70269 11.2993V11.306M1.70269 11.306V11.3126M1.70269 11.306V11.3126M1.70269 11.3126V11.3193M1.70269 11.3126V11.3193M1.70269 11.3193V11.3259M1.70269 11.3193V11.3259M1.70269 11.3259V11.3326M1.70269 11.3259V11.3326M1.70269 11.3326V11.3393M1.70269 11.3326V11.3393M1.70269 11.3393V11.3459M1.70269 11.3393V11.3459M1.70269 11.3459V11.3526M1.70269 11.3459V11.3526M1.70269 11.3526V11.3592M1.70269 11.3526V11.3592M1.70269 11.3592V11.3659M1.70269 11.3592V11.3659M1.70269 11.3659V11.3726M1.70269 11.3659V11.3726M1.70269 11.3726V11.3792M1.70269 11.3726V11.3792M1.70269 11.3792V11.3859M1.70269 11.3792V11.3859M1.70269 11.3859V11.3925M1.70269 11.3859V11.3925M1.70269 11.3925V11.3992M1.70269 11.3925V11.3992M1.70269 11.3992V11.4058M1.70269 11.3992V11.4058M1.70269 11.4058V11.4125M1.70269 11.4058V11.4125M1.70269 11.4125V11.4192M1.70269 11.4125V11.4192M1.70269 11.4192V11.4258M1.70269 11.4192V11.4258M1.70269 11.4258V11.4325M1.70269 11.4258V11.4325M1.70269 11.4325V11.4391M1.70269 11.4325V11.4391M1.70269 11.4391V11.4458M1.70269 11.4391V11.4458M1.70269 11.4458V11.4525M1.70269 11.4458V11.4525M1.70269 11.4525V11.4591M1.70269 11.4525V11.4591M1.70269 11.4591V11.4658M1.70269 11.4591V11.4658M1.70269 11.4658V11.4724M1.70269 11.4658V11.4724M1.70269 11.4724V11.4791M1.70269 11.4724V11.4791M1.70269 11.4791V11.4857M1.70269 11.4791V11.4857M1.70269 11.4857V11.4924M1.70269 11.4857V11.4924M1.70269 11.4924V11.4991M1.70269 11.4924V11.4991M1.70269 11.4991V11.5057M1.70269 11.4991V11.5057M1.70269 11.5057V11.5124M1.70269 11.5057V11.5124M1.70269 11.5124V11.519M1.70269 11.5124V11.519M1.70269 11.519V11.5257M1.70269 11.519V11.5257M1.70269 11.5257V11.5324M1.70269 11.5257V11.5324M1.70269 11.5324V11.539M1.70269 11.5324V11.539M1.70269 11.539V11.5457M1.70269 11.539V11.5457M1.70269 11.5457V11.5523M1.70269 11.5457V11.5523M1.70269 11.5523V11.559M1.70269 11.5523V11.559M1.70269 11.559V11.5656M1.70269 11.559V11.5656M1.70269 11.5656V11.5723M1.70269 11.5656V11.5723M1.70269 11.5723V11.579M1.70269 11.5723V11.579M1.70269 11.579V11.5856M1.70269 11.579V11.5856M1.70269 11.5856V11.5923M1.70269 11.5856V11.5923M1.70269 11.5923V11.5989M1.70269 11.5923V11.5989M1.70269 11.5989V11.6056M1.70269 11.5989V11.6056M1.70269 11.6056V11.6123M1.70269 11.6056V11.6123M1.70269 11.6123V11.6189M1.70269 11.6123V11.6189M1.70269 11.6189V11.6256M1.70269 11.6189V11.6256M1.70269 11.6256V11.6322M1.70269 11.6256V11.6322M1.70269 11.6322V11.6389M1.70269 11.6322V11.6389M1.70269 11.6389V11.6455M1.70269 11.6389V11.6455M1.70269 11.6455V11.6522M1.70269 11.6455V11.6522M1.70269 11.6522V11.6589M1.70269 11.6522V11.6589M1.70269 11.6589V11.6655M1.70269 11.6589V11.6655M1.70269 11.6655V11.6722M1.70269 11.6655V11.6722M1.70269 11.6722V11.6788M1.70269 11.6722V11.6788M1.70269 11.6788V11.6855M1.70269 11.6788V11.6855M1.70269 11.6855V11.6922M1.70269 11.6855V11.6922M1.70269 11.6922V11.6988M1.70269 11.6922V11.6988M1.70269 11.6988V11.7055M1.70269 11.6988V11.7055M1.70269 11.7055V11.7121M1.70269 11.7055V11.7121M1.70269 11.7121V11.7188M1.70269 11.7121V11.7188M1.70269 11.7188V11.7254M1.70269 11.7188V11.7254M1.70269 11.7254V11.7321M1.70269 11.7254V11.7321M1.70269 11.7321V11.7388M1.70269 11.7321V11.7388M1.70269 11.7388V11.7454M1.70269 11.7388V11.7454M1.70269 11.7454V11.7521M1.70269 11.7454V11.7521M1.70269 11.7521V11.7587M1.70269 11.7521V11.7587M1.70269 11.7587V11.7654M1.70269 11.7587V11.7654M1.70269 11.7654V11.7721M1.70269 11.7654V11.7721M1.70269 11.7721V11.7787M1.70269 11.7721V11.7787M1.70269 11.7787V11.7854M1.70269 11.7787V11.7854M1.70269 11.7854V11.792M1.70269 11.7854V11.792M1.70269 11.792V11.7987M1.70269 11.792V11.7987M1.70269 11.7987V11.8053M1.70269 11.7987V11.8053M1.70269 11.8053V11.812M1.70269 11.8053V11.812M1.70269 11.812V11.8187M1.70269 11.812V11.8187M1.70269 11.8187V11.8253M1.70269 11.8187V11.8253M1.70269 11.8253V11.832M1.70269 11.8253V11.832M1.70269 11.832V11.8386M1.70269 11.832V11.8386M1.70269 11.8386V11.8453M1.70269 11.8386V11.8453M1.70269 11.8453V11.852M1.70269 11.8453V11.852M1.70269 11.852V11.8586M1.70269 11.852V11.8586M1.70269 11.8586V11.8653M1.70269 11.8586V11.8653M1.70269 11.8653V11.8719M1.70269 11.8653V11.8719M1.70269 11.8719V11.8786M1.70269 11.8719V11.8786M1.70269 11.8786V11.8852M1.70269 11.8786V11.8852M1.70269 11.8852V11.8919M1.70269 11.8852V11.8919M1.70269 11.8919V11.8986M1.70269 11.8919V11.8986M1.70269 11.8986V11.9052M1.70269 11.8986V11.9052M1.70269 11.9052V11.9119M1.70269 11.9052V11.9119M1.70269 11.9119V11.9185M1.70269 11.9119V11.9185M1.70269 11.9185V11.9252M1.70269 11.9185V11.9252M1.70269 11.9252V11.9318M1.70269 11.9252V11.9318M1.70269 11.9318V11.9385M1.70269 11.9318V11.9385M1.70269 11.9385V11.9452M1.70269 11.9385V11.9452M1.70269 11.9452V11.9518M1.70269 11.9452V11.9518M1.70269 11.9518V11.9585M1.70269 11.9518V11.9585M1.70269 11.9585V11.9651M1.70269 11.9585V11.9651M1.70269 11.9651V11.9718M1.70269 11.9651V11.9718M1.70269 11.9718V11.9785M1.70269 11.9718V11.9785M1.70269 11.9785V11.9851M1.70269 11.9785V11.9851M1.70269 11.9851V11.9918M1.70269 11.9851V11.9918M1.70269 11.9918V11.9984M1.70269 11.9918V11.9984M1.70269 11.9984V12.0051M1.70269 11.9984V12.0051M1.70269 12.0051V12.0117M1.70269 12.0051V12.0117M1.70269 12.0117V12.0184M1.70269 12.0117V12.0184M1.70269 12.0184V12.0251M1.70269 12.0184V12.0251M1.70269 12.0251V12.0317M1.70269 12.0251V12.0317M1.70269 12.0317V12.0384M1.70269 12.0317V12.0384M1.70269 12.0384V12.045M1.70269 12.0384V12.045M1.70269 12.045V12.0517M1.70269 12.045V12.0517M1.70269 12.0517V12.0584M1.70269 12.0517V12.0584M1.70269 12.0584V12.065M1.70269 12.0584V12.065M1.70269 12.065V12.0717M1.70269 12.065V12.0717M1.70269 12.0717V12.0783M1.70269 12.0717V12.0783M1.70269 12.0783V12.085M1.70269 12.0783V12.085M1.70269 12.085V12.0916M1.70269 12.085V12.0916M1.70269 12.0916V12.0983M1.70269 12.0916V12.0983M1.70269 12.0983V12.105M1.70269 12.0983V12.105M1.70269 12.105V12.1116M1.70269 12.105V12.1116M1.70269 12.1116V12.1183M1.70269 12.1116V12.1183M1.70269 12.1183V12.1249M1.70269 12.1183V12.1249M1.70269 12.1249V12.1316M1.70269 12.1249V12.1316M1.70269 12.1316V12.1383M1.70269 12.1316V12.1383M1.70269 12.1383V12.1449M1.70269 12.1383V12.1449M1.70269 12.1449V12.1516M1.70269 12.1449V12.1516M1.70269 12.1516V12.1582M1.70269 12.1516V12.1582M1.70269 12.1582V12.1649M1.70269 12.1582V12.1649M1.70269 12.1649V12.1715M1.70269 12.1649V12.1715M1.70269 12.1715V12.1782M1.70269 12.1715V12.1782M1.70269 12.1782V12.1849M1.70269 12.1782V12.1849M1.70269 12.1849V12.1915M1.70269 12.1849V12.1915M1.70269 12.1915V12.1982M1.70269 12.1915V12.1982M1.70269 12.1982V12.2048M1.70269 12.1982V12.2048M1.70269 12.2048V12.2115M1.70269 12.2048V12.2115M1.70269 12.2115V12.2182M1.70269 12.2115V12.2182M1.70269 12.2182V12.2248M1.70269 12.2182V12.2248M1.70269 12.2248V12.2315M1.70269 12.2248V12.2315M1.70269 12.2315V12.2381M1.70269 12.2315V12.2381M1.70269 12.2381V12.2448M1.70269 12.2381V12.2448M1.70269 12.2448V12.2514M1.70269 12.2448V12.2514M1.70269 12.2514V12.2581M1.70269 12.2514V12.2581M1.70269 12.2581V12.2648M1.70269 12.2581V12.2648M1.70269 12.2648V12.2714M1.70269 12.2648V12.2714M1.70269 12.2714V12.2781M1.70269 12.2714V12.2781M1.70269 12.2781V12.2847M1.70269 12.2781V12.2847M1.70269 12.2847V12.2914M1.70269 12.2847V12.2914M1.70269 12.2914V12.2981M1.70269 12.2914V12.2981M1.70269 12.2981V12.3047M1.70269 12.2981V12.3047M1.70269 12.3047V12.3114M1.70269 12.3047V12.3114M1.70269 12.3114V12.318M1.70269 12.3114V12.318M1.70269 12.318V12.3247M1.70269 12.318V12.3247M1.70269 12.3247V12.3313M1.70269 12.3247V12.3313M1.70269 12.3313V12.338M1.70269 12.3313V12.338M1.70269 12.338V12.3447M1.70269 12.338V12.3447M1.70269 12.3447V12.3513M1.70269 12.3447V12.3513M1.70269 12.3513V12.358M1.70269 12.3513V12.358M1.70269 12.358V12.3646M1.70269 12.358V12.3646M1.70269 12.3646V12.3713M1.70269 12.3646V12.3713M1.70269 12.3713V12.378M1.70269 12.3713V12.378M1.70269 12.378V12.3846M1.70269 12.378V12.3846M1.70269 12.3846V12.3913M1.70269 12.3846V12.3913M1.70269 12.3913V12.3979M1.70269 12.3913V12.3979M1.70269 12.3979V12.4046M1.70269 12.3979V12.4046M1.70269 12.4046V12.4112M1.70269 12.4046V12.4112M1.70269 12.4112V12.4179M1.70269 12.4112V12.4179M1.70269 12.4179V12.4246M1.70269 12.4179V12.4246M1.70269 12.4246V12.4312M1.70269 12.4246V12.4312M1.70269 12.4312V12.4379M1.70269 12.4312V12.4379M1.70269 12.4379V12.4445M1.70269 12.4379V12.4445M1.70269 12.4445V12.4512M1.70269 12.4445V12.4512M1.70269 12.4512V12.4579M1.70269 12.4512V12.4579M1.70269 12.4579V12.4645M1.70269 12.4579V12.4645M1.70269 12.4645V12.4712M1.70269 12.4645V12.4712M1.70269 12.4712V12.4778M1.70269 12.4712V12.4778M1.70269 12.4778V12.4845M1.70269 12.4778V12.4845M1.70269 12.4845V12.4911M1.70269 12.4845V12.4911M1.70269 12.4911V12.4978M1.70269 12.4911V12.4978M1.70269 12.4978V12.5045M1.70269 12.4978V12.5045M1.70269 12.5045V12.5111M1.70269 12.5045V12.5111M1.70269 12.5111V12.5178M1.70269 12.5111V12.5178M1.70269 12.5178V12.5244M1.70269 12.5178V12.5244M1.70269 12.5244V12.5311M1.70269 12.5244V12.5311M1.70269 12.5311V12.5378M1.70269 12.5311V12.5378M1.70269 12.5378V12.5444M1.70269 12.5378V12.5444M1.70269 12.5444V12.5511M1.70269 12.5444V12.5511M1.70269 12.5511V12.5577M1.70269 12.5511V12.5577M1.70269 12.5577V12.5644M1.70269 12.5577V12.5644M1.70269 12.5644V12.571M1.70269 12.5644V12.571M1.70269 12.571V12.5777M1.70269 12.571V12.5777M1.70269 12.5777V12.5844M1.70269 12.5777V12.5844M1.70269 12.5844V12.591M1.70269 12.5844V12.591M1.70269 12.591V12.5977M1.70269 12.591V12.5977M1.70269 12.5977V12.6043M1.70269 12.5977V12.6043M1.70269 12.6043V12.611M1.70269 12.6043V12.611M1.70269 12.611V12.6177M1.70269 12.611V12.6177M1.70269 12.6177V12.6243M1.70269 12.6177V12.6243M1.70269 12.6243V12.631M1.70269 12.6243V12.631M1.70269 12.631V12.6376M1.70269 12.631V12.6376M1.70269 12.6376V12.6443M1.70269 12.6376V12.6443M1.70269 12.6443V12.6509M1.70269 12.6443V12.6509M1.70269 12.6509V12.6576M1.70269 12.6509V12.6576M1.70269 12.6576V12.6643M1.70269 12.6576V12.6643M1.70269 12.6643V12.6709M1.70269 12.6643V12.6709M1.70269 12.6709V12.6776M1.70269 12.6709V12.6776M1.70269 12.6776V12.6842M1.70269 12.6776V12.6842M1.70269 12.6842V12.6909M1.70269 12.6842V12.6909M1.70269 12.6909V12.6976M1.70269 12.6909V12.6976M1.70269 12.6976V12.7042M1.70269 12.6976V12.7042M1.70269 12.7042V12.7109M1.70269 12.7042V12.7109M1.70269 12.7109V12.7175M1.70269 12.7109V12.7175M1.70269 12.7175V12.7242M1.70269 12.7175V12.7242M1.70269 12.7242V12.7308M1.70269 12.7242V12.7308M1.70269 12.7308V12.7375M1.70269 12.7308V12.7375M1.70269 12.7375V12.7442M1.70269 12.7375V12.7442M1.70269 12.7442V12.7508M1.70269 12.7442V12.7508M1.70269 12.7508V12.7575M1.70269 12.7508V12.7575M1.70269 12.7575V12.7641M1.70269 12.7575V12.7641M1.70269 12.7641V12.7708M1.70269 12.7641V12.7708M1.70269 12.7708V12.7774M1.70269 12.7708V12.7774M1.70269 12.7774V12.7841M1.70269 12.7774V12.7841M1.70269 12.7841V12.7908M1.70269 12.7841V12.7908M1.70269 12.7908V12.7974M1.70269 12.7908V12.7974M1.70269 12.7974V12.8041M1.70269 12.7974V12.8041M1.70269 12.8041V12.8107M1.70269 12.8041V12.8107M1.70269 12.8107V12.8174M1.70269 12.8107V12.8174M1.70269 12.8174V12.8241M1.70269 12.8174V12.8241M1.70269 12.8241V12.8307M1.70269 12.8241V12.8307M1.70269 12.8307V12.8374M1.70269 12.8307V12.8374M1.70269 12.8374V12.844M1.70269 12.8374V12.844M1.70269 12.844V12.8507M1.70269 12.844V12.8507M1.70269 12.8507V12.8573M1.70269 12.8507V12.8573M1.70269 12.8573V12.864M1.70269 12.8573V12.864M1.70269 12.864V12.8707M1.70269 12.864V12.8707M1.70269 12.8707V12.8773M1.70269 12.8707V12.8773M1.70269 12.8773V12.884M1.70269 12.8773V12.884M1.70269 12.884V12.8906M1.70269 12.884V12.8906M1.70269 12.8906V12.8973M1.70269 12.8906V12.8973M1.70269 12.8973V12.904M1.70269 12.8973V12.904M1.70269 12.904V12.9106M1.70269 12.904V12.9106M1.70269 12.9106V12.9173M1.70269 12.9106V12.9173M1.70269 12.9173V12.9239M1.70269 12.9173V12.9239M1.70269 12.9239V12.9306M1.70269 12.9239V12.9306M1.70269 12.9306V12.9372M1.70269 12.9306V12.9372M1.70269 12.9372V12.9439M1.70269 12.9372V12.9439M1.70269 12.9439V12.9506M1.70269 12.9439V12.9506M1.70269 12.9506V12.9572M1.70269 12.9506V12.9572M1.70269 12.9572V12.9639M1.70269 12.9572V12.9639M1.70269 12.9639V12.9705M1.70269 12.9639V12.9705M1.70269 12.9705V12.9772M1.70269 12.9705V12.9772M1.70269 12.9772V12.9839M1.70269 12.9772V12.9839M1.70269 12.9839V12.9905M1.70269 12.9839V12.9905M1.70269 12.9905V12.9972M1.70269 12.9905V12.9972M1.70269 12.9972V13.0038M1.70269 12.9972V13.0038M1.70269 13.0038V13.0105M1.70269 13.0038V13.0105M1.70269 13.0105V13.0171M1.70269 13.0105V13.0171M1.70269 13.0171V13.0238M1.70269 13.0171V13.0238M1.70269 13.0238V13.0305M1.70269 13.0238V13.0305M1.70269 13.0305V13.0371V13.0305ZM1.49409 8.64933C2.83625 8.64275 4.17837 8.64941 5.52042 8.66927C6.05656 8.79454 6.44912 9.1005 6.70416 9.59234C6.74883 9.7147 6.78625 9.83915 6.81644 9.96575C6.84289 11.3078 6.84289 12.6498 6.81643 13.9918C6.7396 14.333 6.59925 14.6082 6.39818 14.8217C6.19769 15.0345 5.93237 15.1907 5.59776 15.2877C4.20332 15.3142 2.80887 15.3141 1.41442 15.2877C1.0832 15.2072 0.820024 15.0655 0.620083 14.8656C0.420143 14.6656 0.27843 14.4025 0.197954 14.0712C0.171532 12.6769 0.171515 11.2826 0.197903 9.88835C0.3974 9.22322 0.826362 8.81367 1.49409 8.64933Z" fill="#6A6A6A" stroke="white" stroke-width="0.2"/>
</g>
</g>
</g>
<defs>
<clipPath id="clip0_832_16796">
<rect width="16" height="16" fill="white"/>
</clipPath>
</defs>
</svg>
