<svg width="16" height="16" viewBox="0 0 16 16" fill="none" xmlns="http://www.w3.org/2000/svg">
<g id="envelope (9) 1" clip-path="url(#clip0_832_16767)">
<path id="Vector" d="M12.6667 0.664062H3.33333C2.4496 0.665121 1.60237 1.01665 0.97748 1.64154C0.352588 2.26643 0.00105857 3.11367 0 3.9974L0 11.9974C0.00105857 12.8811 0.352588 13.7284 0.97748 14.3533C1.60237 14.9781 2.4496 15.3297 3.33333 15.3307H12.6667C13.5504 15.3297 14.3976 14.9781 15.0225 14.3533C15.6474 13.7284 15.9989 12.8811 16 11.9974V3.9974C15.9989 3.11367 15.6474 2.26643 15.0225 1.64154C14.3976 1.01665 13.5504 0.665121 12.6667 0.664062ZM3.33333 1.9974H12.6667C13.0659 1.99818 13.4557 2.11841 13.786 2.3426C14.1163 2.56679 14.3719 2.88469 14.52 3.2554L9.41467 8.3614C9.03895 8.73561 8.53028 8.94571 8 8.94571C7.46972 8.94571 6.96105 8.73561 6.58533 8.3614L1.48 3.2554C1.6281 2.88469 1.88374 2.56679 2.21403 2.3426C2.54432 2.11841 2.93414 1.99818 3.33333 1.9974ZM12.6667 13.9974H3.33333C2.8029 13.9974 2.29419 13.7867 1.91912 13.4116C1.54405 13.0365 1.33333 12.5278 1.33333 11.9974V4.9974L5.64267 9.30406C6.26842 9.92823 7.11617 10.2788 8 10.2788C8.88383 10.2788 9.73158 9.92823 10.3573 9.30406L14.6667 4.9974V11.9974C14.6667 12.5278 14.456 13.0365 14.0809 13.4116C13.7058 13.7867 13.1971 13.9974 12.6667 13.9974Z" fill="#6A6A6A"/>
</g>
<defs>
<clipPath id="clip0_832_16767">
<rect width="16" height="16" fill="white"/>
</clipPath>
</defs>
</svg>
