<svg width="18" height="18" viewBox="0 0 18 18" fill="none" xmlns="http://www.w3.org/2000/svg">
<g id="link-alt (1) 1">
<path id="Vector" d="M7.82233 14.0773L7.82237 14.0772C8.11218 13.7882 8.58167 13.7872 8.8711 14.0774C9.16095 14.3673 9.16103 14.8368 8.87097 15.1261M7.82233 14.0773L8.818 15.073M7.82233 14.0773L7.11633 14.7826L7.1163 14.7826C6.59503 15.3039 5.90277 15.5907 5.166 15.5907C4.42923 15.5907 3.73697 15.3039 3.2157 14.7826C2.69443 14.2614 2.40767 13.5691 2.40767 12.8323C2.40767 12.0955 2.69444 11.4026 3.21567 10.8821L3.2157 10.882L6.88237 7.21537C7.40364 6.69409 8.0959 6.40733 8.83267 6.40733C9.56946 6.40733 10.2624 6.69411 10.7829 7.21533C10.8869 7.31999 10.9817 7.43106 11.0661 7.54657C11.3065 7.87794 11.77 7.95201 12.1021 7.71031C12.4336 7.46932 12.507 7.00582 12.266 6.6743C12.137 6.49634 11.9911 6.32601 11.8324 6.16732C11.031 5.36524 9.96523 4.924 8.83267 4.924C7.70012 4.924 6.63437 5.36522 5.83363 6.16664C5.83362 6.16664 5.83362 6.16665 5.83361 6.16666L2.16766 9.83328C1.36623 10.634 0.925 11.6998 0.925 12.8323C0.925 13.9649 1.36621 15.0306 2.16761 15.8313M7.82233 14.0773L2.16761 15.8313M8.87097 15.1261L8.818 15.073M8.87097 15.1261L8.87103 15.126L8.818 15.073M8.87097 15.1261L8.16572 15.8313M8.818 15.073L8.11267 15.7783M8.16572 15.8313L8.11267 15.7783M8.16572 15.8313C7.36498 16.6328 6.29989 17.074 5.16667 17.074C4.03344 17.074 2.96835 16.6328 2.16761 15.8313M8.16572 15.8313L8.1657 15.8314L8.11267 15.7783M8.11267 15.7783L2.16761 15.8313M5.73339 11.3245L5.73351 11.3247C5.86574 11.505 6.01222 11.676 6.16828 11.832C6.96836 12.6328 8.03413 13.074 9.16667 13.074C10.2992 13.074 11.365 12.6328 12.1657 11.8313L15.8324 8.1647C17.4863 6.51075 17.4863 3.81993 15.8324 2.16598C14.1784 0.511341 11.4876 0.511341 9.83362 2.16598L9.1283 2.8713C8.83834 3.16126 8.83834 3.63008 9.1283 3.92003C9.41826 4.20999 9.88708 4.20999 10.177 3.92003L10.8824 3.2147C11.9577 2.13932 13.7083 2.13932 14.7836 3.2147C15.859 4.29008 15.859 6.04059 14.7836 7.11597L11.117 10.7826L11.1169 10.7827C10.5964 11.3039 9.90346 11.5907 9.16667 11.5907C8.4299 11.5907 7.73764 11.3039 7.21637 10.7826L7.2162 10.7825C7.11049 10.6774 7.01644 10.5665 6.93273 10.451L6.93255 10.4507C6.69086 10.1201 6.2274 10.0473 5.89656 10.2883C5.565 10.5294 5.49233 10.9937 5.73339 11.3245Z" fill="#6A6A6A" stroke="#6A6A6A" stroke-width="0.15"/>
</g>
</svg>
