<svg width="16" height="16" viewBox="0 0 16 16" fill="none" xmlns="http://www.w3.org/2000/svg">
<g id="marker (5) 1" clip-path="url(#clip0_832_16751)">
<g id="_01_align_center">
<path id="Vector" d="M7.97278 16.007L7.50806 15.6086C6.86741 15.0722 1.27344 10.241 1.27344 6.70716C1.27344 3.00722 4.27284 0.0078125 7.97278 0.0078125C11.6727 0.0078125 14.6721 3.00722 14.6721 6.70716C14.6721 10.2411 9.07816 15.0722 8.44016 15.6113L7.97278 16.007ZM7.97278 1.45641C5.07425 1.45969 2.72534 3.80859 2.72206 6.70713C2.72206 8.92719 6.16369 12.4737 7.97278 14.0969C9.78191 12.473 13.2235 8.9245 13.2235 6.70713C13.2202 3.80859 10.8713 1.45972 7.97278 1.45641Z" fill="#6A6A6A"/>
<path id="Vector_2" d="M7.96806 9.36191C6.50144 9.36191 5.3125 8.17297 5.3125 6.70634C5.3125 5.23972 6.50144 4.05078 7.96806 4.05078C9.43469 4.05078 10.6236 5.23972 10.6236 6.70634C10.6236 8.17297 9.43472 9.36191 7.96806 9.36191ZM7.96806 5.37853C7.23475 5.37853 6.64028 5.973 6.64028 6.70631C6.64028 7.43963 7.23475 8.03409 7.96806 8.03409C8.70138 8.03409 9.29584 7.43963 9.29584 6.70631C9.29584 5.973 8.70141 5.37853 7.96806 5.37853Z" fill="#6A6A6A"/>
</g>
</g>
<defs>
<clipPath id="clip0_832_16751">
<rect width="16" height="16" fill="white"/>
</clipPath>
</defs>
</svg>
