<svg width="16" height="16" viewBox="0 0 16 16" fill="none" xmlns="http://www.w3.org/2000/svg">
<g id="phone-flip 1" clip-path="url(#clip0_832_16760)">
<path id="Vector" d="M1.21743 1.21167L1.91743 0.605C2.7241 -0.201667 4.03077 -0.201667 4.83743 0.605C4.85743 0.625 6.09077 2.23167 6.09077 2.23167C6.85077 3.03167 6.85077 4.29167 6.09077 5.085L5.31743 6.05833C6.29077 8.265 7.8041 9.785 9.93743 10.6917L10.9108 9.91167C11.7041 9.145 12.9708 9.145 13.7641 9.91167C13.7641 9.91167 15.3708 11.145 15.3908 11.165C16.1974 11.9717 16.1974 13.2783 15.4241 14.0517L14.7574 14.8183C13.9908 15.585 12.9574 16.005 11.8374 16.005C6.7441 16.005 -0.00256729 9.25167 -0.00256729 4.165C-0.00256729 3.05167 0.417432 2.01167 1.21743 1.21833V1.21167ZM11.8374 14.665C12.5974 14.665 13.2974 14.385 13.7774 13.8983L14.4441 13.1317C14.7174 12.8583 14.7308 12.4117 14.4708 12.125C14.4708 12.125 12.8774 10.8983 12.8574 10.8783C12.5841 10.605 12.1041 10.605 11.8241 10.8783C11.8041 10.8983 10.4641 11.9717 10.4641 11.9717C10.2774 12.1183 10.0308 12.1583 9.81077 12.0717C7.05077 11.0183 5.07077 9.045 3.93077 6.19833C3.8441 5.97833 3.87743 5.725 4.03077 5.53167C4.03077 5.53167 5.1041 4.185 5.11743 4.17167C5.4041 3.885 5.4041 3.425 5.11743 3.13833C5.09743 3.11833 3.87077 1.525 3.87077 1.525C3.5841 1.265 3.13743 1.27167 2.83077 1.57833L2.13077 2.185C1.61743 2.69833 1.33077 3.39833 1.33077 4.15833C1.33077 8.79833 7.8441 14.665 11.8374 14.665Z" fill="#6A6A6A"/>
</g>
<defs>
<clipPath id="clip0_832_16760">
<rect width="16" height="16" fill="white" transform="matrix(-1 0 0 1 16 0)"/>
</clipPath>
</defs>
</svg>
