<svg width="18" height="18" viewBox="0 0 18 18" fill="none" xmlns="http://www.w3.org/2000/svg">
<g id="price-tag 1">
<g id="Group">
<path id="Vector" opacity="0.966" d="M10.6085 0.983321L10.6085 0.983139L10.6042 0.983517C9.78805 1.05611 9.06088 1.3526 8.42387 1.87241L8.42371 1.87222L8.42013 1.8758L1.48029 8.81564L1.48021 8.81556L1.47803 8.81805C1.31953 8.999 1.19511 9.20263 1.10483 9.42871L1.10476 9.42869L1.10386 9.43134C0.87553 10.1112 0.966166 10.7461 1.3753 11.331L1.37466 11.3314L1.38091 11.3377L6.66447 16.6212L6.66372 16.622L6.67236 16.6276C7.06535 16.8859 7.46122 17.0168 7.85922 17.0168C8.25723 17.0168 8.65309 16.8859 9.04608 16.6276L9.04662 16.6285L9.05373 16.6215C11.3883 14.32 13.7127 12.0066 16.027 9.68128L16.0271 9.68133L16.0288 9.67946C16.6197 9.02292 16.9443 8.25037 17.0021 7.36359L17.0022 7.36359L17.0022 7.36106C17.0243 5.82576 17.0243 4.29043 17.0022 2.75514L17.0027 2.75513L17.0017 2.7484C16.9259 2.24631 16.7429 1.84638 16.4493 1.55282C16.1557 1.25927 15.7558 1.07618 15.2537 1.00044L15.2538 0.999962L15.2468 0.999887C13.7007 0.983321 12.1546 0.977798 10.6085 0.983321ZM9.38276 2.87651C9.72367 2.62024 10.1006 2.45326 10.514 2.37521C12.0885 2.36972 13.6629 2.37522 15.2373 2.3917C15.4206 2.45824 15.544 2.5817 15.6105 2.76499C15.6425 4.39507 15.6314 6.02414 15.5774 7.65211C15.4898 8.04089 15.3176 8.38479 15.0605 8.68448L8.25599 15.489C8.11919 15.6043 7.9872 15.658 7.85922 15.658C7.73131 15.658 7.59938 15.6043 7.46264 15.4891C5.8035 13.7969 4.13242 12.1148 2.44941 10.4428C2.37724 10.326 2.34562 10.2141 2.35052 10.1063C2.35544 9.99792 2.39754 9.88877 2.48094 9.77832L9.38276 2.87651Z" fill="#6A6A6A" stroke="#6A6A6A" stroke-width="0.1"/>
</g>
<g id="Group_2">
<path id="Vector_2" opacity="0.969" d="M12.0154 3.83816L12.0154 3.83787L12.01 3.83879C11.3587 3.9509 10.8818 4.30463 10.5832 4.89681L10.583 4.89668L10.5811 4.90174C10.422 5.32545 10.3849 5.72233 10.4737 6.09072C10.5624 6.45913 10.7759 6.79449 11.11 7.09701L11.1097 7.09734L11.1152 7.10116C11.4698 7.34457 11.8301 7.47334 12.1955 7.48408C12.561 7.49483 12.9276 7.38743 13.2944 7.16521L13.2947 7.16562L13.3001 7.16124C13.6618 6.86719 13.8973 6.53342 14.0022 6.1595C14.1071 5.7856 14.0801 5.37647 13.9251 4.93404L13.9255 4.9339L13.9226 4.92813C13.7278 4.54018 13.4709 4.25304 13.151 4.0702C12.831 3.88737 12.4517 3.81096 12.0154 3.83816ZM11.7592 5.8428C11.7116 5.71369 11.7292 5.55275 11.8256 5.35452C11.9068 5.27019 11.9969 5.20386 12.0961 5.1551C12.2496 5.13233 12.3767 5.15079 12.4804 5.20613C12.584 5.26139 12.6696 5.35619 12.7354 5.49555C12.7619 5.73661 12.7199 5.90389 12.623 6.00982C12.5263 6.11553 12.3641 6.17189 12.123 6.16645C11.9232 6.08091 11.8066 5.97143 11.7592 5.8428Z" fill="#6A6A6A" stroke="#6A6A6A" stroke-width="0.1"/>
</g>
</g>
</svg>
