<svg width="16" height="16" viewBox="0 0 16 16" fill="none" xmlns="http://www.w3.org/2000/svg">
<g id="shop (2) 1" clip-path="url(#clip0_832_16743)">
<path id="Vector" d="M16 6.66672C16 6.61806 15.9947 6.56954 15.984 6.52206L15.1173 2.61006C14.9563 1.86755 14.5449 1.20298 13.9521 0.727777C13.3593 0.252577 12.6211 -0.00435759 11.8613 5.59259e-05H4.13867C3.37937 -0.00374428 2.64182 0.25347 2.04955 0.72862C1.45728 1.20377 1.04627 1.868 0.885334 2.61006L0.0160009 6.52206C0.00533965 6.56954 -2.64399e-05 6.61806 9.12932e-07 6.66672V7.33339C-0.000536959 7.98245 0.236615 8.60925 0.666668 9.09539V12.6667C0.667726 13.5505 1.01926 14.3977 1.64415 15.0226C2.26904 15.6475 3.11627 15.999 4 16.0001H12C12.8837 15.999 13.731 15.6475 14.3559 15.0226C14.9807 14.3977 15.3323 13.5505 15.3333 12.6667V9.09539C15.7634 8.60925 16.0005 7.98245 16 7.33339V6.66672ZM1.33333 6.73939L2.18667 2.89939C2.28336 2.45422 2.53001 2.05577 2.88534 1.77071C3.24067 1.48564 3.68313 1.33126 4.13867 1.33339H4.66667V3.33339C4.66667 3.5102 4.73691 3.67977 4.86193 3.80479C4.98695 3.92982 5.15652 4.00006 5.33333 4.00006C5.51015 4.00006 5.67971 3.92982 5.80474 3.80479C5.92976 3.67977 6 3.5102 6 3.33339V1.33339H10V3.33339C10 3.5102 10.0702 3.67977 10.1953 3.80479C10.3203 3.92982 10.4899 4.00006 10.6667 4.00006C10.8435 4.00006 11.013 3.92982 11.1381 3.80479C11.2631 3.67977 11.3333 3.5102 11.3333 3.33339V1.33339H11.8613C12.3169 1.33126 12.7593 1.48564 13.1147 1.77071C13.47 2.05577 13.7166 2.45422 13.8133 2.89939L14.6667 6.73939V7.33339C14.6667 7.68701 14.5262 8.02615 14.2761 8.2762C14.0261 8.52625 13.687 8.66672 13.3333 8.66672H12.6667C12.313 8.66672 11.9739 8.52625 11.7239 8.2762C11.4738 8.02615 11.3333 7.68701 11.3333 7.33339C11.3333 7.15658 11.2631 6.98701 11.1381 6.86199C11.013 6.73696 10.8435 6.66672 10.6667 6.66672C10.4899 6.66672 10.3203 6.73696 10.1953 6.86199C10.0702 6.98701 10 7.15658 10 7.33339C10 7.68701 9.85952 8.02615 9.60948 8.2762C9.35943 8.52625 9.02029 8.66672 8.66667 8.66672H7.33333C6.97971 8.66672 6.64057 8.52625 6.39053 8.2762C6.14048 8.02615 6 7.68701 6 7.33339C6 7.15658 5.92976 6.98701 5.80474 6.86199C5.67971 6.73696 5.51015 6.66672 5.33333 6.66672C5.15652 6.66672 4.98695 6.73696 4.86193 6.86199C4.73691 6.98701 4.66667 7.15658 4.66667 7.33339C4.66667 7.68701 4.52619 8.02615 4.27614 8.2762C4.02609 8.52625 3.68696 8.66672 3.33333 8.66672H2.66667C2.31305 8.66672 1.97391 8.52625 1.72386 8.2762C1.47381 8.02615 1.33333 7.68701 1.33333 7.33339V6.73939ZM12 14.6667H4C3.46957 14.6667 2.96086 14.456 2.58579 14.0809C2.21071 13.7059 2 13.1972 2 12.6667V9.91539C2.21773 9.97177 2.44175 10.0002 2.66667 10.0001H3.33333C3.71188 10.0003 4.0861 9.91966 4.431 9.76365C4.7759 9.60764 5.08353 9.37981 5.33333 9.09539C5.58313 9.37981 5.89076 9.60764 6.23566 9.76365C6.58056 9.91966 6.95479 10.0003 7.33333 10.0001H8.66667C9.04521 10.0003 9.41944 9.91966 9.76434 9.76365C10.1092 9.60764 10.4169 9.37981 10.6667 9.09539C10.9165 9.37981 11.2241 9.60764 11.569 9.76365C11.9139 9.91966 12.2881 10.0003 12.6667 10.0001H13.3333C13.5582 10.0002 13.7823 9.97177 14 9.91539V12.6667C14 13.1972 13.7893 13.7059 13.4142 14.0809C13.0391 14.456 12.5304 14.6667 12 14.6667Z" fill="#6A6A6A"/>
</g>
<defs>
<clipPath id="clip0_832_16743">
<rect width="16" height="16" fill="white"/>
</clipPath>
</defs>
</svg>
