<svg width="22" height="23" viewBox="0 0 22 23" fill="none" xmlns="http://www.w3.org/2000/svg">
<g id="user (6) 1">
<path id="Vector" d="M10.9998 11.7H11C12.1274 11.7 13.2294 11.3657 14.1667 10.7394C15.1041 10.1131 15.8347 9.22284 16.2661 8.1813C16.6975 7.13976 16.8104 5.99368 16.5905 4.88799C16.3705 3.7823 15.8277 2.76665 15.0305 1.96949C14.2333 1.17233 13.2177 0.629462 12.112 0.409526C11.0063 0.189591 9.86024 0.30247 8.8187 0.733889C7.77717 1.16531 6.88695 1.89589 6.26062 2.83325C5.6343 3.77061 5.3 4.87265 5.3 6L5.3 6.0002C5.30151 7.51142 5.90251 8.96031 6.9711 10.0289C8.03969 11.0975 9.48858 11.6985 10.9998 11.7ZM11 2.53334C11.6856 2.53334 12.3559 2.73665 12.926 3.11757C13.4961 3.4985 13.9404 4.03992 14.2028 4.67337C14.4652 5.30682 14.5338 6.00385 14.4001 6.67632C14.2663 7.34878 13.9361 7.96648 13.4513 8.45131C12.9665 8.93613 12.3488 9.2663 11.6763 9.40006C11.0038 9.53382 10.3068 9.46517 9.67336 9.20278C9.03991 8.9404 8.49849 8.49607 8.11757 7.92598C7.73665 7.35589 7.53333 6.68564 7.53333 6C7.53333 5.08059 7.89857 4.19882 8.5487 3.5487C9.19882 2.89857 10.0806 2.53334 11 2.53334Z" fill="black" stroke="black" stroke-width="0.4"/>
<path id="Vector_2" d="M11.0002 13.132L10.9998 13.132C8.75952 13.1345 6.61173 14.0256 5.02763 15.6097C3.44353 17.1938 2.55249 19.3416 2.55 21.5818V21.582C2.55 21.8782 2.66765 22.1622 2.87706 22.3716C3.08648 22.581 3.37051 22.6987 3.66667 22.6987C3.96282 22.6987 4.24685 22.581 4.45627 22.3716C4.66568 22.1622 4.78333 21.8782 4.78333 21.582C4.78333 19.9333 5.4383 18.352 6.60415 17.1862C7.77 16.0203 9.35124 15.3654 11 15.3654C12.6488 15.3654 14.23 16.0203 15.3958 17.1862C16.5617 18.352 17.2167 19.9333 17.2167 21.582C17.2167 21.8782 17.3343 22.1622 17.5437 22.3716C17.7531 22.5811 18.0372 22.6987 18.3333 22.6987C18.6295 22.6987 18.9135 22.581 19.1229 22.3716C19.3324 22.1622 19.45 21.8782 19.45 21.582V21.5818C19.4475 19.3416 18.5565 17.1938 16.9724 15.6097C15.3883 14.0256 13.2405 13.1345 11.0002 13.132Z" fill="black" stroke="black" stroke-width="0.4"/>
</g>
</svg>
