<svg width="40" height="40" viewBox="0 0 40 40" fill="current" xmlns="http://www.w3.org/2000/svg">
<g clip-path="url(#clip0_454_9889)">
<path d="M40 16.6668C40.0001 16.5451 39.9867 16.4238 39.96 16.3051L37.7933 6.52514C37.3908 4.66887 36.3622 3.00744 34.8802 1.81944C33.3982 0.631442 31.5527 -0.010894 29.6533 0.000139815H10.3467C8.44842 -0.00936069 6.60455 0.633676 5.12388 1.82155C3.64321 3.00942 2.61566 4.67 2.21334 6.52514L0.0400023 16.3051C0.0133491 16.4238 -6.60998e-05 16.5451 2.28233e-06 16.6668V18.3335C-0.0013424 19.9561 0.591538 21.5231 1.66667 22.7385V31.6668C1.66932 33.8761 2.54814 35.9942 4.11037 37.5564C5.6726 39.1187 7.79068 39.9975 10 40.0001H30C32.2093 39.9975 34.3274 39.1187 35.8896 37.5564C37.4519 35.9942 38.3307 33.8761 38.3333 31.6668V22.7385C39.4085 21.5231 40.0014 19.9561 40 18.3335V16.6668ZM3.33334 16.8485L5.46667 7.24847C5.70841 6.13556 6.32503 5.13943 7.21336 4.42677C8.10168 3.7141 9.20782 3.32815 10.3467 3.33347H11.6667V8.33347C11.6667 8.7755 11.8423 9.19942 12.1548 9.51199C12.4674 9.82455 12.8913 10.0001 13.3333 10.0001C13.7754 10.0001 14.1993 9.82455 14.5118 9.51199C14.8244 9.19942 15 8.7755 15 8.33347V3.33347H25V8.33347C25 8.7755 25.1756 9.19942 25.4882 9.51199C25.8007 9.82455 26.2246 10.0001 26.6667 10.0001C27.1087 10.0001 27.5326 9.82455 27.8452 9.51199C28.1577 9.19942 28.3333 8.7755 28.3333 8.33347V3.33347H29.6533C30.7922 3.32815 31.8983 3.7141 32.7867 4.42677C33.675 5.13943 34.2916 6.13556 34.5333 7.24847L36.6667 16.8485V18.3335C36.6667 19.2175 36.3155 20.0654 35.6904 20.6905C35.0652 21.3156 34.2174 21.6668 33.3333 21.6668H31.6667C30.7826 21.6668 29.9348 21.3156 29.3096 20.6905C28.6845 20.0654 28.3333 19.2175 28.3333 18.3335C28.3333 17.8914 28.1577 17.4675 27.8452 17.155C27.5326 16.8424 27.1087 16.6668 26.6667 16.6668C26.2246 16.6668 25.8007 16.8424 25.4882 17.155C25.1756 17.4675 25 17.8914 25 18.3335C25 19.2175 24.6488 20.0654 24.0237 20.6905C23.3986 21.3156 22.5507 21.6668 21.6667 21.6668H18.3333C17.4493 21.6668 16.6014 21.3156 15.9763 20.6905C15.3512 20.0654 15 19.2175 15 18.3335C15 17.8914 14.8244 17.4675 14.5118 17.155C14.1993 16.8424 13.7754 16.6668 13.3333 16.6668C12.8913 16.6668 12.4674 16.8424 12.1548 17.155C11.8423 17.4675 11.6667 17.8914 11.6667 18.3335C11.6667 19.2175 11.3155 20.0654 10.6904 20.6905C10.0652 21.3156 9.21739 21.6668 8.33334 21.6668H6.66667C5.78261 21.6668 4.93477 21.3156 4.30965 20.6905C3.68453 20.0654 3.33334 19.2175 3.33334 18.3335V16.8485ZM30 36.6668H10C8.67392 36.6668 7.40215 36.14 6.46447 35.2023C5.52679 34.2647 5 32.9929 5 31.6668V24.7885C5.54433 24.9294 6.10439 25.0005 6.66667 25.0001H8.33334C9.27969 25.0006 10.2153 24.7991 11.0775 24.4091C11.9398 24.0191 12.7088 23.4495 13.3333 22.7385C13.9578 23.4495 14.7269 24.0191 15.5892 24.4091C16.4514 24.7991 17.387 25.0006 18.3333 25.0001H21.6667C22.613 25.0006 23.5486 24.7991 24.4108 24.4091C25.2731 24.0191 26.0422 23.4495 26.6667 22.7385C27.2912 23.4495 28.0602 24.0191 28.9225 24.4091C29.7847 24.7991 30.7203 25.0006 31.6667 25.0001H33.3333C33.8956 25.0005 34.4557 24.9294 35 24.7885V31.6668C35 32.9929 34.4732 34.2647 33.5355 35.2023C32.5979 36.14 31.3261 36.6668 30 36.6668Z" fill="current"/>
</g>
<defs>
<clipPath id="clip0_454_9889">
<rect width="40" height="40" fill="current"/>
</clipPath>
</defs>
</svg>
