<svg width="40" height="40" viewBox="0 0 40 40" fill="white" xmlns="http://www.w3.org/2000/svg">
<g clip-path="url(#clip0_454_9895)">
<path opacity="0.979" fill-rule="evenodd" clip-rule="evenodd" d="M6.28906 -0.0390625C15.4037 -0.0390625 24.5182 -0.0390625 33.6328 -0.0390625C37.1224 0.690104 39.2318 2.79948 39.9609 6.28906C39.9609 15.4037 39.9609 24.5182 39.9609 33.6328C39.2327 37.1216 37.1233 39.2309 33.6328 39.9609C24.5182 39.9609 15.4037 39.9609 6.28906 39.9609C2.79932 39.2316 0.689946 37.1223 -0.0390625 33.6328C-0.0390625 24.5182 -0.0390625 15.4037 -0.0390625 6.28906C0.690104 2.79948 2.79948 0.690104 6.28906 -0.0390625ZM6.75781 2.77344C7.74774 2.76042 8.73734 2.77345 9.72656 2.8125C11.4152 5.15223 13.134 7.46994 14.8828 9.76562C10.8464 9.80469 6.80998 9.81773 2.77344 9.80469C2.76042 8.78875 2.77345 7.7731 2.8125 6.75781C3.25625 4.55629 4.57136 3.22816 6.75781 2.77344ZM13.2422 2.85156C15.9894 2.7606 18.7498 2.74758 21.5234 2.8125C23.2422 5.13021 24.9609 7.44791 26.6797 9.76562C23.9193 9.81773 21.1588 9.81773 18.3984 9.76562C16.7205 7.42455 15.0017 5.11987 13.2422 2.85156ZM25.1172 2.85156C27.7863 2.76061 30.4686 2.74759 33.1641 2.8125C35.3646 3.24219 36.6797 4.55729 37.1094 6.75781C37.1484 7.7731 37.1615 8.78875 37.1484 9.80469C34.8566 9.81773 32.5649 9.80469 30.2734 9.76562C28.5353 7.46867 26.8166 5.16398 25.1172 2.85156ZM2.77344 12.6172C14.2318 12.6172 25.6901 12.6172 37.1484 12.6172C37.1615 19.4662 37.1484 26.3152 37.1094 33.1641C36.6797 35.3646 35.3646 36.6797 33.1641 37.1094C24.362 37.1615 15.5599 37.1615 6.75781 37.1094C4.55729 36.6797 3.24219 35.3646 2.8125 33.1641C2.77344 26.3152 2.76041 19.4662 2.77344 12.6172ZM17.1484 21.0547C19.3346 22.3286 21.5221 23.6046 23.7109 24.8828C21.5557 26.1884 19.3813 27.4645 17.1875 28.7109C17.1484 26.159 17.1354 23.6069 17.1484 21.0547Z" fill="current"/>
<path opacity="0.963" fill-rule="evenodd" clip-rule="evenodd" d="M15.4297 17.151C15.8466 17.1316 16.2372 17.2227 16.6016 17.4244C20.2474 19.5338 23.8932 21.6432 27.5391 23.7526C28.3003 24.6405 28.2221 25.4478 27.3047 26.1744C23.7242 28.212 20.1565 30.2693 16.6016 32.3463C15.4033 32.9111 14.6351 32.5595 14.2969 31.2916C14.2448 27.0469 14.2448 22.802 14.2969 18.5573C14.3779 17.8392 14.7556 17.3705 15.4297 17.151ZM17.1485 21.0573C17.1354 23.6094 17.1485 26.1615 17.1875 28.7135C19.3813 27.467 21.5557 26.191 23.711 24.8854C21.5221 23.6072 19.3346 22.3312 17.1485 21.0573Z" fill="current"/>
</g>
<defs>
<clipPath id="clip0_454_9895">
<rect width="40" height="40" fill="current"/>
</clipPath>
</defs>
</svg>
