
<svg xmlns="http://www.w3.org/2000/svg" width="22" height="23" viewBox="0 0 22 23" fill="none">
  <path d="M1.58203 12.4163V12.4167L1.58203 17.9167L1.58203 17.917C1.58357 19.1983 2.09325 20.4267 2.99929 21.3327C3.90533 22.2388 5.13374 22.7485 6.41507 22.75H6.41536H15.582H15.5823C16.8637 22.7485 18.0921 22.2388 18.9981 21.3327C19.9041 20.4267 20.4138 19.1983 20.4154 17.917V17.9167V12.4167V12.4163C20.4141 11.477 20.1392 10.5583 19.6241 9.77271C19.1393 9.03314 18.4614 8.44167 17.6654 8.06141V6.91667C17.6654 5.14856 16.963 3.45286 15.7127 2.20262C14.4625 0.952379 12.7668 0.25 10.9987 0.25C9.23059 0.25 7.53489 0.952379 6.28465 2.20262C5.03441 3.45286 4.33203 5.14856 4.33203 6.91667V8.06141C3.53595 8.44167 2.8581 9.03314 2.37325 9.77271C1.85821 10.5583 1.58327 11.477 1.58203 12.4163ZM6.66536 6.91667C6.66536 5.7674 7.12191 4.6652 7.93457 3.85254C8.74723 3.03988 9.84943 2.58333 10.9987 2.58333C12.148 2.58333 13.2502 3.03988 14.0628 3.85254C14.8755 4.6652 15.332 5.7674 15.332 6.91667V7.58333H6.66536V6.91667ZM18.082 17.9167C18.082 18.5797 17.8186 19.2156 17.3498 19.6844C16.881 20.1533 16.2451 20.4167 15.582 20.4167H6.41536C5.75232 20.4167 5.11644 20.1533 4.6476 19.6844C4.17876 19.2156 3.91536 18.5797 3.91536 17.9167V12.4167C3.91536 11.7536 4.17876 11.1177 4.6476 10.6489C5.11644 10.1801 5.75232 9.91667 6.41536 9.91667H15.582C16.2451 9.91667 16.881 10.1801 17.3498 10.6489C17.8186 11.1177 18.082 11.7536 18.082 12.4167V17.9167Z" fill="black" stroke="black" stroke-width="0.5"/>
  <path d="M10.9987 13.082C10.6893 13.082 10.3925 13.2049 10.1737 13.4237C9.95495 13.6425 9.83203 13.9393 9.83203 14.2487V16.082C9.83203 16.3915 9.95495 16.6882 10.1737 16.907C10.3925 17.1258 10.6893 17.2487 10.9987 17.2487C11.3081 17.2487 11.6049 17.1258 11.8237 16.907C12.0424 16.6882 12.1654 16.3915 12.1654 16.082V14.2487C12.1654 13.9393 12.0424 13.6425 11.8237 13.4237C11.6049 13.2049 11.3081 13.082 10.9987 13.082Z" fill="black" stroke="black" stroke-width="0.5"/>
</svg>