<svg width="24" height="23" viewBox="0 0 24 23" fill="none" xmlns="http://www.w3.org/2000/svg">
<path d="M20.6354 12.387C20.581 12.4702 20.5187 12.5483 20.4494 12.62L20.4509 12.6185L20.6354 12.387ZM20.6354 12.387L20.8624 12.3865M16.8989 6.82401L20.379 10.3042L6.49089 10.3325V10.5825L6.49038 10.3325L6.49059 10.3325C6.18128 10.3326 5.88465 10.4555 5.66593 10.6742C5.44714 10.893 5.32422 11.1897 5.32422 11.4992C5.32422 11.8086 5.44714 12.1053 5.66593 12.3241C5.88472 12.5429 6.18147 12.6658 6.49089 12.6658L6.4914 12.6658L20.4321 12.6374L16.8966 16.1729C16.786 16.2802 16.6977 16.4083 16.6368 16.5499C16.5757 16.6923 16.5435 16.8454 16.5422 17.0003C16.5408 17.1552 16.5703 17.3088 16.629 17.4522C16.6877 17.5956 16.7743 17.7258 16.8838 17.8354C16.9934 17.9449 17.1236 18.0315 17.267 18.0902C17.4104 18.1489 17.564 18.1784 17.7189 18.177C17.8738 18.1757 18.0269 18.1435 18.1693 18.0824C18.3109 18.0215 18.439 17.9332 18.5463 17.8226L22.1007 14.2683L22.1007 14.2682C22.835 13.5338 23.2474 12.5377 23.2474 11.4992C23.2474 10.6501 22.9717 9.82938 22.4699 9.15682H22.5311L22.1043 8.73004L18.5486 5.17429L18.5486 5.17427L18.5455 5.17125C18.3254 4.95873 18.0307 4.84114 17.7248 4.84379C17.419 4.84645 17.1263 4.96915 16.91 5.18546C16.6937 5.40177 16.571 5.69438 16.5684 6.00028C16.5657 6.30618 16.6833 6.60088 16.8958 6.82091L16.8958 6.82094L16.8989 6.82401ZM20.723 10.3034C20.7754 10.3652 20.8237 10.4303 20.8678 10.4982C20.8678 10.4983 20.8678 10.4984 20.8679 10.4984C20.8811 10.5188 20.8939 10.5395 20.9064 10.5605C20.8995 10.5605 20.8933 10.5587 20.8871 10.5568C20.8809 10.555 20.8748 10.5532 20.8679 10.5532L20.6024 10.5537C20.557 10.4921 20.5073 10.4336 20.4537 10.3789L20.4546 10.3798L20.5305 10.3038L20.723 10.3034Z" fill="black" stroke="black" stroke-width="0.5"/>
<path d="M5.58333 0.25L5.58303 0.25C4.3017 0.251535 3.0733 0.761221 2.16726 1.66726C1.26122 2.5733 0.751535 3.8017 0.75 5.08303V5.08333L0.75 17.9167L0.75 17.917C0.751535 19.1983 1.26122 20.4267 2.16726 21.3327C3.0733 22.2388 4.3017 22.7485 5.58303 22.75H5.58333H7.41667C7.72609 22.75 8.02283 22.6271 8.24162 22.4083C8.46042 22.1895 8.58333 21.8928 8.58333 21.5833C8.58333 21.2739 8.46042 20.9772 8.24162 20.7584C8.02283 20.5396 7.72608 20.4167 7.41667 20.4167H5.58333C4.92029 20.4167 4.28441 20.1533 3.81557 19.6844C3.34673 19.2156 3.08333 18.5797 3.08333 17.9167V5.08333C3.08333 4.42029 3.34673 3.78441 3.81557 3.31557C4.28441 2.84673 4.92029 2.58333 5.58333 2.58333H7.41667C7.72609 2.58333 8.02283 2.46042 8.24162 2.24162C8.46042 2.02283 8.58333 1.72609 8.58333 1.41667C8.58333 1.10725 8.46042 0.810501 8.24162 0.591709C8.02283 0.372916 7.72609 0.25 7.41667 0.25L5.58333 0.25Z" fill="black" stroke="black" stroke-width="0.5"/>
</svg>
