<svg width="256" height="250" viewBox="0 0 256 250" fill="none" xmlns="http://www.w3.org/2000/svg">
<path d="M159.896 4.36514C156.553 1.96953 152.636 0.500502 148.543 0.107006C144.449 -0.28649 140.324 0.409545 136.586 2.12453C99.6777 19.0976 -22.1429 78.9911 3.52064 119.032C33.6713 166.091 140.677 240.333 179.914 236.792C219.151 233.25 263.638 167.421 253.647 124.093C245.252 87.6875 188.817 25.1632 159.896 4.36514Z" fill="url(#paint0_linear_2063_24745)"/>
<path opacity="0.7" d="M159.896 4.36514C156.553 1.96953 152.636 0.500502 148.543 0.107006C144.449 -0.28649 140.324 0.409545 136.586 2.12453C99.6777 19.0976 -22.1429 78.9911 3.52064 119.032C33.6713 166.091 140.677 240.333 179.914 236.792C219.151 233.25 263.638 167.421 253.647 124.093C245.252 87.6875 188.817 25.1632 159.896 4.36514Z" fill="white"/>
<path opacity="0.2" d="M128.252 250.001C153.51 250.001 173.987 247.526 173.987 244.473C173.987 241.42 153.51 238.945 128.252 238.945C102.994 238.945 82.5176 241.42 82.5176 244.473C82.5176 247.526 102.994 250.001 128.252 250.001Z" fill="#263238"/>
<path d="M176.341 31.5519V210.954C176.341 213.319 175.402 215.587 173.73 217.258C172.058 218.93 169.791 219.87 167.426 219.87H89.9093C87.5448 219.87 85.2772 218.93 83.6053 217.258C81.9334 215.587 80.9941 213.319 80.9941 210.954V31.5519C80.9941 29.1885 81.9326 26.9218 83.6032 25.25C85.2739 23.5783 87.54 22.6383 89.9034 22.6368H123.176L123.205 22.7432C124.033 25.6991 125.942 27.6678 128.059 27.6678H129.241C131.364 27.6678 133.273 25.7228 134.101 22.7432L134.13 22.6368H167.397C168.57 22.6329 169.732 22.8606 170.817 23.3069C171.902 23.7532 172.889 24.4092 173.72 25.2375C174.551 26.0657 175.21 27.0498 175.66 28.1334C176.11 29.217 176.341 30.3787 176.341 31.5519Z" fill="white" stroke="#263238" stroke-linecap="round" stroke-linejoin="round"/>
<path d="M182.814 74.4047V56.4857H181.194V33.5475C181.194 29.797 179.704 26.2001 177.052 23.5481C174.4 20.8961 170.803 19.4063 167.052 19.4062H91.1022C87.3517 19.4062 83.7548 20.8961 81.1028 23.5481C78.4508 26.2001 76.9609 29.797 76.9609 33.5475V215.829C76.9609 219.58 78.4508 223.177 81.1028 225.829C83.7548 228.481 87.3517 229.97 91.1022 229.97H167.052C170.803 229.97 174.4 228.481 177.052 225.829C179.704 223.177 181.194 219.58 181.194 215.829V89.6751H182.814V79.0869H181.194V74.4047H182.814ZM176.754 205.732C176.752 209.482 175.262 213.078 172.61 215.729C169.959 218.381 166.363 219.871 162.613 219.873H95.548C91.7975 219.873 88.2006 218.383 85.5486 215.731C82.8966 213.079 81.4067 209.482 81.4067 205.732V36.7813C81.4067 33.0308 82.8966 29.4339 85.5486 26.7819C88.2006 24.1299 91.7975 22.6401 95.548 22.6401H123.588L123.618 22.7465C124.445 25.7024 126.355 27.6711 128.471 27.6711H129.654C131.776 27.6711 133.686 25.7261 134.513 22.7465L134.543 22.6401H162.583C164.442 22.637 166.284 23.0004 168.003 23.7096C169.722 24.4188 171.284 25.4598 172.6 26.7732C173.916 28.0866 174.96 29.6465 175.673 31.3638C176.386 33.0811 176.753 34.922 176.754 36.7813V205.732Z" fill="url(#paint1_linear_2063_24745)" stroke="#263238" stroke-linecap="round" stroke-linejoin="round"/>
<path d="M165.924 21.3633H92.2384C90.4473 21.3633 88.6738 21.7161 87.019 22.4015C85.3643 23.0869 83.8608 24.0915 82.5943 25.358C81.3278 26.6245 80.3232 28.128 79.6378 29.7827C78.9524 31.4374 78.5996 33.211 78.5996 35.002V214.393C78.5996 218.01 80.0365 221.479 82.5943 224.037C85.1521 226.595 88.6211 228.032 92.2384 228.032H165.924C167.715 228.032 169.488 227.679 171.143 226.993C172.797 226.308 174.3 225.303 175.566 224.036C176.832 222.77 177.836 221.266 178.521 219.612C179.206 217.957 179.558 216.184 179.557 214.393V35.002C179.558 33.2112 179.206 31.4379 178.521 29.7832C177.836 28.1285 176.832 26.6249 175.566 25.3583C174.3 24.0918 172.797 23.0871 171.143 22.4016C169.488 21.7161 167.715 21.3633 165.924 21.3633ZM176.755 206.24C176.755 209.857 175.318 213.327 172.76 215.884C170.202 218.442 166.733 219.879 163.116 219.879H95.0465C91.4293 219.879 87.9602 218.442 85.4025 215.884C82.8447 213.327 81.4078 209.857 81.4078 206.24V36.279C81.4078 32.6633 82.8441 29.1958 85.4007 26.6391C87.9574 24.0825 91.4249 22.6462 95.0406 22.6462H123.589L123.619 22.7526C124.446 25.7085 126.356 27.6772 128.472 27.6772H129.655C131.777 27.6772 133.687 25.7322 134.514 22.7526L134.544 22.6462H163.087C164.88 22.6423 166.657 22.9922 168.315 23.6759C169.973 24.3595 171.48 25.3635 172.75 26.6304C174.019 27.8973 175.027 29.4021 175.714 31.0588C176.401 32.7154 176.755 34.4914 176.755 36.2849V206.24Z" fill="#263238" stroke="#263238" stroke-linecap="round" stroke-linejoin="round"/>
<path d="M130.119 23.3244C130.12 23.0608 130.043 22.8028 129.898 22.5831C129.752 22.3635 129.544 22.1921 129.301 22.0907C129.058 21.9893 128.79 21.9624 128.531 22.0136C128.273 22.0647 128.035 22.1915 127.849 22.3779C127.662 22.5643 127.535 22.8018 127.484 23.0604C127.433 23.319 127.46 23.5869 127.561 23.8302C127.663 24.0735 127.834 24.2812 128.054 24.4269C128.273 24.5726 128.531 24.6498 128.795 24.6486C129.146 24.6486 129.483 24.5091 129.731 24.2608C129.98 24.0124 130.119 23.6756 130.119 23.3244Z" fill="white"/>
<path d="M89.8811 28.4221C89.8811 29.7641 88.3736 30.2489 88.3676 31.2717V31.3426H89.8338V31.7978H87.877V31.3781C87.877 29.9415 89.3845 29.6577 89.3845 28.4221C89.3845 27.9669 89.2367 27.7245 88.8642 27.7245C88.4918 27.7245 88.344 27.9847 88.344 28.3808V28.7769H87.877V28.4221C87.877 27.7423 88.1903 27.293 88.8761 27.293C89.5618 27.293 89.8811 27.7245 89.8811 28.4221Z" fill="#263238"/>
<path d="M92.3168 28.422V28.5344C92.3397 28.7257 92.2988 28.9192 92.2004 29.0849C92.1021 29.2506 91.9518 29.3792 91.7729 29.4507C91.9527 29.5244 92.1034 29.6552 92.2017 29.8229C92.2999 29.9906 92.3404 30.1859 92.3168 30.3789V30.7218C92.3168 31.4016 91.9975 31.845 91.3118 31.845C90.626 31.845 90.3127 31.4016 90.3127 30.7218V30.4143H90.7738V30.7513C90.7738 31.1533 90.9393 31.3957 91.2999 31.3957C91.6606 31.3957 91.8202 31.1592 91.8202 30.7099V30.3611C91.8202 29.9237 91.6369 29.7167 91.2586 29.699H90.9925V29.2556H91.2645C91.3398 29.256 91.4144 29.2405 91.4834 29.2102C91.5524 29.1799 91.6143 29.1355 91.665 29.0797C91.7157 29.024 91.7542 28.9582 91.7778 28.8867C91.8015 28.8151 91.8099 28.7394 91.8025 28.6644V28.422C91.8025 27.9668 91.6428 27.7303 91.2822 27.7303C90.9216 27.7303 90.756 27.9786 90.756 28.3807V28.6112H90.2949V28.422C90.2949 27.7422 90.6142 27.3047 91.294 27.3047C91.9739 27.3047 92.3168 27.7185 92.3168 28.422Z" fill="#263238"/>
<path d="M93.2796 28.7266V29.3178H92.8066V28.7266H93.2796ZM93.2796 31.1504V31.7712H92.8066V31.1504H93.2796Z" fill="#263238"/>
<path d="M94.2898 29.1392C94.3543 29.0218 94.4507 28.9251 94.5679 28.8602C94.6851 28.7954 94.8182 28.765 94.9519 28.7726C95.5431 28.7726 95.7737 29.1924 95.7737 29.825V30.6999C95.7737 31.3798 95.4544 31.8232 94.7686 31.8232C94.0829 31.8232 93.7695 31.3798 93.7695 30.6999V30.3984H94.2248V30.7295C94.2248 31.1315 94.3903 31.3739 94.745 31.3739C95.0997 31.3739 95.2712 31.1315 95.2712 30.7295V29.8663C95.2712 29.4643 95.1056 29.2219 94.745 29.2219C94.6804 29.2196 94.6159 29.2302 94.5554 29.2531C94.4949 29.276 94.4396 29.3108 94.3928 29.3554C94.346 29.4001 94.3085 29.4536 94.2827 29.5129C94.2569 29.5722 94.2432 29.6361 94.2425 29.7008V29.8013H93.7814L93.8996 27.3242H95.6732V27.7676H94.3607L94.2898 29.1392Z" fill="#263238"/>
<path d="M98.2525 28.4262V28.5089H97.7737V28.367C97.7737 27.965 97.6081 27.7285 97.2475 27.7285C96.8869 27.7285 96.7036 27.9709 96.7036 28.4498V29.4489C96.755 29.3012 96.8533 29.1745 96.9836 29.088C97.1138 29.0015 97.2688 28.9601 97.4249 28.97C98.0161 28.97 98.2525 29.3839 98.2525 30.0283V30.7022C98.2525 31.3821 97.9097 31.8255 97.2298 31.8255C96.5499 31.8255 96.207 31.3821 96.207 30.7022V28.4262C96.207 27.7226 96.5263 27.2852 97.2298 27.2852C97.9333 27.2852 98.2525 27.7167 98.2525 28.4262ZM96.7214 30.0933V30.7318C96.7214 31.1338 96.8869 31.3762 97.2475 31.3762C97.6081 31.3762 97.7796 31.1338 97.7796 30.7318V30.0637C97.7796 29.6617 97.6081 29.4194 97.2475 29.4194C96.8869 29.4194 96.7214 29.6617 96.7214 30.0637V30.0933Z" fill="#263238"/>
<path d="M146.892 28.5859H145.633V31.7311H146.892V28.5859Z" fill="#263238"/>
<path d="M148.572 27.957H147.312V31.7347H148.572V27.957Z" fill="#263238"/>
<path d="M150.246 27.5117H148.986V31.7328H150.246V27.5117Z" fill="#263238"/>
<path d="M151.921 26.7266H150.662V31.728H151.921V26.7266Z" fill="#263238"/>
<path d="M167.487 31.6425H159.938V27.0312H167.487V31.6425ZM160.357 31.2287H167.067V27.451H160.357V31.2287Z" fill="#263238"/>
<path d="M164.979 27.9141H160.994V30.7754H164.979V27.9141Z" fill="#263238"/>
<path d="M168.182 28.7969H167.23V29.8847H168.182V28.7969Z" fill="#263238"/>
<path d="M157.175 30.6416C157.124 30.6418 157.075 30.6275 157.033 30.6002C155.496 29.6898 154.479 30.5352 154.438 30.6002C154.412 30.6265 154.381 30.6474 154.347 30.6616C154.313 30.6759 154.276 30.6832 154.24 30.6832C154.203 30.6832 154.166 30.6759 154.132 30.6616C154.098 30.6474 154.067 30.6265 154.041 30.6002C153.99 30.5472 153.961 30.4762 153.961 30.4022C153.961 30.3282 153.99 30.2571 154.041 30.2041C154.101 30.1568 155.395 29.0218 157.299 30.2041C157.331 30.223 157.358 30.2479 157.38 30.2775C157.402 30.3071 157.418 30.3407 157.427 30.3765C157.435 30.4122 157.437 30.4494 157.431 30.4858C157.426 30.5222 157.413 30.557 157.394 30.5884C157.362 30.6114 157.327 30.628 157.29 30.6371C157.252 30.6463 157.213 30.6478 157.175 30.6416Z" fill="#263238"/>
<path d="M157.741 29.6978C157.691 29.6973 157.643 29.6851 157.599 29.6623C155.376 28.338 153.886 29.6209 153.868 29.6623C153.811 29.7046 153.74 29.7238 153.669 29.7161C153.598 29.7085 153.533 29.6745 153.486 29.6209C153.439 29.5673 153.414 29.498 153.416 29.4269C153.418 29.3557 153.446 29.2878 153.496 29.2366C153.496 29.2366 155.317 27.6759 157.888 29.2366C157.92 29.2555 157.948 29.2804 157.97 29.31C157.991 29.3396 158.007 29.3732 158.016 29.409C158.025 29.4447 158.027 29.4819 158.021 29.5183C158.015 29.5546 158.002 29.5895 157.983 29.6209C157.952 29.6521 157.913 29.6753 157.871 29.6887C157.829 29.7021 157.784 29.7052 157.741 29.6978Z" fill="#263238"/>
<path d="M158.263 28.6035C158.211 28.6045 158.159 28.5901 158.115 28.5621C155.301 26.8891 153.433 28.4675 153.356 28.5621C153.328 28.5866 153.296 28.6052 153.261 28.617C153.226 28.6288 153.189 28.6334 153.152 28.6306C153.115 28.6279 153.079 28.6178 153.046 28.601C153.013 28.5841 152.984 28.5609 152.96 28.5326C152.934 28.5067 152.913 28.4759 152.899 28.4419C152.884 28.4079 152.877 28.3714 152.877 28.3345C152.877 28.2977 152.884 28.2612 152.899 28.2272C152.913 28.1932 152.934 28.1623 152.96 28.1365C152.96 28.1365 155.206 26.221 158.381 28.1365C158.445 28.1757 158.492 28.2384 158.51 28.3112C158.529 28.384 158.519 28.4613 158.482 28.5267C158.453 28.5541 158.418 28.5752 158.38 28.5884C158.343 28.6017 158.303 28.6068 158.263 28.6035Z" fill="#263238"/>
<path d="M156.329 31.1235C156.329 31.2638 156.287 31.401 156.209 31.5177C156.132 31.6343 156.021 31.7252 155.891 31.7789C155.761 31.8326 155.619 31.8467 155.481 31.8193C155.344 31.7919 155.217 31.7244 155.118 31.6252C155.019 31.5259 154.951 31.3995 154.924 31.2619C154.896 31.1243 154.91 30.9817 154.964 30.852C155.018 30.7224 155.109 30.6116 155.225 30.5336C155.342 30.4557 155.479 30.4141 155.62 30.4141C155.713 30.4133 155.806 30.4311 155.892 30.4665C155.978 30.5019 156.057 30.5541 156.123 30.6201C156.189 30.6862 156.241 30.7647 156.277 30.8511C156.312 30.9375 156.33 31.0301 156.329 31.1235Z" fill="#263238"/>
<path d="M46.6657 81.6173C46.6657 81.6173 43.556 79.5482 44.2359 78.8919C44.9157 78.2357 48.256 79.6782 49.0186 80.6655C49.7812 81.6528 49.397 82.3149 48.7644 82.3741C48.1318 82.4332 46.6657 81.6173 46.6657 81.6173Z" fill="white" stroke="#263238" stroke-linecap="round" stroke-linejoin="round"/>
<path d="M49.2983 79.2087C49.2983 79.2087 44.4801 76.708 45.6389 79.0196C46.7976 81.3311 49.6826 83.4535 50.8413 84.0329C52.0001 84.6122 58.3613 84.4171 58.3613 84.4171C58.3613 84.4171 57.1789 82.2948 56.0438 81.7154C54.9087 81.136 49.2983 79.2087 49.2983 79.2087Z" fill="white" stroke="#263238" stroke-linecap="round" stroke-linejoin="round"/>
<path d="M53.921 79.213C53.921 79.213 47.5598 75.7486 47.3647 77.0966C47.1696 78.4445 52.378 82.8784 54.1102 83.6469C55.4694 84.1497 56.9058 84.4118 58.3549 84.4214L53.921 79.213Z" fill="white" stroke="#263238" stroke-linecap="round" stroke-linejoin="round"/>
<path d="M78.977 85.1657C78.977 85.1657 76.6654 79.7681 74.9273 78.9996C73.1892 78.2311 57.5818 79.7681 57.5818 79.7681C57.5818 79.7681 50.0618 73.602 50.6412 76.6821C51.2206 79.7622 56.0388 83.4335 57.3867 84.3676C58.7346 85.3017 68.7612 84.9588 68.7612 84.9588L71.8472 87.8497L78.977 85.1657Z" fill="white" stroke="#263238" stroke-linecap="round" stroke-linejoin="round"/>
<path d="M173.868 93.841C173.507 94.5403 173.411 95.3464 173.596 96.1112C173.899 96.8665 174.363 97.5465 174.956 98.1035L175.411 100.918L181.583 101.19L179.041 91.7305L173.868 93.841Z" fill="white" stroke="#263238" stroke-linecap="round" stroke-linejoin="round"/>
<path d="M169.678 76.3048C169.678 76.3048 172.249 93.0355 172.634 94.0405C173.018 95.0456 175.98 96.228 177.014 95.7136C178.049 95.1993 176.24 92.7577 176.24 92.7577L176.754 76.6714C176.754 76.6714 172.379 75.0042 169.678 76.3048Z" fill="#263238" stroke="#263238" stroke-linecap="round" stroke-linejoin="round"/>
<path d="M176.889 81.5612C176.889 81.5612 173.283 81.307 173.153 81.9514C173.023 82.5957 173.029 84.7772 173.673 85.0374C174.317 85.2975 178.692 85.6818 179.461 85.4216C179.718 85.291 179.946 85.1098 180.132 84.8889C180.318 84.668 180.457 84.4119 180.541 84.136C180.626 83.86 180.654 83.5699 180.624 83.2829C180.593 82.9959 180.505 82.7179 180.365 82.4657C179.591 81.307 176.889 81.5612 176.889 81.5612Z" fill="white" stroke="#263238" stroke-linecap="round" stroke-linejoin="round"/>
<path d="M176.885 85.6831C176.885 85.6831 173.409 85.6831 173.539 86.4517C173.669 87.2202 173.279 88.8992 174.721 89.1593C176.432 89.372 178.166 89.3281 179.864 89.0293C180.154 88.9756 180.421 88.8392 180.634 88.6366C180.847 88.434 180.997 88.1739 181.065 87.8879C181.133 87.6019 181.117 87.3022 181.018 87.0252C180.92 86.7483 180.743 86.5059 180.509 86.3275C179.457 85.423 176.885 85.6831 176.885 85.6831Z" fill="white" stroke="#263238" stroke-linecap="round" stroke-linejoin="round"/>
<path d="M171.296 86.6684C171.296 86.6684 170.853 83.4287 169.806 83.5174C169.026 83.5824 167.164 84.1736 167.335 85.5984C167.629 87.2992 168.18 88.9456 168.967 90.4816C169.103 90.7425 169.312 90.9582 169.568 91.1026C169.825 91.247 170.117 91.3139 170.411 91.2951C170.705 91.2763 170.986 91.1727 171.222 90.9968C171.458 90.8209 171.638 90.5803 171.74 90.3043C172.301 89.0569 171.296 86.6684 171.296 86.6684Z" fill="white" stroke="#263238" stroke-linecap="round" stroke-linejoin="round"/>
<path d="M177.085 89.1564C177.085 89.1564 173.94 89.1564 174.058 89.9013C174.176 90.6462 173.821 92.266 175.104 92.5025C176.654 92.7052 178.226 92.6634 179.763 92.3783C180.032 92.3129 180.278 92.1737 180.473 91.9763C180.667 91.7788 180.803 91.5311 180.864 91.2608C180.925 90.9905 180.91 90.7085 180.82 90.4464C180.73 90.1843 180.569 89.9525 180.354 89.7771C179.414 88.914 177.085 89.1564 177.085 89.1564Z" fill="white" stroke="#263238" stroke-linecap="round" stroke-linejoin="round"/>
<path d="M177.23 91.974C177.23 91.974 174.6 91.974 174.7 92.5652C174.801 93.1564 174.505 94.5338 175.575 94.7408C176.871 94.9155 178.186 94.8816 179.471 94.6403C179.695 94.5838 179.899 94.4662 180.06 94.3005C180.222 94.1348 180.334 93.9276 180.384 93.7019C180.434 93.4763 180.421 93.2411 180.345 93.0226C180.27 92.8041 180.135 92.611 179.956 92.4647C179.181 91.7671 177.23 91.974 177.23 91.974Z" fill="white" stroke="#263238" stroke-linecap="round" stroke-linejoin="round"/>
<path d="M168.964 59.3617C167.297 59.3677 165.665 59.8473 164.259 60.7447C162.854 61.642 161.732 62.9202 161.025 64.4304C160.317 65.9406 160.053 67.6206 160.264 69.275C160.474 70.9293 161.15 72.4898 162.213 73.7749C163.827 75.7199 166.47 77.1151 168.988 76.9555C176.709 76.4825 196.951 87.325 196.951 87.325V48.9922C196.951 48.9922 176.993 59.5213 168.964 59.3617Z" fill="white" stroke="#263238" stroke-linecap="round" stroke-linejoin="round"/>
<path d="M167.392 68.4706C167.392 66.4916 167.925 64.5492 168.937 62.8481C169.948 61.1469 171.4 59.7501 173.138 58.8047C171.774 59.155 170.373 59.3416 168.964 59.3604C167.297 59.3664 165.665 59.8461 164.259 60.7434C162.854 61.6408 161.732 62.919 161.025 64.4291C160.317 65.9393 160.053 67.6194 160.264 69.2737C160.474 70.928 161.15 72.4886 162.213 73.7736C163.827 75.7186 166.47 77.1139 168.988 76.9542C169.883 76.9192 170.779 76.9807 171.66 77.1375C170.335 76.1144 169.261 74.8014 168.521 73.2991C167.781 71.7969 167.395 70.1452 167.392 68.4706Z" fill="url(#paint2_linear_2063_24745)" stroke="#263238" stroke-linecap="round" stroke-linejoin="round"/>
<path d="M215.542 72.6852C218.045 62.4002 211.737 52.0331 201.452 49.5297C191.167 47.0263 180.8 53.3345 178.297 63.6195C175.793 73.9045 182.101 84.2716 192.386 86.775C202.671 89.2784 213.038 82.9702 215.542 72.6852Z" fill="white" stroke="#263238" stroke-linecap="round" stroke-linejoin="round"/>
<path d="M213.261 68.1549C213.262 71.387 212.305 74.5468 210.51 77.2348C208.715 79.9228 206.164 82.0181 203.178 83.2558C200.192 84.4934 196.906 84.8179 193.736 84.188C190.566 83.5582 187.654 82.0024 185.368 79.7174C183.082 77.4324 181.525 74.5208 180.894 71.3509C180.264 68.181 180.587 64.8951 181.823 61.9089C183.06 58.9228 185.154 56.3704 187.842 54.5746C190.529 52.7788 193.688 51.8203 196.921 51.8203C201.253 51.8219 205.407 53.5432 208.471 56.606C211.535 59.6688 213.258 63.8226 213.261 68.1549Z" fill="#A6A6A6" stroke="#263238" stroke-linecap="round" stroke-linejoin="round"/>
<path d="M196.922 64.1561V72.1549L184.354 78.593C182.439 76.2807 181.197 73.4863 180.765 70.5156C180.332 67.5449 180.725 64.5124 181.9 61.75L196.922 64.1561Z" fill="white" stroke="#263238" stroke-linecap="round" stroke-linejoin="round"/>
<path d="M200.915 68.1585C200.915 68.948 200.68 69.7198 200.242 70.3761C199.803 71.0325 199.179 71.544 198.45 71.8458C197.72 72.1477 196.918 72.2264 196.143 72.0719C195.369 71.9175 194.658 71.5368 194.1 70.9781C193.542 70.4195 193.163 69.7079 193.01 68.9334C192.856 68.1589 192.936 67.3564 193.239 66.6273C193.542 65.8982 194.054 65.2754 194.711 64.8376C195.368 64.3999 196.141 64.1668 196.93 64.168C197.987 64.1695 199.001 64.5907 199.748 65.3389C200.495 66.0871 200.915 67.1012 200.915 68.1585Z" fill="white" stroke="#263238" stroke-linecap="round" stroke-linejoin="round"/>
<path d="M174.121 101.162L173.482 98.4837L181.771 97.4609L181.588 101.18L174.121 101.162Z" fill="white" stroke="#263238" stroke-linecap="round" stroke-linejoin="round"/>
<path d="M71.347 88.9204L69.4375 85.858L78.2344 81.3945L78.9734 85.1486L71.347 88.9204Z" fill="white" stroke="#263238" stroke-linecap="round" stroke-linejoin="round"/>
<path d="M124.825 84.4858C124.825 84.4858 110.684 82.9133 109.454 83.5399C108.224 84.1666 90.2877 105.378 90.2877 105.378L79.268 83.3862L69.9922 87.4654C69.9922 87.4654 81.615 127.075 83.5009 127.524C85.3868 127.974 103.294 116.061 103.294 116.061L102.194 131.769C102.194 131.769 105.493 144.965 120.107 147.477C134.722 149.99 143.353 138.68 145.239 134.908C146.643 131.902 147.85 128.808 148.851 125.644L155.608 105.692C155.608 105.692 174.633 121.222 178.866 123.126C183.099 125.03 187.03 126.744 187.503 125.798C187.976 124.852 183.264 99.7208 183.264 99.7208L173.214 100.194L173.687 104.119C173.687 104.119 160.645 86.9747 159.546 85.2662C158.446 83.5577 155.147 83.8533 151.222 82.7536C147.296 81.654 124.825 84.4858 124.825 84.4858Z" fill="url(#paint3_linear_2063_24745)" stroke="#263238" stroke-linecap="round" stroke-linejoin="round"/>
<path d="M103.299 116.076L113.828 108.219" stroke="#263238" stroke-linecap="round" stroke-linejoin="round"/>
<path d="M110.055 111.196L115.393 110.25" stroke="#263238" stroke-linecap="round" stroke-linejoin="round"/>
<path d="M155.611 105.693L159.224 92.9648" stroke="#263238" stroke-linecap="round" stroke-linejoin="round"/>
<path d="M157.023 101.611L160.949 96.1133" stroke="#263238" stroke-linecap="round" stroke-linejoin="round"/>
<path d="M174.141 113.273L174.3 116.383" stroke="#263238" stroke-linecap="round" stroke-linejoin="round"/>
<path d="M173.678 104.133L173.961 109.731" stroke="#263238" stroke-linecap="round" stroke-linejoin="round"/>
<path d="M90.2598 105.391L93.5586 112.302" stroke="#263238" stroke-linecap="round" stroke-linejoin="round"/>
<path d="M130.158 82.7627L123.247 84.022C123.247 84.022 120.734 86.0616 119.321 90.7734C118.463 93.6517 117.833 96.5931 117.436 99.5703L123.407 99.8895L118.677 104.619C118.677 104.619 120.096 106.659 123.076 111.057C125.43 114.373 127.997 117.533 130.761 120.516L122.011 131.778C122.011 131.778 132.694 129.414 139.292 122.195C145.89 114.977 149.797 104.128 149.797 104.128L144.613 100.043L150.111 98.9436C150.111 98.9436 151.21 89.993 145.381 84.1639C139.552 78.3347 130.158 82.7627 130.158 82.7627Z" fill="url(#paint4_linear_2063_24745)" stroke="#263238" stroke-linecap="round" stroke-linejoin="round"/>
<path d="M145.717 86.5285C145.717 86.5285 143.884 90.1584 143.517 96.898C143.234 102.16 140.473 108.864 138.037 113.605C136.104 117.377 134.372 119.907 134.247 119.517C134.247 119.517 133.231 117.885 131.605 113.132C131.209 111.997 130.783 110.673 130.322 109.142C127.957 101.285 125.923 88.5622 126.863 86.0497C127.305 84.8111 127.83 83.6042 128.436 82.4375C135.98 92.6533 145.717 86.5285 145.717 86.5285Z" fill="white" stroke="#263238" stroke-linecap="round" stroke-linejoin="round"/>
<path d="M136.13 108.053L138.034 113.604C136.101 117.376 134.368 119.906 134.244 119.516C134.244 119.516 133.227 117.884 131.602 113.131L134.244 108.36L131.619 103.447L134.717 100.344L138.956 104.588L136.13 108.053Z" fill="#263238" stroke="#263238" stroke-linecap="round" stroke-linejoin="round"/>
<path d="M129.533 105.704L134.718 100.359L141.032 106.319" stroke="#263238" stroke-linecap="round" stroke-linejoin="round"/>
<path d="M128.436 82.4492C128.612 85.6142 129.248 88.7367 130.321 91.7191C131.511 94.7308 132.984 97.6229 134.72 100.356L142.116 89.8332C142.116 89.8332 134.093 90.6195 128.436 82.4492Z" stroke="#263238" stroke-linecap="round" stroke-linejoin="round"/>
<path d="M150.904 65.8049C150.904 65.8049 153.151 65.4561 153.151 68.5244C153.151 71.5927 151.85 75.3704 151.85 75.3704L150.904 65.8049Z" fill="white" stroke="#263238" stroke-linecap="round" stroke-linejoin="round"/>
<path d="M150.112 54.487C150.112 54.487 151.684 68.782 151.838 73.0267C151.992 77.2715 151.525 81.0373 150.112 82.9232C148.699 84.8091 143.018 92.3468 140.062 92.6601C137.106 92.9735 133.777 91.4068 132.524 90.2954C131.271 89.1839 125.294 79.7663 125.294 79.7663C125.294 79.7663 120.742 79.453 119.642 73.4819C118.542 67.5109 124.667 68.9298 124.667 68.9298C124.667 68.9298 121.368 63.745 121.055 58.7199C120.742 53.6948 119.796 51.803 133.31 51.4897C146.825 51.1763 150.112 54.487 150.112 54.487Z" fill="white" stroke="#263238" stroke-linecap="round" stroke-linejoin="round"/>
<path d="M143.04 64.543L146.811 77.5787L141 75.8524" stroke="#263238" stroke-linecap="round" stroke-linejoin="round"/>
<path d="M135.193 74.2773L130.635 75.2232" stroke="#263238" stroke-linecap="round" stroke-linejoin="round"/>
<path d="M132.99 75.0703C133.427 76.4044 134.236 77.5862 135.32 78.4773C136.405 79.3683 137.721 79.9317 139.115 80.1013C144.14 80.8817 146.653 79.9417 146.653 79.9417" stroke="#263238" stroke-linecap="round" stroke-linejoin="round"/>
<path d="M134.244 77.5742C134.244 77.5742 134.09 85.4311 136.916 85.7445C139.742 86.0578 139.115 80.0927 139.115 80.0927C137.331 79.609 135.67 78.7504 134.244 77.5742Z" fill="#263238" stroke="#263238" stroke-linecap="round" stroke-linejoin="round"/>
<path d="M134.826 83.0117C135.21 84.4424 135.855 85.6307 136.919 85.7489C137.187 85.7867 137.46 85.7518 137.709 85.6477C137.959 85.5437 138.176 85.3745 138.338 85.1577C137.788 84.1941 135.89 83.396 134.826 83.0117Z" fill="white" stroke="#263238" stroke-linecap="round" stroke-linejoin="round"/>
<path d="M136.199 68.1546C136.199 69.0236 135.815 69.7272 135.336 69.7272C134.857 69.7272 134.473 69.0236 134.473 68.1546C134.473 67.2855 134.857 66.582 135.336 66.582C135.815 66.582 136.199 67.2855 136.199 68.1546Z" fill="#263238"/>
<path d="M146.736 66.7405C146.736 67.6096 146.346 68.3131 145.867 68.3131C145.388 68.3131 145.004 67.6096 145.004 66.7405C145.004 65.8715 145.394 65.168 145.867 65.168C146.34 65.168 146.736 65.8715 146.736 66.7405Z" fill="#263238"/>
<path d="M132.514 65.4827C133.248 64.6485 134.178 64.0105 135.221 63.6265C136.263 63.2425 137.385 63.1246 138.485 63.2835" stroke="#263238" stroke-linecap="round" stroke-linejoin="round"/>
<path d="M143.518 62.6561C143.518 62.6561 145.557 58.8843 148.838 60.7702" stroke="#263238" stroke-linecap="round" stroke-linejoin="round"/>
<path d="M133.457 54.7987C133.457 54.7987 128.591 54.0124 129.691 55.4312C130.79 56.8501 133.303 58.5704 132.055 59.6701C130.808 60.7697 127.657 62.626 127.817 63.5956C127.976 64.5651 128.284 68.467 127.817 69.4129C127.35 70.3588 126.244 70.5125 125.144 70.3529C124.045 70.1932 122.472 67.3673 121.846 66.5811C121.219 65.7948 115.561 60.143 116.661 55.5849C117.76 51.0269 129.543 47.4147 129.543 47.4147C129.543 47.4147 137.069 38.937 142.112 38.7774C147.154 38.6178 145.251 43.3355 145.068 43.8025C144.884 44.2696 152.292 43.3355 153.705 47.8876C155.118 52.4398 154.651 53.699 148.207 55.4312C141.763 57.1634 133.457 54.7987 133.457 54.7987Z" fill="#263238" stroke="#263238" stroke-linecap="round" stroke-linejoin="round"/>
<path d="M232.551 48.5312L219.746 51.8419L222.395 53.1662L215.111 55.3772L229.897 53.3908L226.149 51.6232L232.551 48.5312Z" fill="#263238"/>
<path d="M235.176 79.6976L222.223 77.0195L224.02 79.3725L216.506 78.1428L230.653 82.8841L228.064 79.6444L235.176 79.6976Z" fill="#263238"/>
<path d="M221.253 101.044L210.346 93.5593L211.091 96.4266L204.641 92.3828L215.85 102.238L214.72 98.2474L221.253 101.044Z" fill="#263238"/>
<path d="M104.996 177.873V159.777H109.33C110.379 159.75 111.425 159.896 112.427 160.208C113.223 160.463 113.904 160.99 114.349 161.698C114.832 162.569 115.062 163.558 115.011 164.553C115.016 165.215 114.949 165.875 114.81 166.522C114.691 167.062 114.457 167.57 114.124 168.012C113.774 168.441 113.314 168.768 112.794 168.958L115.318 177.873H112.014L109.826 169.596H108.307V177.873H104.996ZM108.307 167.503H109.33C109.854 167.528 110.378 167.433 110.861 167.226C111.239 167.046 111.532 166.726 111.677 166.333C111.858 165.829 111.942 165.295 111.925 164.76C111.977 164.042 111.801 163.326 111.422 162.715C111.085 162.26 110.447 162.029 109.513 162.029H108.33L108.307 167.503Z" fill="url(#paint5_linear_2063_24745)"/>
<path d="M116.32 177.87V159.773H123.917V162.097H119.649V167.299H123.018V169.605H119.649V175.623H123.982V177.899L116.32 177.87Z" fill="url(#paint6_linear_2063_24745)"/>
<path d="M124.98 177.87V159.773H132.424V162.026H128.285V167.347H131.661V169.652H128.285V177.87H124.98Z" fill="url(#paint7_linear_2063_24745)"/>
<path d="M133.426 177.87V159.773H141.023V162.097H136.731V167.299H140.106V169.605H136.731V175.623H141.082V177.899L133.426 177.87Z" fill="url(#paint8_linear_2063_24745)"/>
<path d="M142.078 177.873V159.777H146.412C147.459 159.75 148.503 159.896 149.503 160.208C150.302 160.462 150.984 160.989 151.431 161.698C151.912 162.57 152.14 163.559 152.087 164.553C152.095 165.215 152.028 165.876 151.886 166.522C151.769 167.062 151.537 167.57 151.206 168.012C150.856 168.441 150.396 168.768 149.876 168.958L152.4 177.873H149.09L146.902 169.596H145.383V177.873H142.078ZM145.383 167.503H146.412C146.936 167.528 147.46 167.433 147.943 167.226C148.319 167.043 148.61 166.724 148.759 166.333C148.935 165.828 149.017 165.295 149.001 164.76C149.053 164.042 148.878 163.327 148.498 162.715C148.167 162.26 147.529 162.029 146.589 162.029H145.407L145.383 167.503Z" fill="url(#paint9_linear_2063_24745)"/>
<path d="M62.3183 79.2851C70.814 79.2851 77.7011 72.398 77.7011 63.9023C77.7011 55.4066 70.814 48.5195 62.3183 48.5195C53.8227 48.5195 46.9355 55.4066 46.9355 63.9023C46.9355 72.398 53.8227 79.2851 62.3183 79.2851Z" fill="url(#paint10_linear_2063_24745)" stroke="white" stroke-linecap="round" stroke-linejoin="round"/>
<path d="M62.4252 76.3624V74.2932C60.7107 74.2223 59.4397 73.6666 58.6002 72.6202C57.7607 71.5738 57.2996 70.0899 57.2168 68.1626L60.4033 67.5714C60.4231 68.2418 60.5062 68.9089 60.6516 69.5637C60.7562 70.0814 61.0017 70.5601 61.361 70.9471C61.5306 71.111 61.7319 71.2385 61.9525 71.3219C62.173 71.4052 62.4083 71.4427 62.6439 71.4319C62.8849 71.4546 63.1278 71.4179 63.3515 71.3252C63.5751 71.2325 63.7726 71.0864 63.9268 70.8998C64.1974 70.4995 64.3321 70.0228 64.3111 69.5401C64.3503 68.7742 64.1431 68.0159 63.7199 67.3763C63.2584 66.752 62.7268 66.1827 62.1355 65.6796L59.5697 63.439C59.1243 63.0421 58.7166 62.6047 58.3519 62.1325C57.9987 61.6622 57.7214 61.1396 57.5301 60.5835C57.3177 59.9372 57.2158 59.2596 57.2286 58.5794C57.1913 57.9311 57.287 57.2821 57.5096 56.6721C57.7323 56.0621 58.0772 55.5041 58.5233 55.0323C59.4689 54.1432 60.7135 53.6411 62.0113 53.6252V51.6211H63.0873V53.6016C63.8194 53.6215 64.5364 53.8139 65.1801 54.1632C65.7075 54.4707 66.1551 54.8981 66.4867 55.4106C66.8184 55.947 67.06 56.5342 67.202 57.1487C67.3634 57.7936 67.4585 58.4532 67.4858 59.1174L64.3465 59.6672C64.3237 59.0936 64.2585 58.5226 64.1515 57.9587C64.0774 57.5201 63.883 57.1108 63.5898 56.7763C63.4341 56.6278 63.247 56.5161 63.0424 56.4496C62.8377 56.3831 62.6207 56.3634 62.4074 56.392C62.1664 56.3839 61.9265 56.4289 61.7047 56.524C61.483 56.619 61.2849 56.7616 61.1246 56.9418C60.8229 57.3132 60.6673 57.7821 60.6871 58.2602C60.6613 58.8726 60.8266 59.478 61.16 59.9923C61.5087 60.4669 61.9049 60.9047 62.3424 61.2989L64.8845 63.5158C65.4164 64.0015 65.9123 64.5251 66.3684 65.0825C66.8278 65.6555 67.1966 66.2955 67.4621 66.9802C67.7427 67.7366 67.881 68.5383 67.87 69.345C67.885 70.1778 67.7027 71.0023 67.338 71.7511C66.9911 72.441 66.4718 73.0295 65.8304 73.4597C65.1342 73.9088 64.3385 74.1808 63.513 74.2519V76.3624H62.4252Z" fill="white"/>
<path d="M87 205.108L90.6181 187.012H94.1652L97.7892 205.108H94.7209L94.0056 200.934H90.8546L90.1156 205.108H87ZM91.1738 198.83H93.6272L92.3976 191.233L91.1738 198.83Z" fill="url(#paint11_linear_2063_24745)"/>
<path d="M98.7891 205.108V187.012H101.095L105.493 197.328V187.012H108.224V205.108H106.031L101.609 194.295V205.108H98.7891Z" fill="url(#paint12_linear_2063_24745)"/>
<path d="M109.227 205.114V187.018H113.495C114.677 186.959 115.858 187.161 116.953 187.609C117.755 187.983 118.387 188.643 118.727 189.459C119.108 190.473 119.287 191.552 119.253 192.634V199.25C119.285 200.365 119.107 201.476 118.727 202.525C118.398 203.371 117.766 204.064 116.953 204.47C115.905 204.939 114.761 205.156 113.613 205.102L109.227 205.114ZM112.537 202.814H113.542C114.116 202.864 114.689 202.723 115.174 202.412C115.516 202.109 115.728 201.686 115.765 201.23C115.848 200.603 115.886 199.971 115.877 199.338V192.421C115.892 191.826 115.838 191.231 115.718 190.648C115.688 190.449 115.618 190.258 115.514 190.087C115.409 189.915 115.272 189.766 115.109 189.649C114.616 189.405 114.067 189.296 113.519 189.335H112.561L112.537 202.814Z" fill="url(#paint13_linear_2063_24745)"/>
<path d="M148.543 205.15V187.054H152.876C153.926 187.028 154.972 187.173 155.974 187.485C156.77 187.74 157.451 188.268 157.896 188.975C158.377 189.847 158.605 190.836 158.552 191.831C158.559 192.492 158.494 193.152 158.357 193.799C158.238 194.339 158.004 194.848 157.671 195.289C157.321 195.718 156.861 196.045 156.341 196.235L158.865 205.15H155.56L153.373 196.873H151.854V205.15H148.543ZM151.854 194.787H152.876C153.402 194.81 153.925 194.713 154.408 194.503C154.785 194.322 155.077 194.002 155.223 193.61C155.405 193.106 155.489 192.573 155.472 192.038C155.521 191.32 155.345 190.605 154.969 189.992C154.632 189.537 153.994 189.306 153.06 189.306H151.877L151.854 194.787Z" fill="url(#paint14_linear_2063_24745)"/>
<path d="M127.539 205.147V187.051H135.136V189.374H130.844V194.577H134.22V196.882H130.844V202.871H135.177V205.147H127.539Z" fill="url(#paint15_linear_2063_24745)"/>
<path d="M136.539 205.104L140.157 187.008H143.704L147.328 205.104H144.26L143.545 200.93H140.394L139.655 205.104H136.539ZM140.713 198.826H143.166L141.937 191.229L140.713 198.826Z" fill="url(#paint16_linear_2063_24745)"/>
<path d="M160.859 205.104V187.008H163.165L167.563 197.324V187.008H170.295V205.104H168.101L163.679 194.291V205.104H160.859Z" fill="url(#paint17_linear_2063_24745)"/>
<defs>
<linearGradient id="paint0_linear_2063_24745" x1="-3.54422e-06" y1="-316.28" x2="124.628" y2="314.58" gradientUnits="userSpaceOnUse">
<stop stop-color="#FFDA46"/>
<stop offset="1" stop-color="#FFAE00"/>
</linearGradient>
<linearGradient id="paint1_linear_2063_24745" x1="76.9609" y1="-261.697" x2="286.023" y2="232.428" gradientUnits="userSpaceOnUse">
<stop stop-color="#FFDA46"/>
<stop offset="1" stop-color="#FFAE00"/>
</linearGradient>
<linearGradient id="paint2_linear_2063_24745" x1="160.193" y1="34.3304" x2="174.201" y2="80.8332" gradientUnits="userSpaceOnUse">
<stop stop-color="#FFDA46"/>
<stop offset="1" stop-color="#FFAE00"/>
</linearGradient>
<linearGradient id="paint3_linear_2063_24745" x1="69.9922" y1="-4.72584" x2="91.0698" y2="173.555" gradientUnits="userSpaceOnUse">
<stop stop-color="#FFDA46"/>
<stop offset="1" stop-color="#FFAE00"/>
</linearGradient>
<linearGradient id="paint4_linear_2063_24745" x1="117.436" y1="13.5667" x2="158.988" y2="139.977" gradientUnits="userSpaceOnUse">
<stop stop-color="#FFDA46"/>
<stop offset="1" stop-color="#FFAE00"/>
</linearGradient>
<linearGradient id="paint5_linear_2063_24745" x1="104.996" y1="135.611" x2="121.392" y2="179.573" gradientUnits="userSpaceOnUse">
<stop stop-color="#FFDA46"/>
<stop offset="1" stop-color="#FFAE00"/>
</linearGradient>
<linearGradient id="paint6_linear_2063_24745" x1="116.32" y1="135.575" x2="136.456" y2="175.593" gradientUnits="userSpaceOnUse">
<stop stop-color="#FFDA46"/>
<stop offset="1" stop-color="#FFAE00"/>
</linearGradient>
<linearGradient id="paint7_linear_2063_24745" x1="124.98" y1="135.615" x2="145.409" y2="175.119" gradientUnits="userSpaceOnUse">
<stop stop-color="#FFDA46"/>
<stop offset="1" stop-color="#FFAE00"/>
</linearGradient>
<linearGradient id="paint8_linear_2063_24745" x1="133.426" y1="135.575" x2="153.571" y2="175.581" gradientUnits="userSpaceOnUse">
<stop stop-color="#FFDA46"/>
<stop offset="1" stop-color="#FFAE00"/>
</linearGradient>
<linearGradient id="paint9_linear_2063_24745" x1="142.078" y1="135.611" x2="158.474" y2="179.573" gradientUnits="userSpaceOnUse">
<stop stop-color="#FFDA46"/>
<stop offset="1" stop-color="#FFAE00"/>
</linearGradient>
<linearGradient id="paint10_linear_2063_24745" x1="46.9355" y1="7.44754" x2="64.2565" y2="88.8839" gradientUnits="userSpaceOnUse">
<stop stop-color="#FFDA46"/>
<stop offset="1" stop-color="#FFAE00"/>
</linearGradient>
<linearGradient id="paint11_linear_2063_24745" x1="87" y1="162.853" x2="102.845" y2="207.269" gradientUnits="userSpaceOnUse">
<stop stop-color="#FFDA46"/>
<stop offset="1" stop-color="#FFAE00"/>
</linearGradient>
<linearGradient id="paint12_linear_2063_24745" x1="98.7891" y1="162.853" x2="116.299" y2="205.778" gradientUnits="userSpaceOnUse">
<stop stop-color="#FFDA46"/>
<stop offset="1" stop-color="#FFAE00"/>
</linearGradient>
<linearGradient id="paint13_linear_2063_24745" x1="109.227" y1="162.836" x2="125.989" y2="206.496" gradientUnits="userSpaceOnUse">
<stop stop-color="#FFDA46"/>
<stop offset="1" stop-color="#FFAE00"/>
</linearGradient>
<linearGradient id="paint14_linear_2063_24745" x1="148.543" y1="162.888" x2="164.938" y2="206.85" gradientUnits="userSpaceOnUse">
<stop stop-color="#FFDA46"/>
<stop offset="1" stop-color="#FFAE00"/>
</linearGradient>
<linearGradient id="paint15_linear_2063_24745" x1="127.539" y1="162.892" x2="147.66" y2="202.821" gradientUnits="userSpaceOnUse">
<stop stop-color="#FFDA46"/>
<stop offset="1" stop-color="#FFAE00"/>
</linearGradient>
<linearGradient id="paint16_linear_2063_24745" x1="136.539" y1="162.849" x2="152.384" y2="207.265" gradientUnits="userSpaceOnUse">
<stop stop-color="#FFDA46"/>
<stop offset="1" stop-color="#FFAE00"/>
</linearGradient>
<linearGradient id="paint17_linear_2063_24745" x1="160.859" y1="162.849" x2="178.37" y2="205.774" gradientUnits="userSpaceOnUse">
<stop stop-color="#FFDA46"/>
<stop offset="1" stop-color="#FFAE00"/>
</linearGradient>
</defs>
</svg>
