<svg xmlns="http://www.w3.org/2000/svg" width="22" height="23" viewBox="0 0 22 23" fill="none">
  <path d="M8.76452 11.0583C7.17084 10.202 5.93065 9.22726 5.02722 8.1417C4.43732 7.24712 4.37688 6.52415 4.67731 5.89824C5.00106 5.22374 5.79959 4.53527 7.22174 3.88117C9.2557 3.19674 11.4036 3.07161 13.6755 3.51458C15.2369 3.94352 16.2907 4.48931 16.9075 5.11236C17.4932 5.70397 17.705 6.38259 17.5572 7.20105C17.2625 8.10294 16.5928 8.94862 15.4822 9.72563C14.7892 10.1813 14.0799 10.63 13.3543 11.0717L12.6243 11.5161L13.3694 11.9347C14.2951 12.4548 15.1369 13.008 15.8959 13.5937L15.8959 13.5938L15.8991 13.5962C17.2799 14.644 17.7572 15.7232 17.5577 16.8587C17.1602 18.0027 15.9638 18.9181 13.6855 19.4808C10.2095 20.1053 7.46849 19.6034 5.39127 18.0614C4.99273 17.6622 4.71464 17.259 4.54225 16.8538C4.39467 15.6627 4.9448 14.5354 6.4097 13.4571C7.15005 12.9281 7.93986 12.4194 8.77931 11.931L9.5519 11.4814L8.76452 11.0583ZM7.15974 16.8355L7.17129 16.896L7.19719 16.9519C7.58852 17.7968 8.46983 18.3157 9.63295 18.6101L9.65016 18.6144L9.66763 18.6176C11.5113 18.9471 13.083 18.6948 14.3094 17.7725L14.3517 17.7408L14.3863 17.7009C14.724 17.3124 14.9427 16.8806 14.9833 16.4085C15.0242 15.9333 14.8792 15.4789 14.6016 15.0585L14.5884 15.0385L14.5733 15.0198C13.7612 14.0141 12.6257 13.1869 11.1929 12.5255L10.9613 12.4185L10.7387 12.5434C9.62684 13.1672 8.66988 13.8635 7.87312 14.6349L7.86101 14.6466L7.84972 14.6591C7.26965 15.3019 7.00757 16.0379 7.15974 16.8355ZM7.16434 7.24481L7.1852 7.33294L7.23565 7.40814C7.3367 7.55879 7.42756 7.71686 7.50835 7.88266L7.53436 7.93602L7.57214 7.98181C8.37497 8.95495 9.47219 9.78707 10.8436 10.4877L11.0743 10.6055L11.3036 10.485C12.4797 9.86725 13.4728 9.15929 14.2749 8.35692L14.2827 8.34908L14.2902 8.34089C14.6164 7.98417 14.846 7.59237 14.9427 7.16441C15.0404 6.73167 14.9941 6.29706 14.8233 5.87433L14.7979 5.81144L14.7567 5.75759C13.7771 4.47841 12.105 4.07069 9.95936 4.32719L9.93222 4.33044L9.90559 4.33662C8.95202 4.55809 8.1885 4.88396 7.69694 5.36267C7.17107 5.8748 6.99421 6.52628 7.16434 7.24481Z" fill="black" stroke="black"/>
  <path d="M10.3507 9.59096L11.8262 8.81921L15.2533 10.7163L13.9237 11.676L10.3507 9.59096Z" fill="white"/>
  <path d="M6.64165 11.7383L7.91227 11.1459L11.2949 13.1886L10.198 14.0195L6.64165 11.7383Z" fill="white"/>
  <rect x="9.64062" y="0.5" width="2.82051" height="3.38462" rx="1.41026" fill="black"/>
  <rect x="9.64062" y="19.1172" width="2.82051" height="3.38462" rx="1.41026" fill="black"/>
</svg>