<svg width="32" height="32" viewBox="0 0 32 32" fill="none" xmlns="http://www.w3.org/2000/svg">
<g clip-path="url(#clip0_2063_24329)">
<path opacity="0.996" fill-rule="evenodd" clip-rule="evenodd" d="M31.9688 12.2813C31.9688 12.5938 31.9688 12.9063 31.9688 13.2188C31.7505 13.7244 31.4172 14.1515 30.9688 14.5001C28.794 16.3622 26.6378 18.2476 24.5 20.1563C25.1663 23.301 25.8434 26.4469 26.5312 29.5938C26.4731 30.6832 25.9002 31.2665 24.8125 31.3438C24.4948 31.3347 24.1928 31.2618 23.9062 31.1251C21.2787 29.5197 18.6329 27.9467 15.9688 26.4063C13.263 27.9676 10.5755 29.5614 7.90625 31.1876C7.01331 31.5354 6.27375 31.3375 5.6875 30.5938C5.42713 30.1692 5.34379 29.7109 5.4375 29.2188C6.14487 26.2024 6.81156 23.1815 7.4375 20.1563C5.02149 18.0527 2.62566 15.9277 0.25 13.7813C0.149699 13.6131 0.0559489 13.4464 -0.03125 13.2813C-0.03125 12.948 -0.03125 12.6146 -0.03125 12.2813C0.205415 11.5972 0.684581 11.191 1.40625 11.0626C4.51156 10.7822 7.61575 10.4905 10.7188 10.1876C11.9873 7.26505 13.2476 4.33797 14.5 1.4063C15.155 0.613404 15.9571 0.43632 16.9062 0.875054C17.125 1.01047 17.3021 1.18755 17.4375 1.4063C18.6899 4.33797 19.9503 7.26505 21.2188 10.1876C24.4294 10.4813 27.6378 10.7938 30.8438 11.1251C31.4027 11.3401 31.7777 11.7256 31.9688 12.2813Z" fill="url(#paint0_linear_2063_24329)"/>
</g>
<defs>
<linearGradient id="paint0_linear_2063_24329" x1="-0.0312504" y1="-40.3615" x2="16.6218" y2="41.2146" gradientUnits="userSpaceOnUse">
<stop stop-color="#FFDA46"/>
<stop offset="1" stop-color="#FFAE00"/>
</linearGradient>
<clipPath id="clip0_2063_24329">
<rect width="32" height="32" fill="white"/>
</clipPath>
</defs>
</svg>
