<svg xmlns="http://www.w3.org/2000/svg" width="24" height="23" viewBox="0 0 24 23" fill="none">
  <path opacity="0.97" d="M10.799 0.303908L10.7847 0.304082L10.7707 0.306273C8.43649 0.66965 6.47361 1.50032 4.89023 2.80435C3.30687 4.10837 2.11303 5.87748 1.30426 8.10241L1.30164 8.10963L1.29957 8.11704C0.270705 11.8085 0.860157 15.188 3.06558 18.2376L1.64101 18.2868L1.60539 18.288L1.57239 18.3015C1.24226 18.4361 1.00554 18.6731 0.871101 19.0035L0.866409 19.015L0.863182 19.027C0.772504 19.3649 0.775596 19.6793 0.89756 19.9556C1.01974 20.2324 1.24919 20.4437 1.55868 20.598L1.59833 20.6177L1.64263 20.6189C3.2236 20.6606 4.80464 20.6606 6.38561 20.6189L6.42208 20.618L6.45585 20.6042C6.78598 20.4696 7.02272 20.2325 7.15714 19.9022L7.17087 19.8685L7.17183 19.8321C7.21345 18.2495 7.21345 16.6669 7.17183 15.0843L7.17087 15.0479L7.15714 15.0142C7.02272 14.6839 6.78598 14.4468 6.45585 14.3122L6.44431 14.3075L6.43228 14.3043C6.09466 14.2135 5.78041 14.2166 5.50426 14.3387C5.22764 14.4611 5.01657 14.6908 4.86249 15.0005L4.84306 15.0396L4.84166 15.0832L4.79775 16.4458C3.74019 14.7789 3.2178 13.1226 3.2178 11.4743C3.2178 9.77746 3.77142 8.07214 4.89262 6.35552C6.06177 4.88193 7.39681 3.8673 8.89649 3.30118C10.3986 2.73414 12.0785 2.61238 13.942 2.94474L13.9764 2.95088L14.0109 2.94498C14.2161 2.90984 14.416 2.85427 14.6104 2.77829L14.6425 2.76575L14.6685 2.74321C14.9737 2.47895 15.167 2.17863 15.2116 1.84044C15.2562 1.50222 15.1473 1.16216 14.9211 0.828076L14.898 0.793903L14.8632 0.771682C14.4085 0.481165 13.9052 0.335589 13.3582 0.335061C12.5053 0.303885 11.6523 0.293499 10.799 0.303908Z" fill="black" stroke="black" stroke-width="0.4"/>
  <path opacity="0.971" d="M17.5914 2.3L17.545 2.30031L17.5035 2.32101C17.1923 2.47613 16.9628 2.71899 16.8185 3.04172L16.8022 3.07816L16.8012 3.11806C16.7596 4.70062 16.7596 6.28325 16.8012 7.86581L16.8022 7.90221L16.8159 7.93594C16.9503 8.26628 17.187 8.5033 17.5172 8.6379L17.5287 8.64261L17.5407 8.64585C17.8784 8.73664 18.1926 8.73356 18.4688 8.61141C18.7454 8.48906 18.9565 8.25935 19.1105 7.94964L19.13 7.91058L19.1314 7.86699L19.1625 6.90085L19.1746 6.52467C19.4293 6.90047 19.6616 7.29138 19.8717 7.69743C21.1243 10.5537 20.9829 13.3297 19.4463 16.0453C17.5683 18.8258 14.9522 20.2247 11.5772 20.2515C10.9797 20.1017 10.4486 20.2478 10.0105 20.6839L9.98826 20.706L9.97387 20.7338C9.78367 21.1018 9.71551 21.4589 9.81269 21.7896C9.9099 22.1205 10.1603 22.3833 10.5192 22.5887L10.5546 22.6089L10.595 22.6137C11.7361 22.749 12.8752 22.7279 14.0119 22.5504L14.012 22.5506L14.0221 22.5485C18.0725 21.6996 20.8973 19.3592 22.4788 15.5416L22.4791 15.5418L22.4833 15.5297C23.8198 11.6161 23.2938 8.00325 20.9078 4.7125L22.332 4.66334L22.3676 4.66211L22.4006 4.64865C22.7308 4.51405 22.9675 4.27703 23.1019 3.94669L23.1066 3.93516L23.1098 3.92315C23.2005 3.58527 23.1974 3.27086 23.0755 2.99455C22.9533 2.71775 22.7238 2.50645 22.4144 2.35217L22.3741 2.33209L22.3291 2.3312C20.75 2.3 19.1708 2.28958 17.5914 2.3Z" fill="black" stroke="black" stroke-width="0.4"/>
</svg>