<svg xmlns="http://www.w3.org/2000/svg" width="23" height="23" viewBox="0 0 23 23" fill="none">
  <path d="M9.44206 14.1685L9.39161 13.762L9.3362 13.8175C9.13138 13.3998 8.67698 13.1379 8.19491 13.199C3.97876 13.7249 0.8 17.3292 0.8 21.5833C0.8 22.1998 1.30021 22.7 1.91667 22.7C2.53312 22.7 3.03333 22.1998 3.03333 21.5833C3.03333 18.4527 5.37201 15.8018 8.47179 15.4146L8.47194 15.4146C9.08458 15.3376 9.51799 14.7805 9.44206 14.1685ZM21.9056 17.8654L21.9055 17.8654L21.1523 17.4308C21.2818 17.0066 21.3676 16.5579 21.3676 16.0824C21.3676 15.6071 21.2826 15.1584 21.1525 14.734L21.9055 14.2995L21.9056 14.2995C22.4394 13.9912 22.6225 13.3079 22.3143 12.7741L22.3142 12.774C22.0054 12.2399 21.324 12.0548 20.7885 12.3656L20.0359 12.8003C19.4131 12.1428 18.6136 11.6519 17.7009 11.4321V10.5833C17.7009 9.96688 17.2007 9.46667 16.5842 9.46667C15.9678 9.46667 15.4676 9.96688 15.4676 10.5833V11.4323C14.555 11.6527 13.7555 12.1436 13.1327 12.8004L12.3796 12.3654L12.3795 12.3654C11.8439 12.0563 11.1624 12.2393 10.8541 12.7742C10.5461 13.3089 10.7291 13.9912 11.2629 14.2995L11.263 14.2995L12.0162 14.7341C11.8867 15.1582 11.8009 15.6069 11.8009 16.0824C11.8009 16.5577 11.8859 17.0064 12.016 17.4309L11.263 17.8654L11.2629 17.8654C10.7291 18.1736 10.546 18.8569 10.8542 19.3908L10.8544 19.391C11.062 19.7493 11.4363 19.9491 11.8222 19.9491C12.0112 19.9491 12.2034 19.9009 12.3794 19.7996L12.3796 19.7994L13.1326 19.3645C13.7554 20.022 14.5549 20.513 15.4676 20.7327V21.5815C15.4676 22.198 15.9678 22.6982 16.5842 22.6982C17.2007 22.6982 17.7009 22.198 17.7009 21.5815V20.7326C18.6136 20.5121 19.413 20.0212 20.0358 19.3645L20.7889 19.7994L20.7891 19.7996C20.9651 19.9009 21.1573 19.9491 21.3463 19.9491C21.7319 19.9491 22.1075 19.7495 22.3144 19.3906L22.3144 19.3906C22.6224 18.856 22.4394 18.1736 21.9056 17.8654ZM14.9509 6C14.9509 2.85629 12.3946 0.3 9.25092 0.3C6.10721 0.3 3.55092 2.85629 3.55092 6C3.55092 9.14371 6.10721 11.7 9.25092 11.7C12.3946 11.7 14.9509 9.14371 14.9509 6ZM9.25092 9.46667C7.33921 9.46667 5.78425 7.91171 5.78425 6C5.78425 4.08829 7.33921 2.53333 9.25092 2.53333C11.1626 2.53333 12.7176 4.08829 12.7176 6C12.7176 7.91171 11.1626 9.46667 9.25092 9.46667ZM16.5842 18.6324C15.1785 18.6324 14.0343 17.4881 14.0343 16.0824C14.0343 14.6767 15.1785 13.5324 16.5842 13.5324C17.99 13.5324 19.1342 14.6767 19.1342 16.0824C19.1342 17.4881 17.99 18.6324 16.5842 18.6324Z" fill="black" stroke="black" stroke-width="0.4"/>
</svg>