<svg xmlns="http://www.w3.org/2000/svg" width="32" height="32" viewBox="0 0 32 32" fill="none">
  <g clip-path="url(#clip0_2199_17666)">
    <path d="M32.0022 30.6648C32.0022 31.0184 31.8617 31.3576 31.6116 31.6076C31.3616 31.8576 31.0224 31.9981 30.6688 31.9981H1.33548C0.98186 31.9981 0.642722 31.8576 0.392673 31.6076C0.142625 31.3576 0.00214872 31.0184 0.00214872 30.6648C0.00214872 30.3112 0.142625 29.972 0.392673 29.722C0.642722 29.4719 0.98186 29.3315 1.33548 29.3315H30.6688C31.0224 29.3315 31.3616 29.4719 31.6116 29.722C31.8617 29.972 32.0022 30.3112 32.0022 30.6648ZM0.390149 11.4008C0.102845 10.8679 -0.0302584 10.2655 0.00577595 9.66112C0.0418103 9.05678 0.245557 8.47444 0.594149 7.97945C1.16383 7.14361 1.92674 6.45754 2.81815 5.97945L12.8195 0.774121C13.8025 0.262962 14.8942 -0.00390625 16.0021 -0.00390625C17.1101 -0.00390625 18.2018 0.262962 19.1848 0.774121L29.1848 5.98345C30.0762 6.46154 30.8391 7.14761 31.4088 7.98345C31.7574 8.47844 31.9612 9.06078 31.9972 9.66512C32.0332 10.2695 31.9001 10.8719 31.6128 11.4048C31.3035 11.9899 30.8396 12.4789 30.2716 12.8186C29.7036 13.1584 29.0533 13.3357 28.3915 13.3315H28.0021V23.9981H29.3355C29.6891 23.9981 30.0282 24.1386 30.2783 24.3886C30.5283 24.6387 30.6688 24.9778 30.6688 25.3315C30.6688 25.6851 30.5283 26.0242 30.2783 26.2743C30.0282 26.5243 29.6891 26.6648 29.3355 26.6648H2.66882C2.31519 26.6648 1.97605 26.5243 1.72601 26.2743C1.47596 26.0242 1.33548 25.6851 1.33548 25.3315C1.33548 24.9778 1.47596 24.6387 1.72601 24.3886C1.97605 24.1386 2.31519 23.9981 2.66882 23.9981H4.00215V13.3315H3.61282C2.95036 13.3356 2.29949 13.1577 1.7312 12.8173C1.16291 12.4768 0.699027 11.9868 0.390149 11.4008ZM6.66882 23.9981H10.6688V13.3315H6.66882V23.9981ZM13.3355 13.3315V23.9981H18.6688V13.3315H13.3355ZM25.3355 13.3315H21.3355V23.9981H25.3355V13.3315ZM2.75282 10.1648C2.83647 10.319 2.96097 10.4473 3.11266 10.5355C3.26435 10.6237 3.43739 10.6684 3.61282 10.6648H28.3915C28.5669 10.6684 28.74 10.6237 28.8916 10.5355C29.0433 10.4473 29.1678 10.319 29.2515 10.1648C29.3124 10.0629 29.3419 9.94523 29.3362 9.82662C29.3305 9.70801 29.2899 9.59373 29.2195 9.49812C28.8964 9.018 28.4624 8.62284 27.9542 8.34612L17.9541 3.13679C17.3515 2.82402 16.6825 2.66075 16.0035 2.66075C15.3245 2.66075 14.6555 2.82402 14.0528 3.13679L4.05282 8.34612C3.54479 8.62373 3.11085 9.01926 2.78748 9.49946C2.71693 9.59466 2.67602 9.70856 2.66985 9.8269C2.66369 9.94523 2.69254 10.0628 2.75282 10.1648Z" fill="black"/>
  </g>
  <defs>
    <clipPath id="clip0_2199_17666">
      <rect width="32" height="32" fill="white"/>
    </clipPath>
  </defs>
</svg>