<svg xmlns="http://www.w3.org/2000/svg" width="32" height="32" viewBox="0 0 32 32" fill="none">
  <path d="M16 0C7.17733 0 0 7.17733 0 16C0 24.8227 7.17733 32 16 32C24.8227 32 32 24.8227 32 16C32 7.17733 24.8227 0 16 0ZM16 29.3333C8.648 29.3333 2.66667 23.352 2.66667 16C2.66667 8.648 8.648 2.66667 16 2.66667C23.352 2.66667 29.3333 8.648 29.3333 16C29.3333 23.352 23.352 29.3333 16 29.3333ZM21.3333 18.6667C21.3333 20.872 19.5387 22.6667 17.3333 22.6667V24C17.3333 24.7373 16.7373 25.3333 16 25.3333C15.2627 25.3333 14.6667 24.7373 14.6667 24V22.6667H14.3093C12.8867 22.6667 11.5587 21.9013 10.8453 20.668C10.476 20.0293 10.6947 19.2147 11.3307 18.8467C11.9693 18.4747 12.7853 18.696 13.152 19.332C13.3907 19.7453 13.8333 20 14.308 20H17.332C18.068 20 18.6653 19.4027 18.6653 18.6667C18.6653 18.1627 18.304 17.736 17.8067 17.6533L13.752 16.9773C11.9627 16.68 10.6653 15.1467 10.6653 13.3333C10.6653 11.128 12.46 9.33333 14.6653 9.33333V8C14.6653 7.264 15.2613 6.66667 15.9987 6.66667C16.736 6.66667 17.332 7.264 17.332 8V9.33333H17.6893C19.112 9.33333 20.44 10.1 21.1533 11.3333C21.5227 11.9707 21.304 12.7853 20.668 13.1547C20.028 13.524 19.2133 13.3053 18.8467 12.668C18.608 12.256 18.1653 12.0013 17.6907 12.0013H14.6667C13.9307 12.0013 13.3333 12.6 13.3333 13.3347C13.3333 13.8387 13.6947 14.2653 14.192 14.348L18.2467 15.024C20.036 15.3213 21.3333 16.8547 21.3333 18.668V18.6667Z" fill="#A7A7A7"/>
</svg>