<svg xmlns="http://www.w3.org/2000/svg" width="32" height="32" viewBox="0 0 32 32" fill="none">
  <g clip-path="url(#clip0_2199_10931)">
    <path d="M24.8721 1.23879L8.61609 17.4948C7.99521 18.1123 7.50299 18.8469 7.16793 19.6559C6.83287 20.465 6.66162 21.3324 6.66409 22.2081V23.9988C6.66409 24.3524 6.80456 24.6916 7.05461 24.9416C7.30466 25.1917 7.6438 25.3321 7.99742 25.3321H9.78809C10.6638 25.3346 11.5312 25.1633 12.3403 24.8283C13.1493 24.4932 13.8839 24.001 14.5014 23.3801L30.7574 7.12413C31.5366 6.34302 31.9742 5.28476 31.9742 4.18146C31.9742 3.07816 31.5366 2.0199 30.7574 1.23879C29.965 0.481319 28.911 0.0585937 27.8148 0.0585938C26.7185 0.0585938 25.6645 0.481319 24.8721 1.23879ZM28.8721 5.23879L12.6161 21.4948C11.8643 22.242 10.8481 22.6627 9.78809 22.6655H9.33076V22.2081C9.33353 21.1481 9.75418 20.132 10.5014 19.3801L26.7574 3.12413C27.0422 2.85207 27.4209 2.70025 27.8148 2.70025C28.2086 2.70025 28.5873 2.85207 28.8721 3.12413C29.152 3.40481 29.3092 3.78505 29.3092 4.18146C29.3092 4.57787 29.152 4.95811 28.8721 5.23879Z" fill="#A7A7A7"/>
    <path d="M30.6667 11.972C30.313 11.972 29.9739 12.1125 29.7239 12.3625C29.4738 12.6126 29.3333 12.9517 29.3333 13.3053V20H24C22.9391 20 21.9217 20.4214 21.1716 21.1716C20.4214 21.9217 20 22.9391 20 24V29.3333H6.66667C5.6058 29.3333 4.58839 28.9119 3.83824 28.1618C3.08809 27.4116 2.66667 26.3942 2.66667 25.3333V6.66667C2.66667 5.6058 3.08809 4.58839 3.83824 3.83824C4.58839 3.08809 5.6058 2.66667 6.66667 2.66667H18.7227C19.0763 2.66667 19.4154 2.52619 19.6655 2.27614C19.9155 2.02609 20.056 1.68696 20.056 1.33333C20.056 0.979711 19.9155 0.640573 19.6655 0.390524C19.4154 0.140476 19.0763 0 18.7227 0L6.66667 0C4.89921 0.00211714 3.20474 0.705176 1.95496 1.95496C0.705176 3.20474 0.00211714 4.89921 0 6.66667L0 25.3333C0.00211714 27.1008 0.705176 28.7953 1.95496 30.045C3.20474 31.2948 4.89921 31.9979 6.66667 32H21.7907C22.6666 32.0025 23.5342 31.8313 24.3435 31.4962C25.1528 31.1612 25.8876 30.6689 26.5053 30.048L30.0467 26.504C30.6677 25.8865 31.1601 25.152 31.4953 24.3429C31.8306 23.5339 32.0022 22.6664 32 21.7907V13.3053C32 12.9517 31.8595 12.6126 31.6095 12.3625C31.3594 12.1125 31.0203 11.972 30.6667 11.972ZM24.62 28.1627C24.084 28.6973 23.4062 29.0675 22.6667 29.2293V24C22.6667 23.6464 22.8071 23.3072 23.0572 23.0572C23.3072 22.8071 23.6464 22.6667 24 22.6667H29.2333C29.0684 23.4047 28.6987 24.0812 28.1667 24.6187L24.62 28.1627Z" fill="#A7A7A7"/>
  </g>
  <defs>
    <clipPath id="clip0_2199_10931">
      <rect width="32" height="32" fill="white"/>
    </clipPath>
  </defs>
</svg>