<svg xmlns="http://www.w3.org/2000/svg" width="28" height="28" viewBox="0 0 28 28" fill="none">
  <g clip-path="url(#clip0_655_16062)">
    <path opacity="0.954" fill-rule="evenodd" clip-rule="evenodd" d="M19.8702 9.38743C19.1279 9.44897 18.7049 9.11055 18.6011 8.37218C18.6364 8.14669 18.7103 7.93518 18.8232 7.73765C20.7162 5.84464 22.6093 3.95161 24.5023 2.05861C23.2079 2.05639 21.9178 2.01407 20.6316 1.93171C19.9112 1.36114 19.89 0.768934 20.5682 0.155027C20.7087 0.0887823 20.8568 0.0465221 21.0123 0.028121C23.0217 -0.0142021 25.031 -0.0142021 27.0404 0.028121C27.5169 0.0607996 27.8236 0.304014 27.9604 0.75783C28.0028 2.8941 28.0028 5.03031 27.9604 7.16658C27.6509 7.8904 27.1326 8.09133 26.4058 7.76938C26.2657 7.65051 26.1494 7.51303 26.0569 7.35694C25.9753 6.09113 25.933 4.82205 25.93 3.54976C24.0792 5.40049 22.2286 7.25118 20.3778 9.10189C20.2129 9.21579 20.0437 9.31097 19.8702 9.38743Z" fill="black"/>
    <path opacity="0.962" fill-rule="evenodd" clip-rule="evenodd" d="M13.0221 0.0742614C13.4245 0.0637155 13.8264 0.0742931 14.2277 0.105988C14.9904 0.448221 15.1702 0.987571 14.7671 1.72404C14.5854 1.91537 14.3633 2.0317 14.1008 2.07303C10.0334 2.15555 6.76553 3.79476 4.29734 6.99063C1.70557 10.8056 1.3037 14.8454 3.09173 19.1101C5.36862 23.5289 9.00656 25.8556 14.0056 26.09C18.9784 25.837 22.5952 23.5104 24.8561 19.1101C25.6097 17.4149 25.9904 15.6383 25.9982 13.7801C26.2333 13.1862 26.6668 12.9642 27.299 13.1138C27.8062 13.3241 28.0389 13.7048 27.997 14.256C27.7343 19.6284 25.302 23.6682 20.6999 26.3755C16.7552 28.3787 12.7154 28.5902 8.58041 27.01C3.62924 24.7434 0.784439 20.9045 0.0459926 15.4933C-0.330531 10.1457 1.60478 5.86263 5.85194 2.64411C8.01314 1.14011 10.4032 0.283491 13.0221 0.0742614Z" fill="black"/>
    <path opacity="0.958" fill-rule="evenodd" clip-rule="evenodd" d="M13.7827 6.21707C14.3453 6.15418 14.7154 6.38687 14.8931 6.91505C14.9038 7.44507 14.9355 7.97389 14.9883 8.50137C16.0182 8.73907 16.8325 9.28901 17.4313 10.1511C17.683 10.892 17.4292 11.3361 16.6698 11.4837C16.5099 11.4388 16.3513 11.3859 16.1939 11.325C15.8546 10.9006 15.4421 10.5728 14.9566 10.3415C14.9037 11.294 14.9143 12.2458 14.9883 13.1969C15.9118 13.505 16.705 14.0126 17.3678 14.7198C18.1464 16.0228 18.0619 17.2708 17.114 18.4635C16.5093 19.0672 15.7796 19.4056 14.9249 19.4787C14.9513 20.0761 14.9196 20.6683 14.8297 21.2554C14.4841 21.783 14.0294 21.8993 13.4655 21.6044C13.3463 21.5065 13.2511 21.3902 13.1799 21.2554C13.0937 20.6457 13.062 20.0323 13.0847 19.4153C11.9265 19.1976 10.9853 18.6265 10.2611 17.702C9.95485 17.2559 9.96539 16.8223 10.2928 16.4013C10.6581 16.1347 11.0388 16.1135 11.435 16.3378C11.862 16.9207 12.4119 17.3331 13.0847 17.5751C13.0953 16.5174 13.0847 15.4598 13.053 14.4025C12.2946 14.1092 11.6388 13.665 11.086 13.07C10.2849 11.8623 10.3273 10.6779 11.2129 9.51662C11.7155 8.97968 12.3289 8.64128 13.053 8.50137C13.0605 7.92649 13.1028 7.35541 13.1799 6.78814C13.2925 6.4955 13.4935 6.30514 13.7827 6.21707ZM13.0213 10.405C13.0948 11.0495 13.1054 11.7052 13.053 12.372C12.2704 11.7209 12.2599 11.0652 13.0213 10.405ZM14.9249 15.2274C14.9038 16.0533 14.9249 16.8782 14.9883 17.702C15.2814 17.6032 15.5246 17.434 15.718 17.1944C16.1569 16.2534 15.8925 15.5977 14.9249 15.2274Z" fill="black"/>
  </g>
  <defs>
    <clipPath id="clip0_655_16062">
      <rect width="28" height="28" fill="white"/>
    </clipPath>
  </defs>
</svg>