<svg xmlns="http://www.w3.org/2000/svg" width="26" height="25" viewBox="0 0 26 25" fill="none">
  <g clip-path="url(#clip0_2199_24318)">
    <path d="M23.5225 14.2328L21.5434 7.11197C20.9633 5.02585 19.7025 3.19351 17.9614 1.90621C16.2204 0.618896 14.099 -0.0495065 11.9345 0.00724357C9.76996 0.0639937 7.68651 0.842639 6.01532 2.21941C4.34412 3.59618 3.18109 5.49207 2.71109 7.60571L1.17879 14.4963C1.00954 15.2577 1.01345 16.0474 1.19024 16.8071C1.36704 17.5668 1.71219 18.277 2.20023 18.8855C2.68827 19.4939 3.30673 19.9849 4.00995 20.3223C4.71317 20.6597 5.48319 20.8349 6.26317 20.8349H7.42359C7.66266 22.0123 8.30143 23.0708 9.23165 23.8311C10.1619 24.5914 11.3263 25.0068 12.5278 25.0068C13.7292 25.0068 14.8936 24.5914 15.8239 23.8311C16.7541 23.0708 17.3928 22.0123 17.6319 20.8349H18.5048C19.3078 20.8349 20.0998 20.6494 20.8192 20.2926C21.5385 19.9359 22.1656 19.4177 22.6515 18.7785C23.1374 18.1393 23.469 17.3964 23.6203 16.6078C23.7715 15.8193 23.7374 15.0064 23.5225 14.2328ZM12.5278 22.9182C11.8837 22.9155 11.2563 22.714 10.7312 22.341C10.2061 21.9681 9.80909 21.4421 9.59442 20.8349H15.4611C15.2464 21.4421 14.8494 21.9681 14.3243 22.341C13.7992 22.714 13.1718 22.9155 12.5278 22.9182ZM20.9923 17.5172C20.7021 17.9022 20.326 18.2143 19.894 18.4286C19.462 18.6429 18.986 18.7534 18.5038 18.7515H6.26317C5.79524 18.7515 5.33329 18.6463 4.91144 18.4438C4.48959 18.2413 4.11859 17.9467 3.82584 17.5816C3.53308 17.2166 3.32604 16.7905 3.22 16.3347C3.11396 15.879 3.11163 15.4052 3.21317 14.9484L4.74442 8.05676C5.11354 6.39656 6.02703 4.90739 7.33969 3.82597C8.65234 2.74456 10.2888 2.13298 11.989 2.08844C13.6891 2.0439 15.3554 2.56896 16.7229 3.58016C18.0903 4.59136 19.0805 6.03066 19.5361 7.66926L21.5153 14.7901C21.646 15.254 21.6669 15.742 21.5761 16.2154C21.4853 16.6888 21.2854 17.1345 20.9923 17.5172Z" fill="current" fill-opacity="0.7"/>
  </g>
  <defs>
    <clipPath id="clip0_2199_24318">
      <rect width="25" height="25" fill="current" transform="translate(0.03125)"/>
    </clipPath>
  </defs>
</svg>