<svg xmlns="http://www.w3.org/2000/svg" width="26" height="26" viewBox="0 0 26 26" fill="current">
  <path d="M18.7833 8.85445C18.7833 9.54512 18.509 10.2075 18.0206 10.6959C17.5322 11.1843 16.8698 11.4586 16.1792 11.4586C15.4885 11.4586 14.8261 11.1843 14.3377 10.6959C13.8494 10.2075 13.575 9.54512 13.575 8.85445C13.575 8.16378 13.8494 7.5014 14.3377 7.01303C14.8261 6.52465 15.4885 6.25028 16.1792 6.25028C16.8698 6.25028 17.5322 6.52465 18.0206 7.01303C18.509 7.5014 18.7833 8.16378 18.7833 8.85445ZM18.7771 16.0065C18.7199 17.6616 18.3067 19.2849 17.5656 20.7659C16.8828 22.0571 15.8576 23.1354 14.6024 23.8823C13.3472 24.6292 11.9105 25.0161 10.45 25.0003H9.40833V19.2711C9.40368 18.3056 9.01807 17.381 8.33535 16.6983C7.65263 16.0155 6.728 15.6299 5.7625 15.6253H0.0333333V14.5836C0.0175643 13.1231 0.404369 11.6864 1.15131 10.4312C1.89826 9.176 2.97649 8.15077 4.26771 7.46799C5.74871 6.72695 7.37202 6.31375 9.02708 6.25654C10.5446 4.29637 12.4935 2.7123 14.7224 1.62729C16.9513 0.542292 19.4003 -0.014451 21.8792 0.000285079C22.2917 -0.0023214 22.7006 0.0765173 23.0826 0.232281C23.4645 0.388044 23.812 0.617669 24.105 0.907989C24.398 1.19831 24.6309 1.54361 24.7902 1.92411C24.9495 2.3046 25.0321 2.71279 25.0333 3.12528C25.051 5.60884 24.4957 8.06302 23.4106 10.2971C22.3256 12.5311 20.74 14.4849 18.7771 16.0065ZM2.20417 13.542H4.56042C5.334 11.819 6.24274 10.16 7.27813 8.58049C6.55897 8.7478 5.86212 8.99955 5.20208 9.33049C4.40827 9.74967 3.72365 10.3489 3.20306 11.0802C2.68246 11.8116 2.34037 12.6547 2.20417 13.542ZM16.4531 17.7555C14.8736 18.7909 13.2146 19.6996 11.4917 20.4732V22.8295C12.379 22.6933 13.222 22.3512 13.9534 21.8306C14.6847 21.31 15.2839 20.6253 15.7031 19.8315C16.0341 19.1715 16.2858 18.4746 16.4531 17.7555ZM22.95 3.09612C22.9424 2.82494 22.8293 2.56742 22.6348 2.37833C22.4402 2.18925 22.1796 2.08351 21.9083 2.08362C16.5333 2.23674 12.8979 4.29612 9.38958 9.18987C8.41057 10.5995 7.54966 12.0875 6.81563 13.6388C7.95304 13.8507 8.99967 14.4019 9.81777 15.22C10.6359 16.0381 11.1871 17.0847 11.399 18.2222C12.9503 17.4881 14.4383 16.6272 15.8479 15.6482C20.7375 12.1357 22.7969 8.50029 22.95 3.09612ZM6.41042 18.6242C6.99247 19.2123 7.31896 20.0062 7.31896 20.8336C7.31896 21.661 6.99247 22.455 6.41042 23.043C5.46563 23.9867 2.6375 24.569 1.46458 24.7763L0 25.0336L0.257292 23.569C0.465625 22.3961 1.04688 19.568 1.99063 18.6232C2.5862 18.0551 3.37769 17.7383 4.20073 17.7385C5.02377 17.7387 5.81511 18.0559 6.41042 18.6242ZM5.24167 20.8336C5.24204 20.6968 5.21525 20.5612 5.16286 20.4348C5.11047 20.3084 5.03352 20.1936 4.93646 20.0972C4.74112 19.9019 4.47621 19.7922 4.2 19.7922C3.92379 19.7922 3.65888 19.9019 3.46354 20.0972C3.0664 20.8141 2.78747 21.5904 2.6375 22.3961C3.44355 22.2455 4.22013 21.9662 4.9375 21.569C5.03425 21.4726 5.11094 21.358 5.16314 21.2317C5.21535 21.1055 5.24204 20.9702 5.24167 20.8336Z" fill="current" fill-opacity="0.7"/>
</svg>