<svg xmlns="http://www.w3.org/2000/svg" width="26" height="25" viewBox="0 0 26 25" fill="none">
  <path d="M12.5339 8.33203C11.7098 8.33203 10.9042 8.5764 10.219 9.03424C9.53378 9.49208 8.99972 10.1428 8.68436 10.9042C8.36899 11.6655 8.28648 12.5033 8.44725 13.3116C8.60802 14.1198 9.00486 14.8623 9.58758 15.445C10.1703 16.0277 10.9127 16.4245 11.721 16.5853C12.5292 16.7461 13.367 16.6636 14.1284 16.3482C14.8897 16.0328 15.5405 15.4988 15.9983 14.8136C16.4562 14.1284 16.7005 13.3228 16.7005 12.4987C16.7005 11.3936 16.2615 10.3338 15.4801 9.55242C14.6987 8.77102 13.6389 8.33203 12.5339 8.33203ZM12.5339 14.582C12.1218 14.582 11.719 14.4598 11.3764 14.2309C11.0338 14.002 10.7668 13.6766 10.6091 13.296C10.4514 12.9153 10.4102 12.4964 10.4906 12.0923C10.5709 11.6881 10.7694 11.3169 11.0607 11.0256C11.3521 10.7342 11.7233 10.5358 12.1274 10.4554C12.5315 10.375 12.9504 10.4163 13.3311 10.5739C13.7118 10.7316 14.0372 10.9987 14.2661 11.3413C14.495 11.6839 14.6172 12.0867 14.6172 12.4987C14.6172 13.0512 14.3977 13.5811 14.007 13.9718C13.6163 14.3625 13.0864 14.582 12.5339 14.582Z" fill="current" fill-opacity="0.7"/>
  <path d="M22.209 14.4792L21.7465 14.2125C21.9548 13.0796 21.9548 11.9183 21.7465 10.7854L22.209 10.5187C22.5647 10.3136 22.8765 10.0403 23.1265 9.71465C23.3766 9.38897 23.5601 9.01723 23.6665 8.62064C23.7729 8.22406 23.8001 7.8104 23.7467 7.40329C23.6932 6.99618 23.5601 6.60358 23.3549 6.24792C23.1497 5.89225 22.8764 5.58049 22.5508 5.33042C22.2251 5.08035 21.8533 4.89688 21.4568 4.79048C21.0602 4.68408 20.6465 4.65684 20.2394 4.7103C19.8323 4.76376 19.4397 4.89689 19.084 5.10208L18.6205 5.36979C17.745 4.62179 16.7389 4.04192 15.6528 3.65937V3.125C15.6528 2.2962 15.3235 1.50134 14.7375 0.915291C14.1514 0.32924 13.3566 0 12.5278 0C11.699 0 10.9041 0.32924 10.3181 0.915291C9.73203 1.50134 9.40279 2.2962 9.40279 3.125V3.65937C8.31673 4.0433 7.31096 4.62458 6.43612 5.37396L5.97049 5.10417C5.2522 4.68977 4.3987 4.57768 3.59777 4.79256C2.79683 5.00745 2.11406 5.53171 1.69966 6.25C1.28526 6.96829 1.17317 7.82179 1.38806 8.62273C1.60294 9.42366 2.1272 10.1064 2.84549 10.5208L3.30799 10.7875C3.09977 11.9204 3.09977 13.0817 3.30799 14.2146L2.84549 14.4812C2.1272 14.8957 1.60294 15.5784 1.38806 16.3794C1.17317 17.1803 1.28526 18.0338 1.69966 18.7521C2.11406 19.4704 2.79683 19.9946 3.59777 20.2095C4.3987 20.4244 5.2522 20.3123 5.97049 19.8979L6.43404 19.6302C7.30983 20.3783 8.31631 20.9582 9.40279 21.3406V21.875C9.40279 22.7038 9.73203 23.4987 10.3181 24.0847C10.9041 24.6708 11.699 25 12.5278 25C13.3566 25 14.1514 24.6708 14.7375 24.0847C15.3235 23.4987 15.6528 22.7038 15.6528 21.875V21.3406C16.7388 20.9567 17.7446 20.3754 18.6195 19.626L19.0851 19.8948C19.8034 20.3092 20.6569 20.4213 21.4578 20.2064C22.2587 19.9915 22.9415 19.4673 23.3559 18.749C23.7703 18.0307 23.8824 17.1772 23.6675 16.3762C23.4526 15.5753 22.9284 14.8925 22.2101 14.4781L22.209 14.4792ZM19.5549 10.5458C19.9076 11.824 19.9076 13.1739 19.5549 14.4521C19.4933 14.6746 19.5073 14.9112 19.5948 15.1248C19.6823 15.3384 19.8383 15.5169 20.0382 15.6323L21.1674 16.2844C21.4068 16.4225 21.5815 16.6501 21.6531 16.917C21.7247 17.184 21.6873 17.4684 21.5491 17.7078C21.411 17.9472 21.1834 18.1219 20.9165 18.1935C20.6495 18.2651 20.3651 18.2277 20.1257 18.0896L18.9945 17.4354C18.7943 17.3195 18.5614 17.2735 18.3322 17.3046C18.1031 17.3357 17.8908 17.4422 17.7288 17.6073C16.8017 18.5538 15.6336 19.2291 14.3507 19.5604C14.1268 19.618 13.9284 19.7484 13.7867 19.9312C13.6451 20.1139 13.5683 20.3386 13.5684 20.5698V21.875C13.5684 22.1513 13.4587 22.4162 13.2633 22.6116C13.068 22.8069 12.803 22.9167 12.5267 22.9167C12.2505 22.9167 11.9855 22.8069 11.7902 22.6116C11.5948 22.4162 11.4851 22.1513 11.4851 21.875V20.5708C11.4852 20.3396 11.4084 20.115 11.2667 19.9322C11.1251 19.7495 10.9267 19.619 10.7028 19.5615C9.41982 19.2288 8.25209 18.552 7.3257 17.6042C7.16375 17.4391 6.95147 17.3326 6.72232 17.3015C6.49318 17.2704 6.26019 17.3164 6.06008 17.4323L4.93091 18.0854C4.8124 18.1549 4.68132 18.2002 4.54521 18.2189C4.4091 18.2375 4.27065 18.229 4.13784 18.1939C4.00503 18.1587 3.88048 18.0977 3.77135 18.0143C3.66222 17.9308 3.57068 17.8266 3.50199 17.7076C3.4333 17.5887 3.38882 17.4573 3.37112 17.3211C3.35341 17.1848 3.36282 17.0464 3.39882 16.9139C3.43481 16.7813 3.49667 16.6571 3.58084 16.5486C3.66501 16.44 3.76982 16.3491 3.88924 16.2812L5.01841 15.6292C5.21836 15.5138 5.37432 15.3353 5.46181 15.1217C5.54929 14.9081 5.56334 14.6714 5.50174 14.449C5.14899 13.1708 5.14899 11.8209 5.50174 10.5427C5.56223 10.3207 5.54751 10.0849 5.45988 9.87218C5.37226 9.65943 5.21666 9.48167 5.01737 9.36667L3.8882 8.71458C3.64882 8.57645 3.47411 8.34888 3.40251 8.08193C3.33092 7.81499 3.3683 7.53053 3.50643 7.29115C3.64456 7.05176 3.87214 6.87705 4.13908 6.80546C4.40603 6.73386 4.69048 6.77124 4.92987 6.90937L6.06112 7.56354C6.26068 7.6797 6.49318 7.72626 6.72208 7.6959C6.95099 7.66555 7.16332 7.55999 7.3257 7.39583C8.25288 6.44932 9.42094 5.77398 10.7038 5.44271C10.9284 5.38496 11.1274 5.25391 11.2691 5.07031C11.4108 4.88672 11.4872 4.66109 11.4861 4.42917V3.125C11.4861 2.84873 11.5959 2.58378 11.7912 2.38843C11.9866 2.19308 12.2515 2.08333 12.5278 2.08333C12.8041 2.08333 13.069 2.19308 13.2644 2.38843C13.4597 2.58378 13.5695 2.84873 13.5695 3.125V4.42917C13.5693 4.66037 13.6461 4.88505 13.7878 5.06779C13.9294 5.25054 14.1278 5.38097 14.3517 5.43854C15.6351 5.77099 16.8032 6.4478 17.7299 7.39583C17.8918 7.5609 18.1041 7.66739 18.3333 7.69851C18.5624 7.72963 18.7954 7.68361 18.9955 7.56771L20.1247 6.91458C20.2432 6.84511 20.3743 6.79976 20.5104 6.78115C20.6465 6.76254 20.7849 6.77103 20.9177 6.80615C21.0505 6.84126 21.1751 6.9023 21.2842 6.98574C21.3934 7.06919 21.4849 7.1734 21.5536 7.29237C21.6223 7.41134 21.6668 7.54272 21.6845 7.67895C21.7022 7.81518 21.6927 7.95356 21.6568 8.08614C21.6208 8.21871 21.5589 8.34286 21.4747 8.45143C21.3906 8.56 21.2858 8.65085 21.1663 8.71875L20.0372 9.37083C19.8383 9.48615 19.6831 9.66404 19.5958 9.87676C19.5086 10.0895 19.4942 10.3251 19.5549 10.5469V10.5458Z" fill="current" fill-opacity="0.7"/>
</svg>