<svg xmlns="http://www.w3.org/2000/svg" width="25" height="25" viewBox="0 0 25 25" fill="none">
  <g clip-path="url(#clip0_2199_24309)">
    <path d="M25 10.4168C25 10.3407 24.9917 10.2649 24.975 10.1907L23.6208 4.07821C23.3692 2.91804 22.7264 1.87965 21.8001 1.13715C20.8738 0.394651 19.7205 -0.00680873 18.5333 8.73842e-05H6.46667C5.28026 -0.00585043 4.12785 0.396048 3.20243 1.13847C2.27701 1.88089 1.63479 2.91875 1.38333 4.07821L0.0250014 10.1907C0.0083432 10.2649 -4.13124e-05 10.3407 1.42646e-06 10.4168V11.4584C-0.000838998 12.4726 0.369711 13.4519 1.04167 14.2115V19.7918C1.04332 21.1726 1.59259 22.4964 2.56898 23.4728C3.54537 24.4492 4.86917 24.9984 6.25 25.0001H18.75C20.1308 24.9984 21.4546 24.4492 22.431 23.4728C23.4074 22.4964 23.9567 21.1726 23.9583 19.7918V14.2115C24.6303 13.4519 25.0008 12.4726 25 11.4584V10.4168ZM2.08333 10.5303L3.41667 4.5303C3.56775 3.83473 3.95314 3.21214 4.50835 2.76673C5.06355 2.32132 5.75489 2.08009 6.46667 2.08342H7.29167V5.20842C7.29167 5.48469 7.40141 5.74964 7.59677 5.94499C7.79212 6.14034 8.05707 6.25009 8.33333 6.25009C8.6096 6.25009 8.87455 6.14034 9.0699 5.94499C9.26525 5.74964 9.375 5.48469 9.375 5.20842V2.08342H15.625V5.20842C15.625 5.48469 15.7347 5.74964 15.9301 5.94499C16.1254 6.14034 16.3904 6.25009 16.6667 6.25009C16.9429 6.25009 17.2079 6.14034 17.4032 5.94499C17.5986 5.74964 17.7083 5.48469 17.7083 5.20842V2.08342H18.5333C19.2451 2.08009 19.9365 2.32132 20.4917 2.76673C21.0469 3.21214 21.4322 3.83473 21.5833 4.5303L22.9167 10.5303V11.4584C22.9167 12.011 22.6972 12.5409 22.3065 12.9316C21.9158 13.3223 21.3859 13.5418 20.8333 13.5418H19.7917C19.2391 13.5418 18.7092 13.3223 18.3185 12.9316C17.9278 12.5409 17.7083 12.011 17.7083 11.4584C17.7083 11.1822 17.5986 10.9172 17.4032 10.7219C17.2079 10.5265 16.9429 10.4168 16.6667 10.4168C16.3904 10.4168 16.1254 10.5265 15.9301 10.7219C15.7347 10.9172 15.625 11.1822 15.625 11.4584C15.625 12.011 15.4055 12.5409 15.0148 12.9316C14.6241 13.3223 14.0942 13.5418 13.5417 13.5418H11.4583C10.9058 13.5418 10.3759 13.3223 9.9852 12.9316C9.59449 12.5409 9.375 12.011 9.375 11.4584C9.375 11.1822 9.26525 10.9172 9.0699 10.7219C8.87455 10.5265 8.6096 10.4168 8.33333 10.4168C8.05707 10.4168 7.79212 10.5265 7.59677 10.7219C7.40141 10.9172 7.29167 11.1822 7.29167 11.4584C7.29167 12.011 7.07217 12.5409 6.68147 12.9316C6.29077 13.3223 5.76087 13.5418 5.20833 13.5418H4.16667C3.61413 13.5418 3.08423 13.3223 2.69353 12.9316C2.30283 12.5409 2.08333 12.011 2.08333 11.4584V10.5303ZM18.75 22.9168H6.25C5.4212 22.9168 4.62634 22.5875 4.04029 22.0015C3.45424 21.4154 3.125 20.6206 3.125 19.7918V15.4928C3.46521 15.5809 3.81524 15.6253 4.16667 15.6251H5.20833C5.79981 15.6254 6.38454 15.4995 6.92344 15.2557C7.46235 15.0119 7.94302 14.656 8.33333 14.2115C8.72365 14.656 9.20432 15.0119 9.74323 15.2557C10.2821 15.4995 10.8669 15.6254 11.4583 15.6251H13.5417C14.1331 15.6254 14.7179 15.4995 15.2568 15.2557C15.7957 15.0119 16.2764 14.656 16.6667 14.2115C17.057 14.656 17.5377 15.0119 18.0766 15.2557C18.6155 15.4995 19.2002 15.6254 19.7917 15.6251H20.8333C21.1848 15.6253 21.5348 15.5809 21.875 15.4928V19.7918C21.875 20.6206 21.5458 21.4154 20.9597 22.0015C20.3737 22.5875 19.5788 22.9168 18.75 22.9168Z" fill="url(#paint0_linear_2199_24309)"/>
  </g>
  <defs>
    <linearGradient id="paint0_linear_2199_24309" x1="-3.47375e-07" y1="-33.3751" x2="14.0751" y2="32.8001" gradientUnits="userSpaceOnUse">
      <stop stop-color="#FFDA46"/>
      <stop offset="1" stop-color="#FFAE00"/>
    </linearGradient>
    <clipPath id="clip0_2199_24309">
      <rect width="25" height="25" fill="white"/>
    </clipPath>
  </defs>
</svg>