<svg width="16" height="14" viewBox="0 0 16 14" fill="none" xmlns="http://www.w3.org/2000/svg">
<path id="Vector" opacity="0.4" d="M15.5112 5.34928C14.9096 4.4083 14.1507 3.56777 13.2647 2.86105L15.1307 1.07875C15.2521 0.958695 15.3193 0.797904 15.3177 0.631006C15.3162 0.464108 15.2461 0.304457 15.1226 0.186437C14.999 0.0684183 14.8319 0.00147436 14.6571 2.40628e-05C14.4824 -0.00142624 14.3141 0.0627332 14.1884 0.178684L12.1591 2.11949C10.9012 1.40581 9.46307 1.03385 8 1.04374C3.8742 1.04374 1.52307 3.74138 0.488783 5.34928C0.169253 5.84291 0 6.41181 0 6.99218C0 7.57255 0.169253 8.14144 0.488783 8.63508C1.0904 9.57606 1.84927 10.4166 2.73528 11.1233L0.869308 12.9056C0.805659 12.9643 0.754889 13.0346 0.719963 13.1122C0.685036 13.1899 0.666652 13.2734 0.665883 13.3579C0.665115 13.4425 0.681976 13.5263 0.715484 13.6045C0.748993 13.6827 0.798476 13.7538 0.861048 13.8136C0.92362 13.8733 0.998027 13.9206 1.07993 13.9526C1.16183 13.9846 1.24958 14.0007 1.33807 14C1.42656 13.9992 1.514 13.9817 1.59531 13.9483C1.67661 13.915 1.75015 13.8665 1.81163 13.8057L3.84554 11.863C5.10192 12.5765 6.53832 12.9491 8 12.9406C12.1258 12.9406 14.4769 10.243 15.5112 8.63508C15.8307 8.14144 16 7.57255 16 6.99218C16 6.41181 15.8307 5.84291 15.5112 5.34928ZM1.62436 7.96863C1.43452 7.67521 1.33397 7.3371 1.33397 6.99218C1.33397 6.64725 1.43452 6.30914 1.62436 6.01573C2.51337 4.63699 4.52262 2.31681 8 2.31681C9.10644 2.31089 10.1973 2.5656 11.1762 3.05838L9.83465 4.33973C9.19485 3.934 8.42778 3.7522 7.66361 3.82518C6.89945 3.89816 6.18525 4.22142 5.64221 4.74011C5.09917 5.2588 4.76073 5.94097 4.68433 6.67088C4.60792 7.40078 4.79825 8.13345 5.22303 8.74457L3.6836 10.215C2.8673 9.58462 2.17072 8.82474 1.62436 7.96863ZM9.99926 6.99218C9.99926 7.49864 9.78862 7.98436 9.41369 8.34248C9.03876 8.7006 8.53024 8.90179 8 8.90179C7.70312 8.90069 7.41035 8.83541 7.14365 8.71083L9.79933 6.17423C9.92976 6.42897 9.99811 6.70861 9.99926 6.99218ZM6.00074 6.99218C6.00074 6.48572 6.21138 6 6.58631 5.64188C6.96124 5.28376 7.46976 5.08257 8 5.08257C8.29688 5.08366 8.58965 5.14895 8.85635 5.27353L6.20067 7.81013C6.07024 7.55539 6.00189 7.27575 6.00074 6.99218ZM14.3756 7.96863C13.4866 9.34737 11.4774 11.6675 8 11.6675C6.89356 11.6735 5.80266 11.4188 4.82384 10.926L6.16535 9.64463C6.80515 10.0504 7.57222 10.2322 8.33639 10.1592C9.10055 10.0862 9.81475 9.76294 10.3578 9.24425C10.9008 8.72555 11.2393 8.04338 11.3157 7.31348C11.3921 6.58358 11.2017 5.85091 10.777 5.23979L12.3164 3.76939C13.1327 4.39974 13.8293 5.15962 14.3756 6.01573C14.5655 6.30914 14.666 6.64725 14.666 6.99218C14.666 7.3371 14.5655 7.67521 14.3756 7.96863Z" fill="#161D20" fill-opacity="0.7"/>
</svg>
