<svg width="28" height="28" viewBox="0 0 28 28" fill="none" xmlns="http://www.w3.org/2000/svg">
<g id="location-mark 1">
<g id="Group">
<path id="Vector" opacity="0.963" fill-rule="evenodd" clip-rule="evenodd" d="M13.4255 1.39535C16.4669 1.30775 18.9369 2.43796 20.8357 4.78598C22.497 7.14016 22.8798 9.69226 21.9841 12.4422C21.2847 14.2434 20.2821 15.8476 18.9763 17.2547C17.5836 18.7641 16.0433 20.0857 14.3552 21.2196C13.9042 21.3529 13.5031 21.2618 13.1521 20.9461C11.1098 19.4873 9.31423 17.7647 7.76537 15.7782C6.66615 14.3267 5.93701 12.7043 5.57787 10.911C5.21885 7.51855 6.41284 4.82975 9.1599 2.84457C10.4662 2.00508 11.8881 1.52201 13.4255 1.39535ZM13.4802 3.20004C16.5942 3.15627 18.8273 4.52346 20.1794 7.3016C20.855 9.09929 20.7821 10.8675 19.9607 12.6063C19.3255 13.8591 18.5417 15.0075 17.6091 16.0516C16.4863 17.2389 15.2741 18.3144 13.9724 19.2782C11.7171 17.6701 9.84858 15.7014 8.36693 13.3719C7.50118 11.9144 7.17305 10.3467 7.38256 8.66879C7.83811 6.38023 9.12326 4.7487 11.238 3.77426C11.9685 3.48687 12.7159 3.29546 13.4802 3.20004Z" fill="#A7A7A7"/>
</g>
<g id="Group_2">
<path id="Vector_2" opacity="0.964" fill-rule="evenodd" clip-rule="evenodd" d="M13.3168 6.09625C15.2506 5.90069 16.6452 6.66631 17.5004 8.39312C18.1617 10.383 17.6422 11.9781 15.9418 13.1783C14.1499 14.0702 12.5367 13.8241 11.1019 12.44C9.93994 10.9188 9.84877 9.33287 10.8285 7.68219C11.464 6.84087 12.2934 6.31221 13.3168 6.09625ZM13.5355 7.90094C12.5586 8.20303 12.0299 8.86841 11.9496 9.89703C12.0475 10.9334 12.5944 11.5897 13.5902 11.8658C14.8745 11.9666 15.6675 11.3923 15.9691 10.1431C15.9231 8.57523 15.1119 7.82782 13.5355 7.90094Z" fill="#A7A7A7"/>
</g>
<g id="Group_3">
<path id="Vector_3" opacity="0.964" fill-rule="evenodd" clip-rule="evenodd" d="M5.49493 18.1836C6.44546 18.1895 6.78271 18.6452 6.50665 19.5508C6.41013 19.7134 6.27341 19.8319 6.09649 19.9062C5.29113 20.145 4.5255 20.4731 3.79962 20.8906C3.53103 21.059 3.3305 21.2868 3.19806 21.5742C3.37002 21.8465 3.58877 22.0743 3.85431 22.2578C4.64605 22.7072 5.4846 23.0444 6.36993 23.2695C9.73546 24.0703 13.1443 24.3346 16.5965 24.0625C18.8927 23.9473 21.1166 23.4915 23.2684 22.6953C23.6141 22.5408 23.9422 22.3585 24.2527 22.1484C24.4475 21.9812 24.6116 21.7898 24.7449 21.5742C24.5732 21.2293 24.318 20.965 23.9793 20.7812C23.1752 20.4018 22.364 20.0464 21.5457 19.7148C21.2054 19.2465 21.2328 18.7999 21.6277 18.375C22.047 18.1375 22.4753 18.1284 22.9129 18.3477C24.1158 18.6775 25.1548 19.279 26.0301 20.1523C26.849 21.4366 26.6576 22.5577 25.4559 23.5156C24.4561 24.2077 23.3624 24.6999 22.1746 24.9922C19.4823 25.665 16.7479 25.9841 13.9715 25.9492C11.059 25.9912 8.19704 25.6357 5.38556 24.8828C4.33994 24.5878 3.3738 24.1321 2.48712 23.5156C1.0488 22.2399 1.03057 20.9457 2.43243 19.6328C3.37757 18.9871 4.3984 18.504 5.49493 18.1836Z" fill="#A7A7A7"/>
</g>
</g>
</svg>
