<svg width="41" height="40" viewBox="0 0 41 40" fill="current" xmlns="http://www.w3.org/2000/svg">
<g id="comment-dots 1" clip-path="url(#clip0_393_7007)">
<path id="Vector" d="M22.9984 20.0016C22.9984 21.3816 21.8784 22.5016 20.4984 22.5016C19.1184 22.5016 17.9984 21.3816 17.9984 20.0016C17.9984 18.6216 19.1184 17.5016 20.4984 17.5016C21.8784 17.5016 22.9984 18.6216 22.9984 20.0016ZM28.8317 17.5016C27.4517 17.5016 26.3317 18.6216 26.3317 20.0016C26.3317 21.3816 27.4517 22.5016 28.8317 22.5016C30.2117 22.5016 31.3317 21.3816 31.3317 20.0016C31.3317 18.6216 30.2117 17.5016 28.8317 17.5016ZM12.1651 17.5016C10.7851 17.5016 9.66506 18.6216 9.66506 20.0016C9.66506 21.3816 10.7851 22.5016 12.1651 22.5016C13.5451 22.5016 14.6651 21.3816 14.6651 20.0016C14.6651 18.6216 13.5451 17.5016 12.1651 17.5016ZM40.4984 20.5683V31.6683C40.4984 36.2633 36.7601 40.0016 32.1651 40.0016H22.3034C10.6351 40.0016 1.28172 32.015 0.548392 21.425C0.146725 15.6316 2.26006 9.96164 6.34672 5.86997C10.4334 1.77831 16.1034 -0.341694 21.8917 0.0499725C32.3251 0.758306 40.4984 9.76997 40.4984 20.5683ZM37.1651 20.5683C37.1651 11.5166 30.3584 3.96497 21.6667 3.37497C21.2851 3.34831 20.9034 3.33664 20.5234 3.33664C16.0967 3.33664 11.8417 5.08331 8.70506 8.22497C5.29839 11.635 3.53673 16.3633 3.87339 21.195C4.49506 30.1616 12.2467 36.67 22.3051 36.67H32.1667C34.9234 36.67 37.1667 34.4266 37.1667 31.67V20.57L37.1651 20.5683Z" fill="current"/>
</g>
<defs>
<clipPath id="clip0_393_7007">
<rect width="40" height="40" fill="current" transform="translate(0.5)"/>
</clipPath>
</defs>
</svg>
