<svg width="40" height="38" viewBox="0 0 40 38" fill="current" xmlns="http://www.w3.org/2000/svg">
<path d="M31.6667 0.664062H8.33333C6.12401 0.666709 4.00593 1.54553 2.4437 3.10776C0.88147 4.66999 0.00264643 6.78807 0 8.9974L0 28.9974C0.00264643 31.2067 0.88147 33.3248 2.4437 34.887C4.00593 36.4493 6.12401 37.3281 8.33333 37.3307H31.6667C33.876 37.3281 35.9941 36.4493 37.5563 34.887C39.1185 33.3248 39.9974 31.2067 40 28.9974V8.9974C39.9974 6.78807 39.1185 4.66999 37.5563 3.10776C35.9941 1.54553 33.876 0.666709 31.6667 0.664062ZM8.33333 3.9974H31.6667C32.6646 3.99936 33.6392 4.29992 34.4649 4.8604C35.2906 5.42088 35.9298 6.21564 36.3 7.1424L23.5367 19.9074C22.5974 20.8429 21.3257 21.3682 20 21.3682C18.6743 21.3682 17.4026 20.8429 16.4633 19.9074L3.7 7.1424C4.07025 6.21564 4.70936 5.42088 5.53508 4.8604C6.3608 4.29992 7.33536 3.99936 8.33333 3.9974ZM31.6667 33.9974H8.33333C7.00725 33.9974 5.73548 33.4706 4.7978 32.5329C3.86012 31.5952 3.33333 30.3235 3.33333 28.9974V11.4974L14.1067 22.2641C15.671 23.8245 17.7904 24.7008 20 24.7008C22.2096 24.7008 24.329 23.8245 25.8933 22.2641L36.6667 11.4974V28.9974C36.6667 30.3235 36.1399 31.5952 35.2022 32.5329C34.2645 33.4706 32.9927 33.9974 31.6667 33.9974Z" fill="current"/>
</svg>
