<svg width="41" height="40" viewBox="0 0 41 40" fill="current" xmlns="http://www.w3.org/2000/svg">
<g clip-path="url(#clip0_398_8035)">
<path d="M34.8268 24.9021L34.9181 24.7831L34.8267 24.9021L34.82 24.8969L34.8138 24.8909C32.8886 23.0305 29.8142 23.0305 27.889 24.8909L27.8894 24.8914L27.8785 24.9001L25.4452 26.8501L25.3752 26.9062L25.2927 26.8711C19.9227 24.5888 16.1121 20.7602 13.6642 15.2103L13.6276 15.1274L13.684 15.0564L15.6173 12.6231L15.6168 12.6227L15.6264 12.6126C17.4706 10.6876 17.4712 7.62873 15.626 5.68639L15.6205 5.68067L15.6157 5.67441L15.7347 5.58307L15.6157 5.67436L15.6156 5.67423L15.6152 5.67368L15.6135 5.6715L15.6069 5.66289L15.5811 5.6293L15.4832 5.50174L15.1332 5.04606C14.8434 4.66873 14.4564 4.16511 14.0679 3.65993C13.6794 3.15474 13.2893 2.64806 12.9933 2.26457C12.8453 2.07281 12.7209 1.91197 12.632 1.79756C12.5875 1.74032 12.552 1.69491 12.527 1.66312L12.498 1.62655C12.4947 1.62247 12.4926 1.62001 12.4916 1.61873C10.5332 -0.335615 7.3643 -0.334369 5.40746 1.62247L5.40773 1.62274L5.39964 1.62976L3.7014 3.10157V3.11224L3.65702 3.15625C1.68611 5.11073 0.651398 7.67209 0.651398 10.4164C0.651398 16.7171 4.83641 24.081 10.6325 29.8791C16.4285 35.6773 23.7924 39.8664 30.1014 39.8664C32.8613 39.8664 35.4045 38.8325 37.2917 36.9473L38.9549 35.0346L38.9546 35.0344L38.962 35.027C40.834 33.155 40.8383 29.9862 38.8824 28.0262C38.8811 28.0252 38.8787 28.0231 38.8746 28.0199L38.838 27.9908C38.8062 27.9658 38.7608 27.9303 38.7036 27.8858C38.5892 27.7969 38.4283 27.6725 38.2366 27.5245C37.8531 27.2285 37.3464 26.8384 36.8412 26.4499C36.336 26.0614 35.8324 25.6744 35.4551 25.3846L34.9994 25.0346L34.8718 24.9367L34.8382 24.9109L34.8296 24.9043L34.8275 24.9026L34.8269 24.9022L34.8268 24.9021ZM35.0646 34.8482L35.0648 34.8484L35.0582 34.8551C33.8272 36.1031 32.0374 36.8164 30.1014 36.8164C27.5718 36.8164 24.6574 35.8885 21.7152 34.326C18.7709 32.7624 15.7885 30.5579 13.1203 27.9912C7.79118 22.8645 3.68473 16.261 3.68473 10.3997C3.68473 8.4614 4.41619 6.67281 5.72866 5.36034L5.7284 5.36007L5.73649 5.35305L7.4825 3.83984C8.30252 3.02351 9.50755 2.99972 10.2855 3.7053L10.2954 3.71429L10.3036 3.7249L10.1847 3.81641L10.3036 3.72495L10.3037 3.72508L10.3041 3.72563L10.3058 3.72779L10.3124 3.73633L10.338 3.76964L10.4354 3.89614L10.7835 4.34804C11.0718 4.72225 11.4567 5.2217 11.8431 5.72271C12.2295 6.22374 12.6175 6.72626 12.9119 7.10662C13.0592 7.29682 13.1829 7.45636 13.2714 7.56986C13.3157 7.62664 13.351 7.6717 13.3759 7.70324L13.4048 7.73954C13.4081 7.74372 13.4102 7.74619 13.4112 7.74742C14.1814 8.52164 14.1815 9.76103 13.4113 10.5353C13.4103 10.5364 13.4088 10.5383 13.4064 10.5412L13.3819 10.5712L13.292 10.6827C13.2156 10.7778 13.1081 10.912 12.98 11.0721C12.7238 11.3923 12.3853 11.8162 12.0478 12.2391C11.7103 12.662 11.3739 13.0839 11.1218 13.4L10.8174 13.7819L10.7322 13.8888L10.7097 13.9169L10.704 13.9241L10.7025 13.926L10.7023 13.9263C10.3528 14.3668 10.277 14.9433 10.474 15.4441C13.3091 22.5234 18.2289 27.4251 25.0882 30.0429L25.0897 30.0435C25.5882 30.2399 26.149 30.1502 26.5754 29.8151L26.5767 29.8141L26.5839 29.8083L26.6119 29.7859L26.7183 29.7006L27.0985 29.396C27.4133 29.1436 27.8336 28.8067 28.2554 28.4682C28.6773 28.1296 29.1006 27.7896 29.4216 27.5311C29.5821 27.4018 29.717 27.293 29.8131 27.215C29.8613 27.176 29.8995 27.1449 29.9265 27.1227C29.9462 27.1065 29.9566 27.0978 29.9607 27.0944C29.9632 27.0924 29.9634 27.0923 29.962 27.0937L29.9633 27.0924C30.7196 26.3541 32.0105 26.3511 32.7537 27.0899C32.7549 27.0909 32.7574 27.093 32.7616 27.0964L32.7979 27.1253C32.8294 27.1502 32.8745 27.1854 32.9313 27.2297C33.0448 27.3182 33.2043 27.442 33.3945 27.5892C33.7749 27.8836 34.2774 28.2716 34.7784 28.6581C35.2794 29.0445 35.7789 29.4294 36.1531 29.7176L36.605 30.0657L36.7315 30.1631L36.7648 30.1888L36.7734 30.1953L36.7755 30.197L36.7761 30.1974L36.7762 30.1975L36.6847 30.3164L36.7762 30.1976L36.7868 30.2057L36.7958 30.2156C37.499 30.9909 37.4635 32.1958 36.7279 32.9354L35.0646 34.8482Z" fill="#current" stroke="white" stroke-width="0.3"/>
</g>
<defs>
<clipPath id="clip0_398_8035">
<rect width="40" height="40" fill="current" transform="matrix(-1 0 0 1 40.5 0)"/>
</clipPath>
</defs>
</svg>
