<svg width="32" height="32" viewBox="0 0 32 32" fill="none" xmlns="http://www.w3.org/2000/svg">
<g id="arrow-small-right (1) 1">
<path id="Vector" d="M23.9987 15.9994C23.9922 15.298 23.7096 14.6273 23.212 14.1328L17.492 8.39944C17.2422 8.15111 16.9043 8.01172 16.552 8.01172C16.1998 8.01172 15.8618 8.15111 15.612 8.39944C15.4871 8.52339 15.3879 8.67086 15.3202 8.83334C15.2525 8.99582 15.2176 9.17009 15.2176 9.34611C15.2176 9.52213 15.2525 9.6964 15.3202 9.85888C15.3879 10.0214 15.4871 10.1688 15.612 10.2928L19.9987 14.6661H6.66536C6.31174 14.6661 5.9726 14.8066 5.72256 15.0566C5.47251 15.3067 5.33203 15.6458 5.33203 15.9994C5.33203 16.3531 5.47251 16.6922 5.72256 16.9423C5.9726 17.1923 6.31174 17.3328 6.66536 17.3328H19.9987L15.612 21.7194C15.361 21.9687 15.2192 22.3076 15.218 22.6614C15.2167 23.0152 15.3561 23.355 15.6054 23.6061C15.8547 23.8572 16.1935 23.9989 16.5473 24.0002C16.9011 24.0014 17.241 23.8621 17.492 23.6128L23.212 17.8794C23.7128 17.3816 23.9957 16.7055 23.9987 15.9994Z" fill="url(#paint0_linear_1998_23763)"/>
</g>
<defs>
<linearGradient id="paint0_linear_1998_23763" x1="5.33203" y1="-13.3329" x2="13.132" y2="29.4822" gradientUnits="userSpaceOnUse">
<stop stop-color="#FFDA46"/>
<stop offset="1" stop-color="#FFAE00"/>
</linearGradient>
</defs>
</svg>
