<svg width="32" height="32" viewBox="0 0 32 32" fill="none" xmlns="http://www.w3.org/2000/svg">
<g id="tick 3" clip-path="url(#clip0_1998_23775)">
<g id="Group">
<path id="Vector" opacity="0.973" fill-rule="evenodd" clip-rule="evenodd" d="M14.5938 -0.03125C15.5104 -0.03125 16.4271 -0.03125 17.3438 -0.03125C23.6104 0.75255 28.0791 4.00255 30.75 9.71875C31.3935 11.2928 31.7997 12.9178 31.9688 14.5938C31.9688 15.5104 31.9688 16.4271 31.9688 17.3438C31.1849 23.6104 27.9349 28.0791 22.2188 30.75C20.6448 31.3935 19.0198 31.7997 17.3438 31.9688C16.4271 31.9688 15.5104 31.9688 14.5938 31.9688C8.32713 31.1849 3.85838 27.9349 1.1875 22.2188C0.543996 20.6448 0.137746 19.0198 -0.03125 17.3438C-0.03125 16.4271 -0.03125 15.5104 -0.03125 14.5938C0.75255 8.32713 4.00255 3.85838 9.71875 1.1875C11.2928 0.543996 12.9178 0.137746 14.5938 -0.03125ZM15.0938 2.59375C20.6476 2.50044 24.8456 4.81294 27.6875 9.53125C29.8958 13.8229 29.8958 18.1146 27.6875 22.4062C25.2524 26.5267 21.6378 28.8288 16.8438 29.3125C11.2881 29.4361 7.09013 27.1341 4.25 22.4062C2.04167 18.1146 2.04167 13.8229 4.25 9.53125C6.69825 5.41539 10.3128 3.10289 15.0938 2.59375Z" fill="#009E06"/>
</g>
<g id="Group_2">
<path id="Vector_2" opacity="0.968" fill-rule="evenodd" clip-rule="evenodd" d="M22.716 10.2799C23.6703 10.2139 24.212 10.6514 24.341 11.5924C24.3315 11.9438 24.2169 12.2563 23.9972 12.5299C21.0929 15.2467 18.2075 17.9862 15.341 20.7487C15.0258 21.0432 14.6924 21.314 14.341 21.5612C13.8849 21.711 13.4474 21.6694 13.0285 21.4362C11.3097 19.6757 9.59097 17.9154 7.87222 16.1549C7.4206 15.2795 7.61854 14.6024 8.46597 14.1237C8.90104 13.9801 9.31766 14.0218 9.71597 14.2487C11.104 15.6262 12.479 17.0116 13.841 18.4049C16.6401 15.8246 19.411 13.2101 22.1535 10.5612C22.33 10.4312 22.5175 10.3375 22.716 10.2799Z" fill="#009E06"/>
</g>
</g>
<defs>
<clipPath id="clip0_1998_23775">
<rect width="32" height="32" fill="white"/>
</clipPath>
</defs>
</svg>
