<svg width="51" height="51" viewBox="0 0 51 51" fill="none" xmlns="http://www.w3.org/2000/svg">
<g id="Group 950684131">
<g id="Ellipse 256">
<circle cx="25" cy="25" r="25" fill="#D9D9D9"/>
<circle cx="25" cy="25" r="25.5" stroke="white" stroke-opacity="0.2"/>
</g>
<g id="Updated Logo">
<path id="Vector" d="M36.7148 23.8419V23.8179C36.664 22.3866 36.0585 21.0312 35.0265 20.0382C33.9944 19.0452 32.6166 18.4925 31.1845 18.4969C30.479 18.4969 29.1825 18.8719 29.1825 18.8719L29.0285 18.8105C29.0285 18.8105 26.6351 16.9999 24.8605 17C23.086 17.0001 20.693 18.8105 20.693 18.8105L20.5451 18.8741C20.5451 18.8741 19.2453 18.4969 18.5359 18.4969C17.1037 18.4925 15.726 19.0452 14.6939 20.0382C13.6619 21.0312 13.0564 22.3866 13.0056 23.8179V23.828L13 32.9983H13.802C14.4994 32.9973 15.1679 32.7198 15.661 32.2268C16.1542 31.7337 16.4318 31.0653 16.433 30.3679V29.154C17.666 29.6594 19.0399 29.7031 20.3026 29.2773C21.5653 28.8514 22.6321 27.9845 23.3072 26.8356V28.0183C23.3077 28.429 23.471 28.8227 23.7613 29.1131C24.0517 29.4036 24.4453 29.567 24.856 29.5676H24.8605C25.2711 29.567 25.6648 29.4036 25.9552 29.1131C26.2455 28.8227 26.4088 28.429 26.4092 28.0183V26.8356C27.0845 27.9856 28.1521 28.8532 29.4158 29.2791C30.6795 29.705 32.0544 29.6606 33.288 29.154V30.3679C33.2887 31.0657 33.5662 31.7346 34.0595 32.2281C34.5528 32.7215 35.2218 32.9991 35.9195 33H36.7204L36.7148 23.8419Z" fill="white"/>
<g id="Group 950683181">
<path id="Vector_2" d="M24.8891 20.9375H24.8829C24.378 20.9375 23.9688 21.3468 23.9688 21.8517V27.9909C23.9688 28.4958 24.378 28.9051 24.8829 28.9051H24.8891C25.394 28.9051 25.8033 28.4958 25.8033 27.9909V21.8517C25.8033 21.3468 25.394 20.9375 24.8891 20.9375Z" fill="black"/>
<path id="Vector_3" d="M13.6663 23.8131C13.7093 22.7295 14.1107 21.6908 14.8076 20.8599C15.5044 20.029 16.4573 19.4529 17.5169 19.2218C18.5764 18.9908 19.6827 19.1179 20.6622 19.5832C21.6417 20.0486 22.4391 20.8258 22.9294 21.7931C23.4196 22.7604 23.575 23.8631 23.3711 24.9282C23.1672 25.9933 22.6157 26.9606 21.8029 27.6785C20.9901 28.3964 19.962 28.8242 18.8799 28.895C17.7977 28.9657 16.7227 28.6753 15.8234 28.0693V30.3397C15.8235 30.6019 15.772 30.8615 15.6718 31.1038C15.5716 31.3461 15.4246 31.5662 15.2392 31.7517C15.0539 31.9371 14.8338 32.0842 14.5916 32.1846C14.3494 32.285 14.0898 32.3366 13.8276 32.3366H13.6602L13.6663 23.8131ZM18.5626 27.0708C19.1697 27.0715 19.7634 26.8921 20.2686 26.5554C20.7737 26.2186 21.1677 25.7396 21.4007 25.179C21.6336 24.6183 21.6951 24.0012 21.5773 23.4056C21.4595 22.8101 21.1677 22.2628 20.7389 21.833C20.3101 21.4033 19.7634 21.1103 19.1681 20.9912C18.5728 20.8721 17.9555 20.9322 17.3944 21.164C16.8332 21.3957 16.3534 21.7886 16.0155 22.293C15.6777 22.7975 15.497 23.3907 15.4963 23.9978V24.0012C15.4963 24.8144 15.8191 25.5945 16.3936 26.17C16.9682 26.7455 17.7477 27.0695 18.561 27.0708H18.5626Z" fill="#070707"/>
<path id="Vector_4" d="M36.1047 23.8131C36.0616 22.7295 35.6602 21.6908 34.9634 20.8599C34.2665 20.029 33.3136 19.4529 32.2541 19.2218C31.1945 18.9908 30.0883 19.1179 29.1088 19.5832C28.1292 20.0486 27.3318 20.8258 26.8416 21.7931C26.3513 22.7604 26.196 23.8631 26.3998 24.9282C26.6037 25.9933 27.1553 26.9606 27.9681 27.6785C28.7809 28.3964 29.809 28.8242 30.8911 28.895C31.9732 28.9657 33.0482 28.6753 33.9475 28.0693V30.3397C33.9474 30.6019 33.9989 30.8615 34.0992 31.1038C34.1994 31.3461 34.3464 31.5662 34.5317 31.7517C34.7171 31.9371 34.9371 32.0842 35.1793 32.1846C35.4216 32.285 35.6812 32.3366 35.9434 32.3366H36.1108L36.1047 23.8131ZM31.21 27.0708C30.6029 27.0715 30.0092 26.8921 29.5041 26.5554C28.9989 26.2186 28.6049 25.7396 28.372 25.179C28.139 24.6183 28.0776 24.0012 28.1954 23.4056C28.3132 22.8101 28.6049 22.2628 29.0337 21.833C29.4626 21.4033 30.0092 21.1103 30.6045 20.9912C31.1998 20.8721 31.8171 20.9322 32.3783 21.164C32.9394 21.3957 33.4193 21.7886 33.7571 22.293C34.0949 22.7975 34.2756 23.3907 34.2763 23.9978V24.0012C34.2763 24.8147 33.9533 25.595 33.3784 26.1706C32.8035 26.7461 32.0235 27.0699 31.21 27.0708Z" fill="#070707"/>
<path id="Vector_5" d="M20.5523 23.9851C20.5523 24.3777 20.4359 24.7614 20.2179 25.0878C19.9999 25.4142 19.6899 25.6687 19.3273 25.819C18.9647 25.9693 18.5657 26.0087 18.1806 25.9323C17.7956 25.8559 17.4419 25.667 17.1642 25.3896C16.8865 25.1121 16.6973 24.7586 16.6204 24.3737C16.5436 23.9887 16.5826 23.5896 16.7326 23.2269C16.8825 22.8641 17.1366 22.5539 17.4628 22.3355C17.789 22.1172 18.1726 22.0004 18.5651 22C18.6439 22 18.7225 22.0054 18.8005 22.0163C18.6468 22.2264 18.5643 22.4802 18.5651 22.7406C18.5648 23.0702 18.6953 23.3865 18.9281 23.6198C19.1608 23.8532 19.4767 23.9846 19.8063 23.9851C20.0666 23.9859 20.3204 23.9035 20.5306 23.7498C20.5433 23.8277 20.5505 23.9063 20.5523 23.9851Z" fill="black"/>
<path id="Vector_6" d="M24.8832 17.6641C23.5774 17.6641 21.8164 18.9963 21.8164 18.9963L23.1168 20.3201C23.1168 20.3201 24.1294 19.5416 24.8832 19.5416C25.6371 19.5416 26.6497 20.3201 26.6497 20.3201L27.9506 18.9963C27.9506 18.9963 26.1892 17.664 24.8832 17.6641Z" fill="#FFAE00"/>
<path id="Vector_7" d="M33.1875 23.9858C33.1874 24.3784 33.0708 24.7622 32.8526 25.0885C32.6344 25.4149 32.3243 25.6692 31.9616 25.8194C31.5988 25.9695 31.1997 26.0087 30.8147 25.9321C30.4296 25.8554 30.076 25.6663 29.7984 25.3886C29.5208 25.111 29.3318 24.7572 29.2553 24.3722C29.1788 23.9871 29.2181 23.588 29.3684 23.2253C29.5187 22.8626 29.7731 22.5526 30.0995 22.3345C30.426 22.1164 30.8098 22 31.2024 22C31.2811 22.0002 31.3597 22.0059 31.4377 22.017C31.284 22.2271 31.2016 22.4809 31.2024 22.7413C31.202 23.0705 31.3323 23.3865 31.5646 23.6198C31.7969 23.8531 32.1122 23.9847 32.4415 23.9858C32.7018 23.9866 32.9556 23.9042 33.1658 23.7505C33.1784 23.8283 33.1857 23.907 33.1875 23.9858Z" fill="black"/>
</g>
</g>
</g>
</svg>
