<svg width="11" height="9" viewBox="0 0 11 9" fill="none" xmlns="http://www.w3.org/2000/svg">
<path id="Vector" opacity="0.4" fill-rule="evenodd" clip-rule="evenodd" d="M0 4.68222C0 4.52702 0 4.37183 0 4.21663C0.258104 3.66529 0.66569 3.51528 1.22276 3.76657C2.1025 4.68057 2.98391 5.59622 3.86699 6.51351C5.79794 4.57358 7.72887 2.63365 9.65983 0.693718C10.0822 0.403225 10.4745 0.439447 10.8367 0.802354C11.0732 1.18028 11.0528 1.54241 10.7756 1.88872C8.61115 4.03468 6.45604 6.19189 4.31024 8.36032C4.00455 8.54656 3.69886 8.54656 3.39317 8.36032C2.30706 7.24721 1.23204 6.12462 0.16813 4.9926C0.103027 4.8912 0.0469837 4.78775 0 4.68222Z" fill="#A7A7A7"/>
</svg>
