<svg width="32" height="32" viewBox="0 0 32 32" fill="none" xmlns="http://www.w3.org/2000/svg">
<g id="bell-ring (1) 1" clip-path="url(#clip0_390_6803)">
<path id="Vector" d="M27.8119 20.4416L22.7826 28.6483C22.2303 29.5549 21.4785 30.3237 20.5843 30.896C19.6901 31.4683 18.6772 31.8291 17.6226 31.9509C17.3447 31.9839 17.0651 32.0004 16.7852 32.0003C15.3525 31.9983 13.9554 31.5536 12.7852 30.7269C11.576 31.6329 10.0822 32.0757 8.57459 31.9752C7.06696 31.8747 5.6452 31.2375 4.56691 30.179C3.48862 29.1206 2.82513 27.7109 2.69666 26.2054C2.56819 24.6999 2.98323 23.1981 3.86658 21.9723L2.11325 20.2216C1.36458 19.4729 0.795004 18.5645 0.447185 17.5644C0.0993662 16.5644 -0.0176836 15.4986 0.104802 14.4469C0.227287 13.3952 0.586133 12.3848 1.15447 11.4915C1.7228 10.5981 2.48589 9.8449 3.38658 9.28827L11.0759 4.53361C13.1589 3.19864 15.6084 2.55141 18.0789 2.68322C20.5494 2.81504 22.9162 3.71925 24.8453 5.26827L27.0572 3.05627C27.1802 2.92893 27.3274 2.82735 27.49 2.75747C27.6527 2.68759 27.8277 2.65081 28.0047 2.64927C28.1818 2.64773 28.3573 2.68147 28.5212 2.74851C28.685 2.81555 28.8339 2.91455 28.9591 3.03975C29.0843 3.16494 29.1833 3.3138 29.2503 3.47767C29.3174 3.64153 29.3511 3.8171 29.3496 3.99414C29.348 4.17118 29.3113 4.34614 29.2414 4.50881C29.1715 4.67148 29.0699 4.81861 28.9426 4.94161L26.7332 7.15227C28.215 9.00859 29.1092 11.2648 29.3014 13.6323C29.4936 15.9997 28.9749 18.3706 27.8119 20.4416ZM10.7532 28.8629L5.79458 23.9029C5.40709 24.596 5.25763 25.397 5.36914 26.1831C5.48065 26.9692 5.84697 27.697 6.41192 28.2549C6.98181 28.7963 7.70668 29.1459 8.48511 29.2549C9.26353 29.364 10.0566 29.2269 10.7532 28.8629ZM23.9813 8.06294C22.5006 6.56806 20.5516 5.62697 18.4602 5.39712C16.3688 5.16728 14.2618 5.66262 12.4919 6.80027L4.78925 11.5549C4.23064 11.9002 3.75738 12.3674 3.40492 12.9215C3.05247 13.4757 2.82994 14.1023 2.75402 14.7546C2.67809 15.407 2.75073 16.068 2.96649 16.6882C3.18225 17.3085 3.53555 17.8719 3.99992 18.3363L13.7199 28.0576C14.185 28.5232 14.7497 28.8774 15.3714 29.0933C15.9931 29.3093 16.6556 29.3815 17.3093 29.3045C17.9629 29.2275 18.5906 29.0033 19.145 28.6488C19.6995 28.2942 20.1664 27.8186 20.5106 27.2576L25.5173 19.0909C26.4951 17.3346 26.8742 15.3074 26.597 13.3164C26.3199 11.3254 25.4016 9.4788 23.9813 8.05627V8.06294ZM25.6866 32.0003C25.405 32.0008 25.1305 31.9121 24.9024 31.747C24.6743 31.5819 24.5043 31.3489 24.4168 31.0812C24.3293 30.8136 24.3288 30.5251 24.4154 30.2571C24.5019 29.9892 24.6711 29.7555 24.8986 29.5896C27.2333 27.8343 28.8133 25.2571 29.3186 22.3803C29.354 22.2071 29.4235 22.0427 29.5231 21.8966C29.6226 21.7505 29.7502 21.6257 29.8985 21.5294C30.0467 21.4331 30.2126 21.3672 30.3865 21.3356C30.5605 21.304 30.7389 21.3074 30.9116 21.3454C31.0842 21.3834 31.2476 21.4553 31.3921 21.5571C31.5367 21.6588 31.6596 21.7882 31.7537 21.9379C31.8478 22.0875 31.9111 22.2544 31.9401 22.4288C31.9691 22.6032 31.9632 22.7816 31.9226 22.9536C31.2693 26.4625 29.3244 29.599 26.4719 31.7443C26.2438 31.9106 25.9689 32.0002 25.6866 32.0003ZM1.33325 7.65227C1.08699 7.65117 0.845839 7.5819 0.636544 7.45212C0.42725 7.32234 0.257987 7.13713 0.147522 6.91703C0.0370577 6.69693 -0.0102918 6.45054 0.0107238 6.20517C0.0317394 5.9598 0.120299 5.72505 0.266583 5.52694C2.44122 2.62106 5.64234 0.654035 9.21725 0.0269386C9.5638 -0.0437858 9.92425 0.0260528 10.2193 0.221091C10.5144 0.416128 10.7199 0.720389 10.7906 1.06694C10.8613 1.41349 10.7915 1.77394 10.5964 2.069C10.4014 2.36405 10.0971 2.56955 9.75058 2.64027C6.81455 3.1251 4.18023 4.72777 2.39992 7.11227C2.27642 7.27909 2.11568 7.41478 1.9305 7.50853C1.74532 7.60228 1.54081 7.6515 1.33325 7.65227Z" fill="url(#paint0_linear_390_6803)"/>
</g>
<defs>
<linearGradient id="paint0_linear_390_6803" x1="0.00585893" y1="-42.7204" x2="18.0467" y2="41.9734" gradientUnits="userSpaceOnUse">
<stop stop-color="#FFDA46"/>
<stop offset="1" stop-color="#FFAE00"/>
</linearGradient>
<clipPath id="clip0_390_6803">
<rect width="32" height="32" fill="white"/>
</clipPath>
</defs>
</svg>
