<svg width="32" height="32" viewBox="0 0 32 32" fill="none" xmlns="http://www.w3.org/2000/svg">
<g id="bell (6) 1" clip-path="url(#clip0_390_6807)">
<path id="Vector" d="M30.0733 18.2169L27.54 9.10222C26.7974 6.432 25.1836 4.08661 22.9551 2.43885C20.7266 0.791093 18.0112 -0.0644621 15.2406 0.00817802C12.47 0.0808182 9.80319 1.07748 7.66406 2.83975C5.52493 4.60202 4.03625 7.02876 3.43464 9.73422L1.47331 18.5542C1.25666 19.5288 1.26167 20.5396 1.48797 21.512C1.71426 22.4844 2.15606 23.3935 2.78075 24.1723C3.40544 24.9511 4.19707 25.5796 5.09719 26.0115C5.99731 26.4434 6.98294 26.6676 7.98131 26.6676H9.46664C9.77266 28.1746 10.5903 29.5295 11.781 30.5027C12.9716 31.4759 14.4622 32.0076 16 32.0076C17.5378 32.0076 19.0283 31.4759 20.219 30.5027C21.4097 29.5295 22.2273 28.1746 22.5333 26.6676H23.6506C24.6784 26.6676 25.6922 26.4301 26.613 25.9735C27.5337 25.5169 28.3364 24.8536 28.9584 24.0354C29.5804 23.2172 30.0047 22.2663 30.1984 21.2569C30.392 20.2476 30.3483 19.2072 30.0733 18.2169ZM16 29.3342C15.1756 29.3308 14.3725 29.0728 13.7004 28.5954C13.0283 28.1181 12.5201 27.4448 12.2453 26.6676H19.7546C19.4799 27.4448 18.9717 28.1181 18.2996 28.5954C17.6275 29.0728 16.8243 29.3308 16 29.3342ZM26.8346 22.4209C26.4631 22.9138 25.9817 23.3132 25.4288 23.5875C24.8758 23.8618 24.2665 24.0033 23.6493 24.0009H7.98131C7.38236 24.0008 6.79107 23.8662 6.2511 23.607C5.71112 23.3478 5.23625 22.9707 4.86152 22.5034C4.4868 22.0362 4.22179 21.4907 4.08606 20.9073C3.95033 20.324 3.94734 19.7176 4.07731 19.1329L6.03731 10.3116C6.50978 8.1865 7.67905 6.28036 9.35925 4.89615C11.0394 3.51195 13.1341 2.72912 15.3103 2.67211C17.4865 2.6151 19.6193 3.28718 21.3697 4.58151C23.1201 5.87585 24.3876 7.71815 24.9706 9.81556L27.504 18.9302C27.6714 19.524 27.698 20.1487 27.5818 20.7547C27.4657 21.3606 27.2098 21.9311 26.8346 22.4209Z" fill="#A7A7A7"/>
</g>
<defs>
<clipPath id="clip0_390_6807">
<rect width="32" height="32" fill="white"/>
</clipPath>
</defs>
</svg>
