<svg width="16" height="17" viewBox="0 0 16 17" fill="none" xmlns="http://www.w3.org/2000/svg">
<path id="Vector" d="M15.4113 1.08762C15.1722 0.845696 14.8749 0.66951 14.5479 0.576082C14.2209 0.482654 13.8753 0.475141 13.5446 0.55427L2.87762 2.80099C2.26332 2.88524 1.68475 3.13932 1.20705 3.53462C0.729349 3.92992 0.371501 4.45074 0.173804 5.03843C-0.0238929 5.62611 -0.0535867 6.25732 0.0880667 6.86097C0.22972 7.46462 0.537094 8.01673 0.975574 8.45513L2.12094 9.59983C2.18293 9.6618 2.23209 9.73539 2.26561 9.81638C2.29913 9.89738 2.31634 9.98419 2.31627 10.0718V12.1839C2.31775 12.4809 2.38611 12.7737 2.51628 13.0406L2.51095 13.0452L2.52828 13.0626C2.72363 13.4553 3.04268 13.773 3.4363 13.9666L3.45364 13.9839L3.4583 13.9786C3.72522 14.1088 4.01803 14.1771 4.31499 14.1786H6.42704C6.60375 14.1785 6.77328 14.2485 6.89839 14.3733L8.04308 15.518C8.35011 15.8284 8.71553 16.075 9.1183 16.2435C9.52106 16.4121 9.9532 16.4992 10.3898 16.5C10.7537 16.4995 11.115 16.4401 11.4598 16.324C12.0421 16.1328 12.5594 15.7827 12.9534 15.3131C13.3473 14.8436 13.6022 14.2733 13.6892 13.6666L15.9393 2.97633C16.0225 2.64275 16.0176 2.29326 15.925 1.96215C15.8325 1.63103 15.6554 1.32967 15.4113 1.08762ZM3.06496 8.65847L1.91893 7.51378C1.65207 7.25334 1.46503 6.92219 1.37977 6.55919C1.29452 6.19619 1.31457 5.8164 1.43759 5.46439C1.55685 5.10327 1.77733 4.78399 2.0728 4.54455C2.36827 4.3051 2.72629 4.15555 3.10429 4.11369L13.6652 1.8903L3.64831 11.9086V10.0718C3.64932 9.80939 3.59828 9.54935 3.49815 9.30675C3.39802 9.06415 3.25079 8.84381 3.06496 8.65847ZM12.3792 13.4386C12.328 13.8068 12.1752 14.1535 11.9379 14.4397C11.7006 14.7259 11.3883 14.9403 11.0359 15.0589C10.6835 15.1774 10.3051 15.1954 9.94309 15.1108C9.58107 15.0262 9.24979 14.8424 8.98644 14.58L7.83975 13.4333C7.65465 13.2471 7.4345 13.0996 7.19201 12.9991C6.94952 12.8986 6.68952 12.8472 6.42704 12.8479H4.59033L14.6086 2.83299L12.3792 13.4386Z" fill="white"/>
</svg>
