<svg xmlns="http://www.w3.org/2000/svg" width="22" height="23" viewBox="0 0 22 23" fill="none">
  <g clip-path="url(#clip0_1853_22871)">
    <path d="M22 9.66675C22 9.59983 21.9927 9.53312 21.978 9.46783L20.7863 4.08883C20.5649 3.06788 19.9992 2.15409 19.1841 1.50069C18.369 0.847293 17.354 0.494008 16.3093 0.500077H5.69067C4.64663 0.494852 3.6325 0.848522 2.81814 1.50185C2.00377 2.15518 1.43861 3.0685 1.21733 4.08883L0.0220013 9.46783C0.00734202 9.53312 -3.63549e-05 9.59983 1.25528e-06 9.66675V10.5834C-0.000738318 11.4759 0.325346 12.3377 0.916668 13.0062V17.9167C0.918123 19.1319 1.40148 20.2968 2.2607 21.156C3.11993 22.0153 4.28487 22.4986 5.5 22.5001H16.5C17.7151 22.4986 18.8801 22.0153 19.7393 21.156C20.5985 20.2968 21.0819 19.1319 21.0833 17.9167V13.0062C21.6747 12.3377 22.0007 11.4759 22 10.5834V9.66675ZM1.83333 9.76666L3.00667 4.48666C3.13962 3.87456 3.47877 3.32669 3.96735 2.93472C4.45593 2.54276 5.0643 2.33048 5.69067 2.33341H6.41667V5.08341C6.41667 5.32653 6.51325 5.55968 6.68515 5.73159C6.85706 5.9035 7.09022 6.00008 7.33333 6.00008C7.57645 6.00008 7.80961 5.9035 7.98152 5.73159C8.15342 5.55968 8.25 5.32653 8.25 5.08341V2.33341H13.75V5.08341C13.75 5.32653 13.8466 5.55968 14.0185 5.73159C14.1904 5.9035 14.4236 6.00008 14.6667 6.00008C14.9098 6.00008 15.1429 5.9035 15.3149 5.73159C15.4868 5.55968 15.5833 5.32653 15.5833 5.08341V2.33341H16.3093C16.9357 2.33048 17.5441 2.54276 18.0327 2.93472C18.5212 3.32669 18.8604 3.87456 18.9933 4.48666L20.1667 9.76666V10.5834C20.1667 11.0696 19.9735 11.536 19.6297 11.8798C19.2859 12.2236 18.8196 12.4167 18.3333 12.4167H17.4167C16.9304 12.4167 16.4641 12.2236 16.1203 11.8798C15.7765 11.536 15.5833 11.0696 15.5833 10.5834C15.5833 10.3403 15.4868 10.1071 15.3149 9.93523C15.1429 9.76332 14.9098 9.66675 14.6667 9.66675C14.4236 9.66675 14.1904 9.76332 14.0185 9.93523C13.8466 10.1071 13.75 10.3403 13.75 10.5834C13.75 11.0696 13.5568 11.536 13.213 11.8798C12.8692 12.2236 12.4029 12.4167 11.9167 12.4167H10.0833C9.5971 12.4167 9.13079 12.2236 8.78697 11.8798C8.44316 11.536 8.25 11.0696 8.25 10.5834C8.25 10.3403 8.15342 10.1071 7.98152 9.93523C7.80961 9.76332 7.57645 9.66675 7.33333 9.66675C7.09022 9.66675 6.85706 9.76332 6.68515 9.93523C6.51325 10.1071 6.41667 10.3403 6.41667 10.5834C6.41667 11.0696 6.22351 11.536 5.8797 11.8798C5.53588 12.2236 5.06956 12.4167 4.58333 12.4167H3.66667C3.18044 12.4167 2.71412 12.2236 2.37031 11.8798C2.02649 11.536 1.83333 11.0696 1.83333 10.5834V9.76666ZM16.5 20.6667H5.5C4.77066 20.6667 4.07118 20.377 3.55546 19.8613C3.03973 19.3456 2.75 18.6461 2.75 17.9167V14.1337C3.04938 14.2112 3.35741 14.2503 3.66667 14.2501H4.58333C5.10383 14.2504 5.61839 14.1395 6.09263 13.925C6.56687 13.7105 6.98986 13.3972 7.33333 13.0062C7.67681 13.3972 8.0998 13.7105 8.57404 13.925C9.04828 14.1395 9.56284 14.2504 10.0833 14.2501H11.9167C12.4372 14.2504 12.9517 14.1395 13.426 13.925C13.9002 13.7105 14.3232 13.3972 14.6667 13.0062C15.0101 13.3972 15.4331 13.7105 15.9074 13.925C16.3816 14.1395 16.8962 14.2504 17.4167 14.2501H18.3333C18.6426 14.2503 18.9506 14.2112 19.25 14.1337V17.9167C19.25 18.6461 18.9603 19.3456 18.4445 19.8613C17.9288 20.377 17.2293 20.6667 16.5 20.6667Z" fill="url(#paint0_linear_1853_22871)"/>
  </g>
  <defs>
    <linearGradient id="paint0_linear_1853_22871" x1="-3.0569e-07" y1="-28.8701" x2="12.3861" y2="29.3641" gradientUnits="userSpaceOnUse">
      <stop stop-color="#FFDA46"/>
      <stop offset="1" stop-color="#FFAE00"/>
    </linearGradient>
    <clipPath id="clip0_1853_22871">
      <rect width="22" height="22" fill="white" transform="translate(0 0.5)"/>
    </clipPath>
  </defs>
</svg>