<svg xmlns="http://www.w3.org/2000/svg" width="33" height="33" viewBox="0 0 33 33" fill="none">
  <g filter="url(#filter0_d_1850_22627)">
    <path fill-rule="evenodd" clip-rule="evenodd" d="M24.0781 6.98047C24.2552 6.98047 24.4323 6.98047 24.6094 6.98047C24.6803 7.02659 24.7532 7.07346 24.8281 7.12109C24.8848 7.19858 24.9369 7.2767 24.9844 7.35547C24.9844 11.5326 24.9844 15.7096 24.9844 19.8867C24.6984 20.834 24.0734 21.4434 23.1094 21.7148C22.0566 22.0019 21.0774 21.8457 20.1719 21.2461C19.2693 20.5384 19.0453 19.6582 19.5 18.6055C19.9311 17.9336 20.5404 17.5117 21.3281 17.3398C22.2036 17.1442 23.0317 17.264 23.8125 17.6992C23.8281 15.4909 23.8333 13.2826 23.8281 11.0742C20.7862 11.4053 17.7445 11.7386 14.7031 12.0742C14.7184 15.1066 14.7028 18.1378 14.6562 21.168C14.4221 21.9023 13.9481 22.4179 13.2344 22.7148C12.9262 22.8334 12.6137 22.922 12.2969 22.9805C11.9948 22.9805 11.6927 22.9805 11.3906 22.9805C10.4852 22.8691 9.77168 22.442 9.25 21.6992C9.12296 21.4808 9.03442 21.2517 8.98438 21.0117C8.98438 20.793 8.98438 20.5742 8.98438 20.3555C9.25458 19.4446 9.84833 18.8457 10.7656 18.5586C11.73 18.273 12.6518 18.372 13.5312 18.8555C13.5417 15.418 13.5521 11.9805 13.5625 8.54297C13.6796 8.21869 13.9139 8.06765 14.2656 8.08984C17.542 7.72755 20.8128 7.35776 24.0781 6.98047Z" fill="white"/>
  </g>
  <defs>
    <filter id="filter0_d_1850_22627" x="0.984375" y="0.980469" width="32" height="32" filterUnits="userSpaceOnUse" color-interpolation-filters="sRGB">
      <feFlood flood-opacity="0" result="BackgroundImageFix"/>
      <feColorMatrix in="SourceAlpha" type="matrix" values="0 0 0 0 0 0 0 0 0 0 0 0 0 0 0 0 0 0 127 0" result="hardAlpha"/>
      <feOffset dy="2"/>
      <feGaussianBlur stdDeviation="4"/>
      <feComposite in2="hardAlpha" operator="out"/>
      <feColorMatrix type="matrix" values="0 0 0 0 0 0 0 0 0 0 0 0 0 0 0 0 0 0 1 0"/>
      <feBlend mode="normal" in2="BackgroundImageFix" result="effect1_dropShadow_1850_22627"/>
      <feBlend mode="normal" in="SourceGraphic" in2="effect1_dropShadow_1850_22627" result="shape"/>
    </filter>
  </defs>
</svg>