<svg xmlns="http://www.w3.org/2000/svg" width="23" height="23" viewBox="0 0 23 23" fill="none">
  <g clip-path="url(#clip0_1850_22634)">
    <path opacity="0.964" fill-rule="evenodd" clip-rule="evenodd" d="M10.5312 0.480469C11.1615 0.480469 11.7917 0.480469 12.4219 0.480469C16.2914 0.935693 19.2061 2.84064 21.166 6.19531C21.8903 7.56077 22.3271 9.0074 22.4766 10.5352C22.4766 11.1654 22.4766 11.7956 22.4766 12.4258C22.0214 16.2953 20.1164 19.21 16.7617 21.1699C15.3963 21.8942 13.9496 22.331 12.4219 22.4805C11.7917 22.4805 11.1615 22.4805 10.5312 22.4805C6.6617 22.0253 3.747 20.1203 1.78711 16.7656C1.06287 15.4002 0.626017 13.9535 0.476562 12.4258C0.476562 11.7956 0.476562 11.1654 0.476562 10.5352C0.931786 6.66561 2.83673 3.75091 6.19141 1.79102C7.55687 1.06677 9.0035 0.629924 10.5312 0.480469ZM10.5742 1.8125C14.7464 1.6314 17.8902 3.3215 20.0059 6.88281C21.3327 9.5 21.5046 12.1927 20.5215 14.9609C20.1045 15.9817 19.5459 16.9127 18.8457 17.7539C18.089 15.2786 16.5206 13.5384 14.1406 12.5332C15.5797 11.4405 16.2314 9.98675 16.0957 8.17188C15.6909 5.89075 14.3516 4.53722 12.0781 4.11133C9.78359 3.95121 8.14361 4.90367 7.1582 6.96875C6.45996 9.02395 6.89678 10.7928 8.46875 12.2754C8.58335 12.3613 8.6979 12.4473 8.8125 12.5332C6.42017 13.5285 4.85181 15.2688 4.10742 17.7539C2.02916 15.198 1.35598 12.3048 2.08789 9.07422C3.15495 5.48633 5.48242 3.15885 9.07031 2.0918C9.57412 1.97929 10.0754 1.8862 10.5742 1.8125ZM10.9609 5.42188C12.4916 5.28837 13.6446 5.87558 14.4199 7.18359C15.1332 8.84898 14.7967 10.2598 13.4102 11.416C12.0342 12.2807 10.6878 12.2377 9.37109 11.2871C8.12483 10.1193 7.84553 8.75152 8.5332 7.18359C9.08402 6.23871 9.89325 5.65146 10.9609 5.42188ZM10.9609 13.4141C13.8585 13.3544 15.9425 14.6148 17.2129 17.1953C17.4654 17.7608 17.6014 18.348 17.6211 18.957C14.7518 21.1827 11.5864 21.7198 8.125 20.5684C7.15752 20.1994 6.26948 19.6981 5.46094 19.0645C5.36705 19.0109 5.30977 18.9321 5.28906 18.8281C5.76305 16.2259 7.25265 14.5 9.75781 13.6504C10.1606 13.5492 10.5616 13.4704 10.9609 13.4141Z" fill="url(#paint0_linear_1850_22634)"/>
  </g>
  <defs>
    <linearGradient id="paint0_linear_1850_22634" x1="0.476562" y1="-28.8895" x2="12.8626" y2="29.3445" gradientUnits="userSpaceOnUse">
      <stop stop-color="#FFDA46"/>
      <stop offset="1" stop-color="#FFAE00"/>
    </linearGradient>
    <clipPath id="clip0_1850_22634">
      <rect width="22" height="22" fill="white" transform="translate(0.5 0.5)"/>
    </clipPath>
  </defs>
</svg>